<?xml version="1.0" encoding="UTF-8"?>
<svg version="1.1" viewBox="375 0 375 1536" width="375" height="1536" xmlns="http://www.w3.org/2000/svg">
<path transform="translate(420)" d="m0 0h184v1179l9 8 2 4v9l-4 6-1 1v9l4 6 1 6-4 8v18l1 16 2 5 7 3 10 4 7 6 2 4-1 13 9 9 2 5 6 4 8 7h1l-2-20 3-1 4 11 5-11h2l1 2 1 20 7-9 11-6h2l-2 4-7 11-2 7 13-5 11-2h4v2l-11 8-1 1h13l20 4 10 4 6 6 11 4 8 7 4 8 3 18 1 11 3 12 1 14-4 4-13 3 8 5-1 4-7 3-13-1-5 2v7l2 8-5 6-9 3-22 4h-11l-17-1-13-2h-8l-5 3-8 2h-16l-14-2-8-3-3-3h-6l-5 2 4 5-2 4-8 2h-9l-11-4-1-3-20 1h-43l-6-1-4 1-40-1-31-3-9-2-3-2-23-2-12-3v-2l-5 1 2 5-3 4-4 1h-14l-8-3-2-2 1-5h2v-2h5v-2l-13-1-4 5-8 3-4 1h-23l-20-4-6-3-4-4-2-5 1-7 3-4v-2l-4-1-11 3h-5l-5-3-11-4-4-5v-6l4-5 4-1v-16l4-28 3-6 8-7 8-4 13-3 9-1 5-8 8-4 16-3-1-3-6-2-2-1v-2h11l11 4-8-11-9-10-6-6 9 1 7 3 11 7 7 10h1l3-21 4 4 3 12 7-14 4-2-2 14-1 6 8-6h2v-2l5-2 1-5 5-5 3-4-2-5v-6l6-8 8-4 11-3 3-5 2-18 1-18-4-6v-8l4-4v-12l-4-4-1-3v-7l10-13z" fill="#F5D980"/>
<path transform="translate(584)" d="m0 0h20v1179l9 8 2 4v9l-4 6-1 1v9l4 6 1 6-4 8v18l1 16 2 5 7 3 10 4 7 6 2 4-1 13 9 9 2 5 6 4 8 7h1l-2-20 3-1 4 11 5-11h2l1 2 1 20 7-9 11-6h2l-2 4-7 11-2 7 13-5 11-2h4v2l-11 8-1 1h13l20 4 10 4 6 6 11 4 8 7 4 8 3 18 1 11 3 12 1 14-4 4-13 3 8 5-1 4-7 3-13-1-5 2v7l2 8-5 6-9 3-22 4h-11l-17-1-13-2h-8l-5 3-8 2h-16l-14-2-8-3-3-3h-6l-5 2 4 5-2 4-8 2h-9l-11-4-1-3-20 1h-43l-6-1-4 1-40-1-31-3-9-2-3-2-23-2-12-3v-2l-5 1 2 5-3 4-4 1h-14l-8-3-2-2 1-5h2v-2h5v-2l-13-1-4 5-8 3-4 1h-23l-20-4-6-3-4-4-2-5 1-7 3-4v-2l-4-1-11 3h-5l-5-3-11-4-4-5v-6l4-5 4-1v-16l4-28 3-6 8-7 8-4 13-3 9-1 5-8 8-4 16-3-1-3-6-2-2-1v-2h11l11 4-8-11-9-10-6-6 9 1 7 3 11 7 7 10h1l3-21 4 4 3 12 7-14 4-2-2 14-1 6 8-6h2v-2l6-3-1 5-5 2-7 6h-2l-2 8-1 7 5 1 5 5v2h-3l3 4 3-6 3 1h-2l-2 6 2-3 1-2 6 1 9 4-3 1-3-1-1 4 6 3 3 2v2l4 2h4l2-2 1-2 2 2-3 5-3 1-1 8 20 5-1-13h2v-5l4-8-1-2 9-3v-2l14-3 1 2-11 3-7 4-5 13-2 3-1 12h11l10 2 1-7 2-2h9l-1 3-4 1-5 5 9 1-4-1v-2l6 1h2l2-4 1-1h6l6 5 2 1h23v-5h2v5l1 1 1-6 3-1 3 2v3l5-1 1 3h11l19-9 4-2 1-3-3-1 1-5 1-1-2-2 9-1 28-1 1-2-8-3-14-4v-1l8 1 12 3 7 3 10 3 1-5 3-1v2h6v2l5-3v-3l5 1 8-6 7-1v-2h3l-10-4-8 1-10 2-21 1h-9l-21 2-17 1h-41l-1-3 31-1 39-3 14-2 1-4-2-2 2-2 9-1-4-2 2-1-14-1-1-2-13-1h-73l-38-3-21-3-2-2-5-3-14-4-7-4-5-1-2-5v-5l5 1 3 3 21 7-4 4 5 2v2l9 1 19 4 28 3h30l20-1-1-2 2-2-3-2-2-2 40-3 25-3h6v-2l6-3h2v-2h2v-2l5-1-45 5-19 1h-28v-1l8-1v-2l5-3 2-3 1 1 2-5-3-10 2-7-3-10-2-7-3-4 16-2 4-2-10-1v-1l6-1-22-1v-1l13-1 13-2h6v-2h-7v-1l15-1 9-3 22-4 7-2h5v2l4-1v-7l-3-3-3 3-3 2 3 1-1 2-19 2h-20l-29 1h-31l-24-1v-1l57-1 18-1-3-9-34-2 1-2 20-1-9-1v-7l-3-1 1-1 22-2-3-6v-5l6 4v6h15l19-2 5-1v-5h2l1-3 7-2 5 5 3 4-1 5h2v-10l-4-6-4-3h-3l-1 3-12 3-8 1h-9l3-2 3-1-49 2v-3l12-2 27-2-5-1 3-2 10-1 3-2 2-7h2v-29h1l1 29h1l-1-3v-1117z" fill="#73451A"/>
<path transform="translate(456)" d="m0 0h64v1170l-4 5-6 8-14 2h-20l-14-1-8-2-1-5 6-1-1-64h-1l-1-37z" fill="#FCFBBE"/>
<path transform="translate(584)" d="m0 0h20v1179l9 8 2 4v9l-4 6-1 1v9l4 6 1 6-4 8v18l1 16 2 5 7 3 10 4 7 6 2 4-1 13 9 9 2 5 6 4 8 7 3 7 2 4 2 7 2-4 1 7 2 1 1-5 2-1-2 11 6-2 7-8 9-6 4-2-3 4 4 1 18 1 14 3 11 5-3 2-4 2-1 2-25 3 4 2-8 1v2l-3 1 17 2v2l-10 2-9 2-2 2 31 6 3 1v2h-3l-2 2-18-3h-38l-2 1-18 2-13 3-17 2-11 4 11-2v-1l11-1 3-1h18l11 2 2 2-8-1h-15l-14 2-11 3-22 1-7 1-34-3-60-1 13 4 18 8 1 3 9-3 29-5 4-2 5 1 2 1-1 3-18 1-23 4-7 3-3 2 17 3 29 6 1 4h-2v-2l-11-2-29-5h-17l-12 4-6 4-2 2-6 4h-10l-4 1-14-1 1-6 6-1 17-1 15-4 9-4 10-3h7l-1-3 3-3-5-1-19-8-14-3-27-2h-9l-4-2-4-1-4-4h8l-4-1v-2l6 1h2l2-4 1-1h6l6 5 2 1h23v-5h2v5l1 1 1-6 3-1 3 2v3l5-1 1 3h11l19-9 4-2 1-3-3-1 1-5 1-1-2-2 9-1 28-1 1-2-8-3-14-4v-1l8 1 12 3 7 3 10 3 1-5 3-1v2h6v2l5-3v-3l5 1 8-6 7-1v-2h3l-10-4-8 1-10 2-21 1h-9l-21 2-17 1h-41l-1-3 31-1 39-3 14-2 1-4-2-2 2-2 9-1-4-2 2-1-14-1-1-2-13-1h-73l-38-3-21-3-2-2-5-3-14-4-7-4-5-1-2-5v-5l5 1 3 3 21 7-4 4 5 2v2l9 1 19 4 28 3h30l20-1-1-2 2-2-3-2-2-2 40-3 25-3h6v-2l6-3h2v-2h2v-2l5-1-45 5-19 1h-28v-1l8-1v-2l5-3 2-3 1 1 2-5-3-10 2-7-3-10-2-7-3-4 16-2 4-2-10-1v-1l6-1-22-1v-1l13-1 13-2h6v-2h-7v-1l15-1 9-3 22-4 7-2h5v2l4-1v-7l-3-3-3 3-3 2 3 1-1 2-19 2h-20l-29 1h-31l-24-1v-1l57-1 18-1-3-9-34-2 1-2 20-1-9-1v-7l-3-1 1-1 22-2-3-6v-5l6 4v6h15l19-2 5-1v-5h2l1-3 7-2 5 5 3 4-1 5h2v-10l-4-6-4-3h-3l-1 3-12 3-8 1h-9l3-2 3-1-49 2v-3l12-2 27-2-5-1 3-2 10-1 3-2 2-7h2v-29h1l1 29h1l-1-3v-1117z" fill="#74481D"/>
<path transform="translate(544)" d="m0 0h40v1165l2 5-5-2h-2l-1 7-4 3-10 1 9 1v1l-19 2h-10l-3-1 3-9 3 1-3-4z" fill="#E0BA6F"/>
<path transform="translate(420)" d="m0 0h5l1 407v769l5 4 9 3v1l-9-1-6-3-3-1-2 4-6 8v8l5 5 9 3 22 4 18 2 90 4v1l-5 1 2 4v3h9v1l-28 2-32 1h31l34-1h15l18-2-1-1-4-1 9-3 1-3 4 4-1 7-5 2v-2l-7 1-19 4-15 3-4 1-5 1v2l-19 3 9 1 1 2 5 1-4 3-2 1-12 1-3 1 3 2 1 6 3 9 1 4-2 6 2 6 1 6-2 5-2-2-5 5h-2v2l-2 1h22l29-2 27-3 8-1 1 2h-6v2h-2v2l-5 3h-3v2l-31 4-38 3 4 2-2 4 2 2-22 1h-30l-28-3-28-6v-2l-6-2 3-4-15-4-6-4-6-3 2 9 9 3 6 3 11 3 5 3 9 3 14 2 38 3h75l12 1 1 2 13 1 1 2 5 1-4 2-9 1v2 3l3 2-18 3-39 3-29 1v1h40l31-2 7-1h18l17-2 8-2 7 1 9 4-2 2v-2h-2v2l-8 3-7 5-3-1-2-1 1 3-4 3h-2v-2h-6v-2l-3 3-1 3-5-1-8-2-10-4-7-1 16 5 1 2-8 2-23 1-5 1-3 4-1 3 4 1-5 5-20 10h-13l1-4-5 1-1-3-4-1-2 6-2-1 1-5h-2v5l-3 1h-20l-6-4-2-2h-6l-2 4 1 2-10-3v2l7 1v1h-7l-6-2 6-7h4l1-2-9 1-2 3-1 5-21-2v-12l4-7 3-9 8-5 10-3-10 2h-4v2l-7 3 1 2-2 2-2 1-2 10h-2l1 5v8l-6-1-14-3-2-2h2l-1-3 2-4 4-3v-2l-3 1-1 2-7-4v-2l-10-5 2-1v-3h5l-14-5-2 6-2-1 3-6-1 1-3 6-3-4v-2l2-2-4-4-6-1 1-10 3-6 10-8 4-2 1-7 5-5 3-4-2-5v-6l6-8 8-4 11-3 3-5 2-18 1-18-4-6v-8l4-4v-12l-4-4-1-3v-7l10-13z" fill="#7B4A1D"/>
<path transform="translate(520)" d="m0 0h24l1 1170 2 4-3 1-3 7 3 1-16 3 1 2 5 1v1l-16 2v4l4 4 12 1v1l-18 1h-42l-15-1-12-2-14-2v-1l8-1 2-6-3-2 8-1h35l21-1 3-3 3-1 7-10 1-40h1z" fill="#F8E294"/>
<path transform="translate(544)" d="m0 0h18v1121l-1 18v14l-2 13-5 8-7 1-3-5z" fill="#F7DF8F"/>
<path transform="translate(605,1238)" d="m0 0h2l2 29 2 11 7 2 8 2 3-1 6 4 4 5 1 5-1 10 9 9 2 5 6 4 8 7 3 7 2 4 2 7 2-4 1 7 2 1 1-5 2-1-2 11 6-2 7-8 9-6 4-2-3 4 4 1 18 1 14 3 11 5-3 2-4 2-1 2-25 3 4 2-8 1v2l-3 1 17 2v2l-10 2-9 2-2 2 31 6 3 1v2h-3l-2 2-18-3h-38l-2 1-18 2-13 3-17 2-11 4 11-2v-1l11-1 3-1h18l11 2 2 2-8-1h-15l-14 2-11 3-22 1-7 1-34-3-60-1 13 4 18 8 1 3 9-3 29-5 4-2 5 1 2 1-1 3-18 1-23 4-7 3-3 2 17 3 29 6 1 4h-2v-2l-11-2-29-5h-17l-12 4-6 4-2 2-6 4h-10l-4 1-14-1 1-6 6-1 17-1 15-4 9-4 10-3h7l-1-3 3-3-5-1-19-8-14-3-27-2h-9l-4-2-4-1-4-4h8l-4-1v-2l6 1h2l2-4 1-1h6l6 5 2 1h23v-5h2v5l1 1 1-6 3-1 3 2v3l5-1 1 3h11l19-9 4-2 1-3-3-1 1-5 1-1-2-2 9-1 28-1 1-2-8-3-14-4v-1l8 1 12 3 7 3 10 3 1-5 3-1v2h6v2l5-3v-3l5 1 8-6 7-1v-2h3l-10-4-8 1-10 2-21 1h-9l-21 2-17 1h-41l-1-3 31-1 39-3 14-2 1-4-2-2 2-2 9-1-4-2 2-1-14-1-1-2-13-1h-73l-38-3-21-3-2-2-5-3-14-4-7-4-5-1-2-5v-5l5 1 3 3 21 7-4 4 5 2v2l9 1 19 4 28 3h30l20-1-1-2 2-2-3-2-2-2 40-3 25-3h6v-2l6-3h2v-2h2v-2l5-1-45 5-19 1h-28v-1l8-1v-2l5-3 2-3 1 1 2-5-3-10 2-7-3-10-2-7-3-4 16-2 4-2-10-1v-1l6-1v-1l28-2h10l-1 4-4 4-2 5-2 1-2 4 6 1 2 4v6l2 5v6l-1 2h-2l3 3v-2h6l5 2 13-5-2-18v-10l1-3-2-8v-5z" fill="#734419"/>
<path transform="translate(471)" d="m0 0h12l1 968h1v201h-2l-2 4-1 1h-6l-3-3z" fill="#EBD760"/>
<path transform="translate(419,1237)" d="m0 0 12 3 32 4 35 2h47l1 2 5 1-4 3-2 1-12 1-3 1 3 2 1 6 3 9 1 4-2 6 2 6 1 6-2 5-2-2-5 5h-2v2l-2 1h22l29-2 27-3 8-1 1 2h-6v2h-2v2l-5 3h-3v2l-31 4-38 3 4 2-2 4 2 2-22 1h-30l-28-3-28-6v-2l-6-2 3-4-15-4-6-4-6-3 1 8-4-2-4-5v-9l8-7 9-3 7-1 2-3 2-11 3-26z" fill="#F6DC88"/>
<path transform="translate(566)" d="m0 0h8l1 1171-6 2-2-3v-2l-1-2z" fill="#764A1F"/>
<path transform="translate(584)" d="m0 0h5l1 27 1 677h1v463l-3 2-5-1-1-3v-1117z" fill="#764B20"/>
<path transform="translate(544)" d="m0 0h7v1168h2v3l-3 2-4-1-2-2z" fill="#894B16"/>
<path transform="translate(375,1320)" d="m0 0 3 1 3 7 7 6 11 5 22 6 19 3 33 3 19 1h47l31-2 7-1h18l17-2 8-2 7 1 9 4-2 2v-2h-2v2l-8 3-7 5-3-1-2-1 1 3-4 3h-2v-2h-6v-2l-3 3-1 3-5-1-8-2-10-4-7-1 16 5 1 2-8 2-23 1-5 1-3 4-1 3 4 1-5 5-20 10h-13l1-4-5 1-1-3-4-1-2 6-2-1 1-5h-2v5l-3 1h-20l-6-4-2-2h-6l-2 4 1 2-10-3v2l7 1v1h-7l-6-2 6-7h4l1-2-9 1-2 3-1 5-21-2v-12l4-7 3-9 8-5 10-3-10 2h-4v2l-7 3 1 2-2 2-2 1-2 10h-2l1 5v8l-6-1-14-3-2-2h2l-1-3 2-4 4-3v-2l-3 1-1 2-7-4v-2l-10-5 2-1v-3h5l-14-5-2 6-2-1 3-6-1 1-3 6-3-4v-2l2-2-4-4-6-1 1-10 3-6 10-8z" fill="#F6DB8A"/>
<path transform="translate(520)" d="m0 0h7v184h-1v5h1l-1 982-5-1-1-2z" fill="#FCE257"/>
<path transform="translate(420)" d="m0 0h5l1 407v769l5 4 9 3v1l-9-1-6-3-3-1-2 4-2-1 2-3z" fill="#7D5023"/>
<path transform="translate(592)" d="m0 0h5l1 671v501h-1l-2-34-1 23h-1l-1-505z" fill="#B6975D"/>
<path transform="translate(448)" d="m0 0h5v1167l-2-1-1 4-2-4z" fill="#8C531E"/>
<path transform="translate(441)" d="m0 0h5v1168l-4-1-1-583z" fill="#FDFCBD"/>
<path transform="translate(701,1339)" d="m0 0 2 1-3 3 4 1 18 1 14 3 11 5-3 2-4 2-1 2-25 3 4 2-8 1v2l-3 1 17 2v2l-10 2-9 2-2 2 31 6 3 1v2h-3l-2 2-18-3h-38l-2 1-18 2-13 3-17 2-11 4 11-2v-1l11-1 3-1h18l11 2 2 2-8-1h-15l-14 2-11 3-22 1-7 1-34-3-60-1 13 4 18 8 1 3 9-3 29-5 4-2 5 1 2 1-1 3-18 1-23 4-7 3-3 2 17 3 29 6 1 4h-2v-2l-11-2-29-5h-17l-12 4-6 4-2 2-6 4h-10l-4 1-14-1 1-6 6-1 17-1 15-4 9-4 10-3h7l-1-3 3-3-5-1-19-8-14-3-27-2h-9l-4-2-4-1-4-4h8l-4-1v-2l6 1h2l2-4 1-1h6l6 5 2 1h23v-5h2v5l1 1 1-6 3-1 3 2v3l5-1 1 3h2v2l51-1 4 2h11l5 3-4-5 4-1 10 7-1-8-3-6 3-1 1 4 2 1v4l2-4 2 2v3h2l1-4 2-2 3 2-7 7 4-2 3-2v3h2l2-4h5v-3l10-6 8-5 2-3 3-1 1-2h2v-2h2l1-2 6 1 1 5 10-2 7-1 7-5h5v-2l-8-4-3-1h-8l-10 3-5 4-5 1-2 4h-10l2-3 5 1 2-6 3-1-2-11 8-3 3-4h4v-3l2 1 2 4 4 2 1-7 3 1 2 7 2-4 1 7 2 1 1-5 2-1-2 11 6-2 7-8 9-6z" fill="#73471D"/>
<path transform="translate(434)" d="m0 0h4l1 678v488l-3 3-4-2 1-2z" fill="#7E5124"/>
<path transform="translate(419,1237)" d="m0 0 12 3 32 4v1h-11l-1 2h-6l12 3 5 5 1 4v8l-2 5h-2l-2 8-2 9-6 3-9 1-3 2 19 4 26 2 1-5h4l1 5 13 1-2 3-14 1-31-1-30-3v-2l-10-1 6 3 18 4 2 1v3l22 4 10 1h24l21-1 5-1v-2h-2v-2l-3-2 30-1 1-1 29-2 27-3 8-1 1 2h-6v2h-2v2l-5 3h-3v2l-31 4-38 3 4 2-2 4 2 2-22 1h-30l-28-3-28-6v-2l-6-2 3-4-15-4-6-4-6-3 1 8-4-2-4-5v-9l8-7 9-3 7-1 2-3 2-11 3-26z" fill="#F6DC87"/>
<path transform="translate(425)" d="m0 0h5v383l1 329v456h-4l-1-121-1-640z" fill="#FBF7B6"/>
<path transform="translate(501)" d="m0 0h5v40h-1l-1-5 1 8h1v205h-2v8h2v182l-1 434v285l-2 2-1 6h-1z" fill="#FDFBBD"/>
<path transform="translate(477)" d="m0 0h4l1 7v1131l-1 28-2 2-1-2-1-302z" fill="#FDFCBE"/>
<path transform="translate(527)" d="m0 0h3l1 208v10l-3-1v2h2l1 17v859l-1 40v11h-1l-1 21h-1l-1-114v-861h-1v-41h1z" fill="#FCF5AC"/>
<path transform="translate(495)" d="m0 0h4v1158l-1 10 3 1-4 1-2-2z" fill="#D1B047"/>
<path transform="translate(430)" d="m0 0h4v1088h-1l-1 72h-1l-1-203v-269l-1-336v-304z" fill="#F4D85B"/>
<path transform="translate(676,1385)" d="m0 0h38l23 4 12 6-1 3-21 5-10 3-9 7-6 5h-3l-2-4-12 1-17 4-7 2h-17l-10-4-8-1-3-1-1-1h-10v-1l-33-7-4-1v1l-22 4-16 3-5 1-3-3-21-9-10-3 3-1 59 1 34 3 7-1 22-1 16-4 9-1h15l-5-1h-18l-12 2v1l-16 2 2-2 12-4 22-3 14-3 12-1z" fill="#F4DA8A"/>
<path transform="translate(648,1322)" d="m0 0 4 1 8 7 4 5 2 10v6l-2-4-5-3-2-4v3h-4l-2 4-4 2-5 1 3 11-5 5-1 2h-5l-1 1h9l4-4 10-6 8-2h8l10 4 3 3v6l-2-4h-5l-7 5-10 1-5 2-3-3v-3h-6l-3 1v2h-2l-1 3-3 1-5 5-12 7-3 1v3l-6 2-1 2h-2l-1-2-6 5v-3l6-6-4 1-1 3h-2l-2-4-1 9h-1l-1-10-3-4-1 1 2 1 2 8v5l-7-4-4-3-3 1 3 2v2l-6-2h-10l-4-2h-51v-1l9-1 19-9 4-2 1-3-3-1 1-5 1-1-2-2 9-1 28-1 1-2-8-3-14-4v-1l8 1 12 3 7 3 10 3 1-5 3-1v2h6v2l5-3v-3l5 1 8-6 7-1v-2h3l-10-4-4-5 12-5 8-4 5-5z" fill="#7B603F"/>
<path transform="translate(499)" d="m0 0h2l1 1159 1-13h1v-306l1-443v-105l1-36h-2v-8h2l-1-44v-150h-1l-1-19 1-9h1l1-26h1v1168l-3 5-1 1h-6l-2-2v-3h3l-1-2 1-9z" fill="#F6DB89"/>
<path transform="translate(309,1307)" d="m0 0 9 1 7 3 11 7 7 10h1l3-21 4 4 3 12 7-14 4-2-2 14-1 6 8-6h2v-2l6-3-1 5-5 2-7 6h-2l-2 8-1 7 5 1 5 5v2h-3l2 3-1 11h-6l-2-12v10l-2-4h-2l4 11v1h-9l-12-4-2-1h-18v2l-22 5-9-1-11-2 14 4-3 2-12 3-13 3-1 8-6-2-4-9v-8l5-7 9-5 10-3 21-3h11l-11-2 2-6 4-3 15-2-6-1v-1l7-1-1-3-6-2-2-1v-2h11l11 4-8-11-9-10-4-4z" fill="#7D6340"/>
<path transform="translate(453)" d="m0 0h3l1 8v1144h-2v14h-2z" fill="#FDEA5A"/>
<path transform="translate(328,1374)" d="m0 0h36l2 2-2 1 30 10 15 4 16 3-4 2-20 5-12 4-10 9-29 2-11 2v1l-6 2-5-1-3-5v-2l-6-2-14-6-1 15-2-1v-11l2-7 13-7 16-3h10l1-2-17 2-17 1-2 5-4 1h-4l-3 2-7-1-8-3-4-1-2 19h-1l-1-6 2-18 3-4 14-5 17-4z" fill="#F5DC8C"/>
<path transform="translate(388,1305)" d="m0 0h2l3 5 10 5 21 5 26 4 38 3h75l12 1 1 2 13 1 1 2 5 1-4 2-23 3-34 3-6 1-3 2h-2l1 2 3 2h-45l-35-3-15-3-7-4-4-2h8l-22-5-13-5-7-4-4 1-2-5v-6z" fill="#FCF072"/>
<path transform="translate(520)" d="m0 0h2v1168h2v-68l1-908 2-3-1 982-5-1-1-2z" fill="#8A4C17"/>
<path transform="translate(551)" d="m0 0h2l1 51v1117h-3z" fill="#CFAA51"/>
<path transform="translate(437,1396)" d="m0 0 44 2 18 2 12 4 19 8-2 6-10 2-15 5-7 3-9 2-17 1-4 1-2-1-1 3-2-6-5-2-10-1-23-1-1-2h-17l-13-3-4-2 2-5 10-7 8-4 17-4z" fill="#F6DC8C"/>
<path transform="translate(544)" d="m0 0h1l1 994v-319l1-32h1l1-412h1v939l-1 2-4-1-1-1z" fill="#724318"/>
<path transform="translate(530)" d="m0 0h3v1168l-4 1-1-1v-24h1v-15l1-34v-876h-2v-2h2z" fill="#F7DE87"/>
<path transform="translate(605,1238)" d="m0 0h2l2 29 2 11 7 2 7 3-5 5-14 5-16 4-15 2-35 4h-10v-2l3-2 2-3 1 1 2-5-3-10 2-7-3-10-2-7-3-4 16-2 4-2-10-1v-1l6-1v-1l28-2h10l-1 4-4 4-2 5-2 1-2 4 6 1 2 4v6l2 5v6l-1 2h-2l3 3v-2h6l5 2 13-5-2-18v-10l1-3-2-8v-5z" fill="#DCB369"/>
<path transform="translate(438)" d="m0 0h3l1 584v220h-1l-1 361h-1l-1-487z" fill="#F8EDA0"/>
<path transform="translate(589)" d="m0 0h3l1 439v241l1 456 1-40h1l1 76h3l2 9-2 1-1 3-12 3-8 1h-9l3-2 3-1-49 2v-3l12-2 27-2-5-1 3-2 10-1 3-2 2-7h2v-29h1l1 29 3 1 5-2v-456h-1z" fill="#7A6243"/>
<path transform="translate(517,1422)" d="m0 0h17l29 5 11 3v2h3v3l7 1 14 5 1 2-4 1-1 2-20-1-1-4 4-2-3-2-1-3-15 1-2 6-2 1v-2l-4 2v3h-2v6l-1 1 1 6v9l13 2v1l-20 2h-20l-16-2-2-5-2-13-2-3-2-7v-9l5-5 8-4z" fill="#937D50"/>
<path transform="translate(592)" d="m0 0h5l1 676h-2l-1-636v597l-1 27h-1l-1-8z" fill="#DEB76C"/>
<path transform="translate(443,1437)" d="m0 0 21 1 18 3 10 1 2 1 4 14 2 13v1h-26l-3-1-2 1h-22l-21-3-5-3-2-2-1-9 3-8 6-5 9-3z" fill="#947E50"/>
<path transform="translate(450)" d="m0 0h3v607l-1 36-1 287h-1z" fill="#BA9253"/>
<path transform="translate(375,1320)" d="m0 0 3 1 3 7 7 6 11 5 22 6 12 2 2 2 8 2-3 2-9 1v2l-7 3 1 2-2 2-2 1-2 10h-2l1 5v8l-6-1-14-3-2-2h2l-1-3 2-4 4-3v-2l-3 1-1 2-7-4v-2l-10-5 2-1v-3h5l-14-5-2 6-2-1 3-6-1 1-3 6-3-4v-2l2-2-4-4-6-1 1-10 3-6 10-8z" fill="#F2D889"/>
<path transform="translate(607,1219)" d="m0 0 4 4-1 7-5 2v-2l-7 1-19 4-44 5-14 1 7 1v1l-26 2-33-1-21-3-8-2v-1h7l-5-2-11-2-11-4-5-3-1 2-1-5 4-4 5 2 13 3 27 3 42 2h31l34-1h15l18-2-1-1-4-1 9-3z" fill="#F2D584"/>
<path transform="translate(452,1245)" d="m0 0h27l34 2-1 2 13 1v2l-10 1-32 1 1 7-1 5 2 2h5l1 3-2 1h-6l1 1-1 5-5-5-1-9h2l-1-7-2-1 1 6-1 2v7l6 9 2 7h2l-1-5 2 2 2 3 7 4 4-1 1 5 2 3-1 2 2 1h-17l-1-5-3 1-1 4h-18l-18-3-11-3 3-2 2-1 9-1 6-2 1-10 2-9 1 2h2l1-8v-7l-4-6-9-2-5-1 1-2h6z" fill="#FCFBBB"/>
<path transform="translate(304,1404)" d="m0 0 17 7 4 2 4 7 5-1 3-2 13-2 12-1h17l-2 27-2 3h-9l-2 2h-3l-2-4-2-2v-5l-2-1v5l1 4h-17l-1-3-5-2-9-4-21-4v-8h-1l-1 9-2-1v-5l-5 1-3-1v-6l13 1z" fill="#957E51"/>
<path transform="translate(430)" d="m0 0h4v683l-2 1-1-308-1-69 1-134-1-27v-18l2-26h-2l-1-54z" fill="#EFD080"/>
<path transform="translate(523)" d="m0 0h4v184h-1l-1 725-2-3z" fill="#DCB369"/>
<path transform="translate(419,1207)" d="m0 0 10 3 21 3 62 4h46v1l-5 1 2 4v3h9v1l-28 2h-56l-26-2-24-4-10-3-1-1z" fill="#FCEF70"/>
<path transform="translate(432,1367)" d="m0 0h8v2l14 1v3h2v6l11 3 5 4 8 3 13-3 7-9 1-3 3-1 3 3h5l1-2 6-1v-2l6-1v-2l14-1h14v1l-5 1-3 4-1 3 4 1-5 5-20 10h-13l1-4-5 1-1-3-4-1-2 6-2-1 1-5h-2v5l-3 1h-20l-6-4-2-2h-6l-2 4 1 2-10-3v2l7 1v1h-7l-6-2 6-7h4l1-2-9 1-2 3-1 5-21-2v-12l4-1 1-3 6-4z" fill="#D9B167"/>
<path transform="translate(648,1322)" d="m0 0 4 1 8 7 4 5 2 10v6l-2-4-5-3-2-4v3h-4l-2 4-4 2-5 1 3 11-5 5-1 2h-5l-1 1h9l4-4 10-6 8-2h8l10 4 3 3v6l-2-4h-5l-7 5-10 1-5 2-3-3v-3h-6l-3 1v2h-2l-1 3-3 1-5 5-12 7-3 1v3l-7 1 4-5 1-4 16-8h3v-2h-12v2l-4 3v-3l5-10 1-5h-2v-2l-2-1 4-4 7-1v-2h3l-10-4-4-5 12-5 8-4 5-5z" fill="#7D6646"/>
<path transform="translate(436,376)" d="m0 0h1v789h-1v-429h-2v-357z" fill="#854A17"/>
<path transform="translate(506)" d="m0 0h1v1168l-3 5-1 1h-5v-2l5-2 1-3-1-3 1-1v-323l1-443v-105l1-36h-2v-8h2l-1-44v-150h-1l-1-19 1-9h1z" fill="#FCF172"/>
<path transform="translate(447)" d="m0 0h1l1 221v945l2 5 5 1v-2h2l-1 3-5 2-4-1-1-3z" fill="#FCF6BB"/>
<path transform="translate(700,1433)" d="m0 0h10l16 3 14 7-2 1-2-1v2l-3 2-15-1 9 2-2 2-9 3-5 2-1 1v10l2 6-7 1-9-1-1-5-1-4 2-5-2-1-1-1v4h-2v-2h-3v-2l-14 1v2h-2l-1-3h-2l-2 4-4 1-2-4 10-6-2-1 1-3 13-8 13-5z" fill="#F3D888"/>
<path transform="translate(600,1181)" d="m0 0 4 1 6 5 2 4v8l-1 2h-2v-5l-5-7-3-1-6 2-3 7-5 2-23 2-11-1-1-6-4-2 1 6 1 3-2 1-20 2 2 1 1 6 20 1v1l-32 2h-31v-1l14-1 4-1 2-5 4-1v-3l10-2-5-5-1-4 2-1 9-1 5-3 38-2h9l-3 2-3 1 14-1 12-2z" fill="#F6DC85"/>
<path transform="translate(530)" d="m0 0h3v504l-3 4v-289h-2v-2h2z" fill="#F8E084"/>
<path transform="translate(592,680)" d="m0 0h1l1 456 1-40h1l1 76h3l2 9-2 1-1 3-12 3-8 1h-9l3-2 3-1-49 2v-3l12-2 27-2-5-1 3-2 10-1 3-2 2-7h2v-29h1l1 29 3 1 5-2z" fill="#937D50"/>
<path transform="translate(605,1238)" d="m0 0h2l2 29 2 11 7 2 7 3-5 5-14 5-16 4-10 1-5-2v-2h-5l-3-6-1-10-1-6-4-2-2-3-2-4v-1l-2-1 3-8 7-3 1-1-2-2 9-3h10l-1 4-4 4-2 5-2 1-2 4 6 1 2 4v6l2 5v6l-1 2h-2l3 3v-2h6l5 2 13-5-2-18v-10l1-3-2-8v-5z" fill="#957E50"/>
<path transform="translate(739,1358)" d="m0 0h10l14 4 7 6 3 8-1 4v-2l-7 2-3 2h-5l2-2-7 2-12 3-12-1-20-4-8-1 5-4 12-3h7v-2l-18-1 1-2h3v-2l3-1-2-2 17-3z" fill="#F4D988"/>
<path transform="translate(283,1356)" d="m0 0h15l13 2 16 4 4 3-8 2h-4v2l-22 5-9-1-11-2 14 4-3 2-12 3-13 3-1 8-6-2-4-9v-8l5-7 9-5 10-3z" fill="#F5DB8B"/>
<path transform="translate(573,1433)" d="m0 0 3 1h-2l1 3 3 3-4 2v3l7-1 13 2 2-4 7 1 1 4-4 1-1 1-1 7-2 1-3-1v-5l-3 1-2 5 1 2-1 2 2 2-10 2-15 2 1 2-5 1-13-2-1-1v-10l-1-6h2v-6l2-4 4-1h2l1-4-4-1 5-1z" fill="#7B6446"/>
<path transform="translate(431,1348)" d="m0 0h9l33 3 51 2 1 2h-37l2 2 13-1-1 3 3 1 1 4 3 2 6 1v1h-33l-44-1-7 2-6 4-1 2-3-1 3-5 3-9 8-5 10-3-14-3z" fill="#FCF9B8"/>
<path transform="translate(609,1299)" d="m0 0 4 1v1h-6v2h-2v2l-5 3h-3v2l-31 4-38 3 4 2-2 4 2 2-22 1h-30l-12-1v-1l12-1-2-2 11-1-1-3-7-1v-1h15l21-1 5-1v-2h-2v-2l-3-2 30-1 1-1 29-2 27-3z" fill="#F6DB84"/>
<path transform="translate(517,1422)" d="m0 0h17l29 5 11 3v2h3v3l7 1 14 5 1 2-4 1-1 2-20-1-1-4 4-2-3-2-1-3-46 3-9 1 4 2-2 1-1 7-4 3-2-1 2-2-5-3-6-2v9l-1 6h-1l-1-6-2-3-2-7v-9l5-5 8-4z" fill="#F6DE8E"/>
<path transform="translate(602,1239)" d="m0 0 2 1 1 11 1 4-1 1v10l2 18-5 3-11 3-3-2-6-1 1 3-2 1-2-5h2v-8l-2-5-1-9-6-2 1-5 3-1 3-7 3-2-2-2h3v-2z" fill="#7A6345"/>
<path transform="translate(580,1408)" d="m0 0 12 2 13 4 14 7v1l-18 4-8 2h-5v2l-13-1-29-6-20-3 3-2 7-4 13-3 13-2z" fill="#F4DA8B"/>
<path transform="translate(387,1416)" d="m0 0 13 4 5 1h18v3h23l13 2 3 2 1 5h-2l1 3h-26l-2-1v2l-7-2-3 3-5 3 1 2-25-3-7-4-2-13z" fill="#927C50"/>
<path transform="translate(448,1187)" d="m0 0 86 2v1l-16 2v4l4 4 12 1v1l-18 1h-42l-15-1-12-2-14-2v-1l8-1 2-6-3-2z" fill="#FDFCBD"/>
<path transform="translate(576,1366)" d="m0 0h5l6 7 2 5v5l-1 2-5-2-10-3-2-2 1 3 3 3v2l-9-1-1 1 5 2 2 2 8 3-1 2h-10l-4-2h-51v-1l9-1 19-9 4-2 1-3-3-1 1-5 1-1-2-2 9-1z" fill="#988151"/>
<path transform="translate(561,1327)" d="m0 0 14 1 1 2 13 1 1 2 5 1-4 2-23 3-22 2h-55v-1h7l-1-2-2 1 2-5-3-1v-4l2-1z" fill="#FCF272"/>
<path transform="translate(448,1330)" d="m0 0h19l5 1v2l16 3 2-4 1 3-2 6h17l23-1 5 1v1l-6 1-3 2h-2l1 2 3 2h-45l-35-3-15-3-7-4-4-2h23l3-1-1-2z" fill="#F6DB87"/>
<path transform="translate(334,1389)" d="m0 0h10l-1 3h-10l-16 3-12 6-2 7v12l-12-1v2l2 1h-2v3l8-1 1 1-1 7h-8l-7 1-8-3-2-6v-7l1-3 2-20 12 3 4 2 5-1 6-2v2l4-2 1-3-3-2 21-1z" fill="#7B6446"/>
<path transform="translate(481,865)" d="m0 0h1l1 31 1 72h1v201h-2l-2 4-1 1h-6l-2-3 5 1-3-4h2l-1-2v-6h3l1 6h1l1-35z" fill="#FDEF69"/>
<path transform="translate(424,688)" d="m0 0h2v483h-2l-1-331z" fill="#724317"/>
<path transform="translate(664,1309)" d="m0 0h2l4 11 5-11h2l1 2 1 20 7-9 11-6h2l-2 4-7 11-2 7 13-5 11-2h4v2l-11 8-4 3-2-1 2-3-6 5-8 6-5 6h-5v-7l-1 2-3-1-4-5-2-7h-1l-2-22-1-7z" fill="#7A5E3D"/>
<path transform="translate(394,1298)" d="m0 0 5 1 3 3 21 7-4 4 5 2v2l9 1 19 4 28 3h30l20-1-1-2 2-2-3-2-2-2 40-3 16-2h6l-2 6 5 1v1l-25 4-30 2-2 2v1h-46l-38-3-21-3-2-2-5-3-14-4-7-4-5-1-2-5z" fill="#8A4E19"/>
<path transform="translate(550,232)" d="m0 0h1v936h2v3l-3 2-3-1h2z" fill="#8B4C16"/>
<path transform="translate(596,831)" d="m0 0h2v341h-1l-2-34-1 23h-1v-137l2 2v62z" fill="#E5C174"/>
<path transform="translate(429,91)" d="m0 0h1v11l3-1-2 32v19l1 31-1 125 1 68-1 312h-1l-1-336z" fill="#FCF371"/>
<path transform="translate(624,1282)" d="m0 0 7 2 5 7-1 7-4 7-4 1v-6l4-3-5 2-9 4-2 2-16 5-2-2 6-3h2v-2h2v-2l5-1-45 5-19 1h-28v-1l8-1v-2h12l46-5 17-4 10-3 8-4z" fill="#76481C"/>
<path transform="translate(522,863)" d="m0 0 2 1v42l1 3v227l-1 32h-2z" fill="#EBC966"/>
<path transform="translate(431,303)" d="m0 0 3 1v379l-2 1-1-308-1-69z" fill="#F0D180"/>
<path transform="translate(620,1345)" d="m0 0 7 1 9 4-2 2v-2h-2v2l-8 3-7 5-3-1-2-1 1 3-4 3h-2v-2h-6v-2l-3 3-1 3-5-1-8-2-10-4-9-2-16 1 2-2h6l-1-5 21-2h18l17-2z" fill="#F3D787"/>
<path transform="translate(438)" d="m0 0h3v394h-1l-1-185h-1z" fill="#F4E48A"/>
<path transform="translate(434)" d="m0 0h4v207h-1l-1-12 1-10h-2v17h-1z" fill="#734317"/>
<path transform="translate(412,1298)" d="m0 0 9 1 3 1v2h13l17 2 34 2 29 1 8 1v1h-5v2h2v2l-5 2-22 1h-23l-23-3-13-3 4-1v-2l-16-3-8-3z" fill="#FDFCBE"/>
<path transform="translate(498,1398)" d="m0 0 62 1 34 3 14-1-3 3-9 2 4 2-7 1-18-4v1l-22 4-16 3-5 1-3-3-21-9-10-3z" fill="#F5D988"/>
<path transform="translate(303,1432)" d="m0 0 16 2 11 4 5 5-4 2h-13l-2 5 3 1-4 1-1 2v-5l-2 1-2 4-7 1-7-3-1-2-7 1-1-2-7-1-2 5-2-2 1-5 4-5 13-7z" fill="#F4DA8A"/>
<path transform="translate(432,1367)" d="m0 0h8v2l14 1v3h2v6l11 3 5 4 7 2 1 3h-7l-6-4-2-2h-6l-2 4 1 2-10-3v2l7 1v1h-7l-6-2 6-7h4l1-2-9 1-2 3-1 5-21-2v-12l4-1 1-3 6-4z" fill="#DDB569"/>
<path transform="translate(443,1351)" d="m0 0 3 1v1l-11 3-7 4-5 13-2 3-1 12h11l10 2 1-7 2-2h9l-1 3-4 1-5 5 5 3 3 3 1-2v2h6v1h-21l-12 1-15 3 1-3 10-3-7-2-16-4-16-5-13-5-9-2v-1l5-1 3-3 3 3 8 3 22 5 13 3 4 1-1-13h2v-5l4-8-1-2 9-3v-2z" fill="#764C22"/>
<path transform="translate(498,848)" d="m0 0h1v310l-1 9-2-2v-116l1-200z" fill="#FDE34D"/>
<path transform="translate(590,399)" d="m0 0h2l1 17v259l-1 29-1 7h-1z" fill="#7B6141"/>
<path transform="translate(527)" d="m0 0h3l1 208v10h-4l-1-26h-1v-41h1z" fill="#FCF9B9"/>
<path transform="translate(633,1306)" d="m0 0 5 2 6 6 1 7-3 5-10 6-3-1 5-2v-5l-9 3-10 4-15 3h-13l2-2-14-1-1-2-11-1v-1l21-2h20l12-3 11-7-3-1 8-6z" fill="#978052"/>
<path transform="translate(615,1413)" d="m0 0h7l4 2 8 1 10 4-2 1 1 5-2 16-1 3v5l5-2 1-4v-3l6-9h8l-5 6-4 7-4 5 1 5-24 1-5-6-1-6 2-1-1-2h3l6 7 3 5h2l3-19 2-6v-5l-2 7h-1v-5l-8 1-2-1 5 18 2 5-1 3-5-9-5-16-1-5-3-3v-2h-2z" fill="#7B6243"/>
<path transform="translate(590,826)" d="m0 0h2v341l-4 2 1-3z" fill="#76532F"/>
<path transform="translate(448,1200)" d="m0 0h8l6 1 12 1 38 1v3l-4 2-2 4 12 1v1h-50l-18-2-2-8z" fill="#FEE447"/>
<path transform="translate(600,1181)" d="m0 0 4 1 6 5 2 4v8l-1 2h-2v-5l-5-7-3-1-6 2-3 7-5 2-23 2-11-1-1-6-4-3v-2h-2v5l-2-3 2-4 24-2h9l-3 2-3 1 14-1 12-2z" fill="#F5DA88"/>
<path transform="translate(421,1303)" d="m0 0 13 2 6 2v3l22 4 26 2 4 3-2 2-9 1-1 2h-19l-13-2-24-5v-2l-6-2 3-4-5-2 2-1v-2z" fill="#F6DB88"/>
<path transform="translate(576,1337)" d="m0 0h5l2 4-1 1 3 2-18 3-39 3-29 1-1 2-25-1-23-2-2-2-5-2 4-1 35 3h42l-1-3 2-1-2-2z" fill="#8A4E19"/>
<path transform="translate(545,1048)" d="m0 0 2 2 1 4 1 19h1v97l-1 2-4-1-1-1v-96z" fill="#794517"/>
<path transform="translate(423,1226)" d="m0 0 8 1 13 2 59 2 15 1 4 1 22 1h13v1l-17 2-12 1h-62l-20-4v-2l-13-1-9-1 2-2z" fill="#FDFCBD"/>
<path transform="translate(417,1220)" d="m0 0 5 2 13 3 27 3 18 1v1h-36l-18-3 3 2 4 1 10 1 3 1v2l14 2 6 1 62 1v1l-40 2 16 1-2 1v2l-33-1-21-3-8-2v-1h7l-5-2-11-2-11-4-5-3-1 2-1-5z" fill="#F9E972"/>
<path transform="translate(648,1322)" d="m0 0 4 1 8 7 4 5 2 10v6l-2-4-5-3-2-4v3h-4l-2 4-4 2-17-1-5-2-4-5 12-5 8-4 5-5z" fill="#957D50"/>
<path transform="translate(481,1398)" d="m0 0h17l15 5 18 8 1 3 9-3 29-5 4-2 5 1 2 1-1 3-18 1-23 4-7 3-3 2 17 3 29 6 1 4h-2v-2l-11-2-29-5h-17l-12 4-6 4-2 2-6 4h-10l-4 1-14-1 1-6 6-1 17-1 15-4 9-4 10-3h7l-1-3 3-3-5-1-19-8-14-3-11-1z" fill="#764A1F"/>
<path transform="translate(378,1319)" d="m0 0 4 1 1 4 1-2 5 1 12 6 22 6 10 2v1h-8l7 4 10 2 6 3 5 1v1h-13l-23-4-18-5-14-7-7-8-1-5z" fill="#774619"/>
<path transform="translate(547,1190)" d="m0 0 6 4v6h15l12-1 1 9h8l-4 2-15 2-19 1-21-1v-7l-3-1 1-1 22-2-3-6z" fill="#8C521D"/>
<path transform="translate(373,1350)" d="m0 0 3 1h-2l-2 6 2-3 1-2 6 1 9 4-3 1-3-1-1 4 6 3 3 2v2l4 2h4l2-2 1-2 2 2-3 5-3 1-1 9-9-2-14-3-6-4 1-18z" fill="#977F51"/>
<path transform="translate(450,936)" d="m0 0h1l1 230h3v-14h2l-1-8v-65h1l1-83h1v177l-1-3h-2v2h-5l-1-4z" fill="#EDD16E"/>
<path transform="translate(335,1442)" d="m0 0 4 3-1 3-1-1-1 5-8-1-10 4 2 2h-6l1 7-7 1-14-2-12-4-3-2v-2h-2l2-7 2-1 7 2v2l3-2 5 1 1 2 7 2 7-2v-3h3l1 3 2-1-1-5 2-2h13z" fill="#7E6645"/>
<path transform="translate(505,664)" d="m0 0h1l1 504-3 5-1 1h-5v-2l5-2 1-3-1-3 1-1v-323z" fill="#FEE548"/>
<path transform="translate(472,635)" d="m0 0h1l1 533 5 2-1 3-7-2z" fill="#F5D988"/>
<path transform="translate(419,1207)" d="m0 0 10 3 21 3 14 1 1 4 1 2h-2v6l-3 1-14-1-25-5-3-2z" fill="#FEE447"/>
<path transform="translate(390,1442)" d="m0 0h7l22 4-2 5-3 6-1 1-16-1 4-2h-5l-4 1 1-3-6-1 1 4 8 2 16 1 1 6h-20l-6-2v-2h-2l-1-11 2-5z" fill="#917A4F"/>
<path transform="translate(451,912)" d="m0 0h1v40h-1v218l-2-1-1-3v-241l2-1z" fill="#8D5A27"/>
<path transform="translate(685,1414)" d="m0 0 4 1-1 2-7 1-1 4-4 1v5l-4 3-5-1-1-3-5 4v-3l-5 4h-4l-2 4-4 6 1 2-2 4-4 3-2-1v-6l2-7 1-16 19-1 15-4z" fill="#7B603F"/>
<path transform="translate(630,1457)" d="m0 0h18l11 4 3 3-1 2h-6l-6 2-1-2-4 2-9 5h-18l-2-2v-5l4-5z" fill="#F6DE8E"/>
<path transform="translate(439,208)" d="m0 0h1l1 212-1 19-2 4v-234z" fill="#FAEE72"/>
<path transform="translate(443,1437)" d="m0 0 21 1 18 3 10 1 2 1v5l-1-2h-5l-1-1h-7l-4 1h-10-2-7v-2h2v-2l-10 1v2h-5l-2 3-1-2h-11l1 2-5 2-2 5h-2l1 9 9 3v1l-9-1-4-4-1-9 3-8 6-5 9-3z" fill="#F2DE95"/>
<path transform="translate(384,1357)" d="m0 0 13 2 5 2 12 3 2 2-2 4-2 7 5 2h1v8l-6-1-14-3-2-2h2l-1-3 2-4 4-3v-2l-3 1-1 2-7-4v-2l-10-5 2-1z" fill="#D7AF67"/>
<path transform="translate(415,1227)" d="m0 0 5 2 11 4 14 3 3 3h-5l17 3 9 1 33 1 18-2 2-2 40-4h5l-4 3-8 1v2l-19 3-2 2h-36l-35-2-24-3-1-3-16-4-7-4z" fill="#8B4C16"/>
<path transform="translate(387,1416)" d="m0 0 13 4 5 1h18v3h12v1h-11v2l-3 2-7-1 1 3-3 1-7-2v2h-3v-3h-2v10h8v1h-13l-7-4-2-13z" fill="#998152"/>
<path transform="translate(394,1298)" d="m0 0 5 1 3 3 21 7-4 4 5 2v2l9 1 19 4 28 3h54v3h-46l-38-3-21-3-2-2-5-3-14-4-7-4-5-1-2-5z" fill="#8A4B16"/>
<path transform="translate(397,1344)" d="m0 0h5l-2 2 1 2-2 1 2 1h9l7 2v-2l4-2 4 1-2 5 3-1v2l-6 3-3 3-1 3-8-1-10-2-9-4-8-3v-3l5-3z" fill="#FBF6B4"/>
<path transform="translate(646,1367)" d="m0 0 7 1 1 5 10-2 3 2-2 4h-2l-2 7h-1v-6l-2 1-1 4h-5l-3 1 2 2-9 3-10 1-2-1-9 2 1-2 12-3v-2h-8l5-4 5-3 2-3 3-1 1-2h2v-2h2z" fill="#73471D"/>
<path transform="translate(440,584)" d="m0 0h2v220h-1l-1-16-1-163z" fill="#F6DD87"/>
<path transform="translate(404,1280)" d="m0 0 5 1-4 2 2 2v3l1 3 13 4 8 2v1h-11v-2h-7l-1 3h-2l2 6-5-1-5-3-6-3 1 8-4-2-4-5v-9l8-7z" fill="#F4D777"/>
<path transform="translate(404,1341)" d="m0 0 17 4 12 2 2 2 8 2-3 2-9 1v2l-7 3 1 2-2 2-2 1-2 10h-2v6l-6-2 3-10v-3l2-1 1-4 4-4 5-1-3-1 1-5-7 1v2l-9-1h-7l-3-2 2-6h4z" fill="#F7DD8C"/>
<path transform="translate(459,1384)" d="m0 0h6l6 5 2 1h23v-5h2v5l1 1 1-6 3-1 3 2v3l5-1-1 4-9 2-21 2h-6l-2-2-1 2-4-1-8 3-3-1-8-1-1-3-3-1 4-1h4l-4-1v-2l6 1h2l2-4z" fill="#856B45"/>
<path transform="translate(523)" d="m0 0h4v184h-1l-1-34v-38h-1l-1-16z" fill="#A97336"/>
<path transform="translate(571,1435)" d="m0 0h3l4 5-4 2v3l7-1 13 2 2-4 7 1 1 4h-3l-9 1v2l-15 1-1 6 2 3v3h-10v-4-3h-7v-8h4v-2l3-3 2-6z" fill="#937D50"/>
<path transform="translate(422,1243)" d="m0 0 15 5 1 8h2v2l-13 3-2 5 1 5 4 5h-4v3l1 3 7 4-3 1-9-2-2 1v-4l-2-1 2-15 1-19z" fill="#D9B169"/>
<path transform="translate(545,560)" d="m0 0h1l1 6 1-6h1v82l-1 1-1 32-2 1z" fill="#864A16"/>
<path transform="translate(413,1191)" d="m0 0 6 1v3l10 2 18 2 2 5v4l2 1-1 2h-7l-18-4-9-4-3-4z" fill="#D8B267"/>
<path transform="translate(671,1455)" d="m0 0 1 4h2v-2l2-1h12v2h3v2h2v-4l3 1-1 8 2 6-1 1h-8l-15-3-8-6-1-2z" fill="#937C4F"/>
<path transform="translate(439,138)" d="m0 0h1l1 23v233h-1l-1-185h-1v-70z" fill="#F1D67F"/>
<path transform="translate(251,1380)" d="m0 0h2l3 8 6 3v25l-7-1-2-2 1-1-3-2v-2h-2l-1 8h-1v-11l1-9 1-3 1-10z" fill="#8B714A"/>
<path transform="translate(424,1178)" d="m0 0 4 3 13 4v2l2 1 1 3-3 6-12 1-10-3v-3h-5l2-5 6-8z" fill="#F6DD87"/>
<path transform="translate(431,361)" d="m0 0h1v39l-1 288h-1l-1-319 1-1z" fill="#FDF36E"/>
<path transform="translate(484,1067)" d="m0 0h1v102h-2l-2 4-1 1h-6l-2-3 5 1-3-4h2l-1-2v-6h3l1 6h1l1-35v-18l1-38h1z" fill="#FDE556"/>
<path transform="translate(388,1305)" d="m0 0h2l3 5 10 5 3 1v2l-2 1 6 2 12 3-1 2-17-3-2 3-2-1v-2h-2l1 4-3 1-9-5-4 1-2-5v-6z" fill="#F7DC79"/>
<path transform="translate(664,1357)" d="m0 0h8l10 4 3 3v6l-2-4h-5l-7 5-10 1-5 2-1-3 2-4-9-1 4-5 8-3z" fill="#F0D384"/>
<path transform="translate(436,376)" d="m0 0h1v113l-3 1v-111z" fill="#844916"/>
<path transform="translate(627,1284)" d="m0 0 5 1 4 7-1 6-4 7-4 1v-6l4-3-5 2-9 4-2 2-16 5-2-2 6-3h2v-2h2v-2l5-1-8 1h-9v-1l16-3 15-8z" fill="#988052"/>
<path transform="translate(633,1306)" d="m0 0 5 2 6 6 1 7-3 5-10 6-3-1 5-2v-5l-9 3-5 2-1-3 10-6 1-2-6 3h-5l1-2 7-4-3-1 8-6z" fill="#7C6444"/>
<path transform="translate(448,1330)" d="m0 0h19l5 1v2l16 3 2-4 1 3-3 5-3 1h-15l-26-3v-1l3-1-1-2z" fill="#FDFCBD"/>
<path transform="translate(506)" d="m0 0h1v265h-1v-9h-2v-8h2l-1-44v-150h-1l-1-19 1-9h1z" fill="#FEE74C"/>
<path transform="translate(431,890)" d="m0 0h1l1 158h1v40h-1l-1 72h-1l-1-203v-35z" fill="#FEE545"/>
<path transform="translate(600,1181)" d="m0 0 4 1 6 5 2 4v8l-1 2h-2v-5l-5-7-3-1-6 2-3 7-5 2h-6l-5-4-2-2 1-3h-11v-2l9-1v1l14-1 12-2z" fill="#DAB268"/>
<path transform="translate(605,1208)" d="m0 0h2v8l-3 4-11 3-4 1-16 2h-18l-3-8 5-1v-1l17-1-2 2 4 4v2h9l-1-4h6l1 1 9-1 1-3-1-6z" fill="#957F51"/>
<path transform="translate(434)" d="m0 0h3v140l-1 12h-1l-1-56z" fill="#834916"/>
<path transform="translate(561,1327)" d="m0 0 14 1 1 2 13 1 1 2 5 1-4 2-23 3h-11l-4-1 1-3-3-3 3-3z" fill="#DBB268"/>
<path transform="translate(522,1024)" d="m0 0 2 2v74l1 1v35l-1 32h-2z" fill="#F7DC83"/>
<path transform="translate(545,1217)" d="m0 0h13v1l-5 1 2 4v3h9v1l-28 2h-14l2-5 3-2-2-2 2-1 16-1z" fill="#DEB66C"/>
<path transform="translate(638,1420)" d="m0 0h1v8l-2 6-2 15-1 5-4-1-3-5v-2l-4-2-1-3-2 1 1 2-2 2-3-3-3-10 4 2 7 4 4 5 3 6-3-11-3-9v-5h10l1 3z" fill="#73461C"/>
<path transform="translate(334,1389)" d="m0 0h10l-1 3h-10l-16 3-12 6-2 7v12l-12-1v2l2 1h-2l-1 2-2-7-6-1-2-2 17 2v-17l7-3v2l4-2 1-3-3-2 21-1z" fill="#73461B"/>
<path transform="translate(516,1202)" d="m0 0h9l5 3 1 6 20 1v1l-32 2h-31v-1l14-1 4-1 2-5 4-1v-3z" fill="#F4D986"/>
<path transform="translate(652,1432)" d="m0 0h8l-5 6-4 7-4 5 1 5-24 1-5-6-1-6 2-1-1-2h3l6 7 3 5h2l1-4h2l1-3 3 1 1 3 4-2 1-4v-3z" fill="#7E6544"/>
<path transform="translate(592,585)" d="m0 0h1v90l-1 29-1 7h-1v-119h2z" fill="#7E6544"/>
<path transform="translate(250,1418)" d="m0 0h8l13 5v2l-7 3-5 2h-7-4l-2 1 6 2v1l-7-1-5-3-1-6 7-5z" fill="#F3D787"/>
<path transform="translate(456,1314)" d="m0 0 32 2 4 3-2 2-9 1-1 2h-19l-9-1-1-2 4-1-3-1v-2l-4-2z" fill="#FEE547"/>
<path transform="translate(570,1377)" d="m0 0 7 3 10 4 2-1 1-3 1 2 1 3 2 1 2 8v5l-7-4-4-3-3 1 3 2v2l-5-2v-2l-12-3v-2l-4-2 4-2 5 1 1-2-4-3z" fill="#806743"/>
<path transform="translate(620,1345)" d="m0 0 7 1 9 4-2 2v-2h-2v2l-4-1-11 2-21 2-2 1-8-1v-2l-11-1 2-3h18l17-2z" fill="#DAB369"/>
<path transform="translate(390,1284)" d="m0 0 2 2-4 4v9l5 6 6 3 6 2 6 3 11 3 5 3 4 2-13-1-15-4-10-5-3-3v-3l-6 5-2 3v7l-3 1-2-7 4-6 5-5-2-5v-6z" fill="#794A1C"/>
<path transform="translate(430)" d="m0 0h4v64h-2l1 5-3 1-1-11z" fill="#F4D884"/>
<path transform="translate(484,1295)" d="m0 0 4 2v4l13 1-2 3-14 1-31-1-8-1v-4l-6-2-2-2 8 1 18 3 18 1 1-5z" fill="#FDE956"/>
<path transform="translate(584,1473)" d="m0 0h14l6 4 1 3-4 4-6 1h-9l-11-4v-4z" fill="#73471C"/>
<path transform="translate(359,1352)" d="m0 0 2 4 1 10h6v-8h2v14h-2l-1 2-3 1-35-1 2-2 6-3-2-1h-11l-4 4h-3l2-5 4-1h14l7 3 7 2h8l-3-8v-3h2l1 2z" fill="#73451B"/>
<path transform="translate(422,1427)" d="m0 0 2 1v4h6l-4 5-7 4 1 2-18-2-2-2-1-8 1-2h2v3h3v-2l9 1v-3h7z" fill="#7C6344"/>
<path transform="translate(595,1178)" d="m0 0h5v2l-15 4-15 2-43 2v-3l12-2 52-4z" fill="#8C5622"/>
<path transform="translate(509,1218)" d="m0 0h34v1l-16 1 1 4-4 1-1 2h7v1l-8 1h-24v-1l5-1 2-1 1-3-9-3v-1z" fill="#FEE445"/>
<path transform="translate(419,1237)" d="m0 0 12 3 7 1-2 4-3 2-6-1-4-2-1 3-1 19-2 12-1-3-3 1-1-5 4-32z" fill="#F4DA84"/>
<path transform="translate(767,1378)" d="m0 0h5l2 1 2 20-3 3-3-4-3-10-5 1v4l3 1-1 2h-2l-1 3-1-7-2-1-1-7-4-2 4-3h5l-3 2 5-1z" fill="#967F51"/>
<path transform="translate(642,1421)" d="m0 0h2l1 3 4 1 7-2h7l-9 9h-2l-2 4-4 6 1 2-2 4-4 3-2-1v-6l2-7z" fill="#73461C"/>
<path transform="translate(544,994)" d="m0 0h2l1 5h1v55l-2-1-1 21h-1z" fill="#754417"/>
<path transform="translate(605,1238)" d="m0 0h2l2 29 2 11 7 2 7 3-5 5-9 2 2-2 4-1-10-6-3-15v-10l1-3-2-8v-5z" fill="#F2D584"/>
<path transform="translate(500,1432)" d="m0 0 1 4 17 1 4 3-2 1-1 7-4 3-2-1 2-2-5-3-6-2v9l-1 6h-1l-1-6-2-3-2-7v-9z" fill="#DDB56A"/>
<path transform="translate(597,1446)" d="m0 0 3 1-2 9-2 1-3-1v-5l-3 1-2 5 1 2-1 2 2 2-10 2h-11v-1l8-1-1-5-1-2 2-5 3-1h12v-2z" fill="#7C6546"/>
<path transform="translate(708,1345)" d="m0 0h14l14 3 11 5v1h-19l-13-3-9-1-4-2v-2z" fill="#EFD182"/>
<path transform="translate(421,1210)" d="m0 0 20 4 3 2 1 5-2 4-17-3-4-2 1-1-2-1z" fill="#F6DA88"/>
<path transform="translate(609,1299)" d="m0 0 4 1v1h-6v2h-2v2l-5 3h-3v2l-31 4h-6l3-2 21-3 1-3 2-1-10-1v-1l27-3z" fill="#D9B168"/>
<path transform="translate(601,1187)" d="m0 0 5 3 4 6v6l-6 4-11 2 1-2 6-2v-6h-10l2-1v-5h2l1-3z" fill="#947E51"/>
<path transform="translate(286,1397)" d="m0 0 4 1 7 2v16l-2-3-3 1h-7l-3-2v-13z" fill="#7B6242"/>
<path transform="translate(525,39)" d="m0 0h1v111l-1 18h-1l-1-8v-47l1-1z" fill="#E8C678"/>
<path transform="translate(433,1439)" d="m0 0 2 1 13 1 1 4h-5l-2 3-1-2h-11l1 2-5 2-2 5h-2l1 9 9 3v1l-9-1-4-4-1-9 3-8 6-5z" fill="#F8EAA1"/>
<path transform="translate(318,1341)" d="m0 0h6l2 2-2 1 10 6 2 3-6-1v-1l-32-1 1-4 4-3z" fill="#F3D98B"/>
<path transform="translate(463,1215)" d="m0 0 21 2v3h-2l1 5-3 2 4 1h-20l-3-2h3l-1-3 2-4z" fill="#FCFBB8"/>
<path transform="translate(394,1298)" d="m0 0 5 1 3 3 21 7-4 4 5 2v2l-16-4-7-4-5-1-2-5z" fill="#947E51"/>
<path transform="translate(706,1455)" d="m0 0h1l1 9 3 4 1 4-7 1-9-1-1-5-1-4 2-5-2-1 4-1z" fill="#DAB269"/>
<path transform="translate(443,1345)" d="m0 0 39 3 45 1v1l-28 1-1 2-25-1-23-2-2-2-5-2z" fill="#884B17"/>
<path transform="translate(415,1227)" d="m0 0 5 2 11 4 14 3 3 3h-5l17 3 9 1 22 1 6 1v1h-18l-26-2-14-2-1-3-16-4-7-4z" fill="#8B4C16"/>
<path transform="translate(520,1329)" d="m0 0h30l-2 2-7 1v2l6 1 1 5-2 1h-24l3-2 6-1 1-2-5-2 1-2 6-1-14-1z" fill="#FCE24D"/>
<path transform="translate(436,263)" d="m0 0h1v88h-1l-1-15v-16l-1-1v-40l1-7v-8z" fill="#844916"/>
<path transform="translate(510,1424)" d="m0 0 4 1-5 2 8 4-2 4 21-1 25-1-3 2-31 2h-24l-2-1-1-3-2 1 1-4 8-5z" fill="#FBF7B6"/>
<path transform="translate(706,1363)" d="m0 0h12v1l-8 1v2l-3 1 17 2v2l-10 1h-7l-13 2v-2l2-1h-4l1 3h-2l-1-9 4-1z" fill="#7D6647"/>
<path transform="translate(277,1394)" d="m0 0 9 3 1 2h-5l1 13 7 1v-1h5l1 4h-8l-10-3 1 8h-3l2 7 3 3-5-1-2-6v-7l1-3z" fill="#927C50"/>
<path transform="translate(458,1201)" d="m0 0 29 2v2l2 1-1 3-3 2-6 1-9-2-8-3-1-2-3-1z" fill="#FDF26C"/>
<path transform="translate(470,1430)" d="m0 0h24l2 2-5 5h-10l-4 1-14-1 1-6z" fill="#917B4F"/>
<path transform="translate(483,1008)" d="m0 0h1v24h-1l-1 8h2v8h-2l2 17 1 2-1 52h-1l-1-28h-1v-73h2z" fill="#F8E184"/>
<path transform="translate(567,1304)" d="m0 0h22l-5 5-7 2-14 2-3 1h-10v-1h7v-2l2-1v-2h2v-2l-2-1z" fill="#F5DA88"/>
<path transform="translate(432,64)" d="m0 0h2v58l-3 1v-11l1-10h-2v-32l3-1z" fill="#ECCC7D"/>
<path transform="translate(481,1398)" d="m0 0h17l15 5 18 8 1 3 9-3 29-5 4-2 5 1 2 1-1 3-18 1-23 4-7 3-5-1 3-4-5-1-19-8-14-3-11-1z" fill="#805E34"/>
<path transform="translate(676,1385)" d="m0 0h14l-2 2-10 1-1 1-27 4-22 3v1l-16 2 2-2 12-4 22-3 14-3 12-1z" fill="#E3BF73"/>
<path transform="translate(566,1299)" d="m0 0h5l-3 2-2 1h19v1l-18 2-19 1h-28v-1l8-1v-2h12z" fill="#8A5420"/>
<path transform="translate(460,1406)" d="m0 0h9l10 4-4 4-5 2h-23l1-2 10-5h8v-2h-6z" fill="#795128"/>
<path transform="translate(501,1384)" d="m0 0 5 2v3l5-1-1 4-9 2-21 2h-6l-1-5 23-1v-5h2v5l1 1 1-6z" fill="#856E4A"/>
<path transform="translate(587,1198)" d="m0 0h13v2l2 1h-2l1 3-8 4h-12l-1-6-4-2z" fill="#724318"/>
<path transform="translate(465,1238)" d="m0 0h63v1l-40 2 16 1v1h-31l-12-2z" fill="#FEE64C"/>
<path transform="translate(607,1219)" d="m0 0 4 4-1 7-5 2v-2l-7 1-13 3-3-1-1-1h-23v-1l6-2h20l18-2-1-1-4-1 9-3z" fill="#DDB56B"/>
<path transform="translate(388,1325)" d="m0 0 4 2 14 5 7 2h7l13 3v1h-8l6 3v1l-11-1-13-4-16-6z" fill="#947A4C"/>
<path transform="translate(385,1453)" d="m0 0h2l1 3 8 2 16 1 1 6h-20l-6-2v-2h-2z" fill="#927B4F"/>
<path transform="translate(576,1433)" d="m0 0 1 2 7 1 14 5 1 2-4 1-1 2-20-1-1-4 4-2-3-2v-3z" fill="#DCB46A"/>
<path transform="translate(736,1443)" d="m0 0 7 2 1 4-3-1 1 3-5 1-3 3-7 1-4-3-3-2 5-2-4-1-4-2 1-1h7l8 1 3-1z" fill="#7F6746"/>
<path transform="translate(431,303)" d="m0 0 3 1v60l-2 1-1-4-1-54z" fill="#F6DA89"/>
<path transform="translate(528,1203)" d="m0 0 16 1v3l9 1-3 1v2h16v1l-15 1-21-1v-7l-3-1z" fill="#947E51"/>
<path transform="translate(440,420)" d="m0 0h1v68l-3 1v-46l1-4z" fill="#F4DC7A"/>
<path transform="translate(480,1230)" d="m0 0h83v1h-5v2h-9l-10 1-3 1-14-1-4-1-38-2z" fill="#FAE86C"/>
<path transform="translate(451,1212)" d="m0 0 17 1 67 3 10 1v1h-33l-62-4z" fill="#8A4B16"/>
<path transform="translate(701,1344)" d="m0 0 7 1v1h-6l2 1v2l15 2 9 2 16 1-4 2-1 1h-15l-7-2-18-4-2-1 2-4z" fill="#7D6647"/>
<path transform="translate(360,1344)" d="m0 0 5 1 5 5v2h-3l2 3-1 11h-6l-2-12-1-9z" fill="#977F51"/>
<path transform="translate(362,1414)" d="m0 0h17l-1 7-2 3-12 1-2-1 1-6 1-1-12-1v-1z" fill="#7B6446"/>
<path transform="translate(640,1393)" d="m0 0h18l11 2 2 2-8-1h-15l-14 2-11 3h-19l4-2 18-3v-1l11-1z" fill="#84653C"/>
<path transform="translate(568,1231)" d="m0 0h13l2 2-4 2-17 2h-22v-1l12-1h-13l-2-2z" fill="#F7DF79"/>
<path transform="translate(481,1138)" d="m0 0h1l2 7 1 24h-2l-2 4-1 1h-6l-2-3 5 1-3-4h2l-1-2v-6h3l1 6h1z" fill="#FDF069"/>
<path transform="translate(352,1463)" d="m0 0 2 1v2l-2 1 1 3 13 1v-3l2 1 1 1h4l-1-4 7 2 1 2-3 4-4 1h-14l-8-3-2-2 1-5h2z" fill="#74471C"/>
<path transform="translate(646,1465)" d="m0 0 4 2 1 2 8-2 2 2-7 3-9 3v1h-20l-1-3 11-1 10-6z" fill="#8A724A"/>
<path transform="translate(433,122)" d="m0 0h1v43l-1 7h-2l-1-26v-18l1-5z" fill="#EAC87A"/>
<path transform="translate(335,1442)" d="m0 0 4 3-1 3-1-1-1 5-8-1-8 3-3-1-1-7 2-2h13z" fill="#937C4F"/>
<path transform="translate(615,1413)" d="m0 0h7l4 2 8 1 4 2-2 3-1-1-2 4h-9l-7-6v-2h-2z" fill="#9B8353"/>
<path transform="translate(426,1354)" d="m0 0h5v2l-7 3 1 2-2 2-2 1-2 10h-2v6l-6-2 3-10v-3l2-1 1-4 4-4z" fill="#EFD182"/>
<path transform="translate(496,1328)" d="m0 0h62l-4 2-1 3 3 3h-3v2l4 1-1 1h-8l-2-2 1-2-6-2v-2l7-2-52-1z" fill="#F5D987"/>
<path transform="translate(500,1128)" d="m0 0h1l1 31 1-13h1l1 17-1 2 1 3-2 3-5 1-1 2-2-2v-3h3l-1-2 1-9 1-21z" fill="#F3D782"/>
<path transform="translate(447,1235)" d="m0 0 18 3-1 3 9 1 29 1v2l-33-1-21-3-8-2v-1h7l-2-2z" fill="#F6DA89"/>
<path transform="translate(524,1102)" d="m0 0h1v34l-1 32h-2v-48l1-16z" fill="#EDCD7C"/>
<path transform="translate(447,1213)" d="m0 0 17 1 1 4 1 2h-2v6l-3 1-13-1v-2h6l2-8h-7l-5-1z" fill="#FCF270"/>
<path transform="translate(548,1305)" d="m0 0h11l2 1v2h-2l1 3h-3v2h-8l3-2-1-2-3 1v1h-12v-3h-6v2l-5-1-8-1v-1l30-1z" fill="#FDF471"/>
<path transform="translate(530)" d="m0 0h3l-1 69-2 1z" fill="#F7DF86"/>
<path transform="translate(398,1282)" d="m0 0h3v5l-1 3-1 4-4 1-3-1-2 1v1l2 2h-2l2 6-5-5v-9l8-7z" fill="#F6D969"/>
<path transform="translate(359,1463)" d="m0 0h12l5 3-1 2-2-1v3l-5 1-2-3v3l-13-1v-2l-2-1z" fill="#917448"/>
<path transform="translate(454,1182)" d="m0 0 22 2h23l8-1-1 3-2 1-21 1h-16l-4-2-9-2z" fill="#FDEC5E"/>
<path transform="translate(390,1442)" d="m0 0h7l22 4-1 2-20 1-10-1-3 2 1-5z" fill="#F0D485"/>
<path transform="translate(404,1280)" d="m0 0 5 1-4 2 2 2v3l1 3 13 4 8 2v1h-11v-2l-8-1-2 1-5-2v2l-4-2v-6l1-4v-3z" fill="#DCB76D"/>
<path transform="translate(593,426)" d="m0 0h1l1 12v37l-1 13h-1l-1-16v-33z" fill="#DCB369"/>
<path transform="translate(670,1452)" d="m0 0h12l12 3-1 5h-2v-2h-3v-2l-14 1v2h-2l-1-3h-2l-2 4-4 1-2-4z" fill="#DAB269"/>
<path transform="translate(368,1372)" d="m0 0 3 3 8 3 12 3v2l3 1-3 1-3-1-1 2-18-7-9-2v-1l5-1z" fill="#7A552D"/>
<path transform="translate(562,1236)" d="m0 0h5l-4 3-8 1v2l-27 1-8-1 2-2z" fill="#8C5C29"/>
<path transform="translate(435,80)" d="m0 0h2v60l-1 12h-1l-1-64z" fill="#8B4C16"/>
<path transform="translate(280,1447)" d="m0 0 7 1 1 3 3-2 5 1 1 2 7 3v3h-7l-9-3-2-2h-5l-1-1z" fill="#947E51"/>
<path transform="translate(721,1437)" d="m0 0 9 2 9 3 1 2-4-1v2l-3 2-8-1-7-1 2-1v-6z" fill="#DDB46A"/>
<path transform="translate(434,319)" d="m0 0 2 1v23l1 8v25l-3 3z" fill="#7A4617"/>
<path transform="translate(573,1433)" d="m0 0 3 1-5 1-1 3-8 6-6 1 1-9-4-1 5-1z" fill="#724318"/>
<path transform="translate(437,1354)" d="m0 0 3 1v2l-6 3-2 6 4 1-5 2-6 4-1 2-3-1 3-5 3-9 8-5z" fill="#F7E295"/>
<path transform="translate(268,1357)" d="m0 0m-2 1h2v2l-8 4-5 5-2 3-3 16v7l-1 1-1 9-3-1 4-30 3-6 8-7z" fill="#774B20"/>
<path transform="translate(668,1359)" d="m0 0 8 1 8 3 1 1v6l-2-4h-5l-7 5-7 1v-3l6-2 1-2-3-3z" fill="#D6AF68"/>
<path transform="translate(709,1331)" d="m0 0h7v2l-11 8-4 3-2-1 3-3-4-1-6 5-2-1 4-5 4-2 3-3z" fill="#7E603B"/>
<path transform="translate(421,1224)" d="m0 0h8l23 3 28 2v1h-36l-16-3-7-2z" fill="#FCE95F"/>
<path transform="translate(282,1443)" d="m0 0 14 3 3 3 11 2v3l-7 1-7-3-1-2-7 1-1-2-7-2v-3z" fill="#D2AB65"/>
<path transform="translate(440,1310)" d="m0 0 16 3v2l-6 1 2 1v2l8 1v1l-12 1-7-2v-3l-2-5z" fill="#F2D57D"/>
<path transform="translate(506,168)" d="m0 0h1v97h-1v-9h-2v-8h2l-1-44z" fill="#FDEB5B"/>
<path transform="translate(443,1437)" d="m0 0 21 1 6 2 2 2h-6l-6-1-12 1-14-1 2-3z" fill="#F8F0AE"/>
<path transform="translate(370,1429)" d="m0 0 6 1 1 3v8l-2 3-7-1-1-9z" fill="#7D6647"/>
<path transform="translate(597,1180)" d="m0 0h5l-3 5-12 3-8 1h-9l3-2 5-2v-1l16-3z" fill="#998152"/>
<path transform="translate(605,1320)" d="m0 0h11v3l-13 3h-30v-1l23-3z" fill="#8B4C16"/>
<path transform="translate(324,1367)" d="m0 0h11l3 3-2 2-22 3v-4-2l4 1-1 2z" fill="#846C49"/>
<path transform="translate(334,1389)" d="m0 0h10l-1 3h-10l-16 3-9 4 1-6-3-2 21-1z" fill="#7A542B"/>
<path transform="translate(584,1473)" d="m0 0h11l-2 5-3 1v2h-9l-6-3 3-2z" fill="#DCB76D"/>
<path transform="translate(609,1343)" d="m0 0h5l-1 3 7-1-3 2-10 2-21 1v-2z" fill="#87704B"/>
<path transform="translate(617,1361)" d="m0 0 3 2-5 8-2 4h-2l-1 4-5 5 1-4-3 3-2-1 4-6h4l-1-3v-3l2-4 3-2h2z" fill="#AF935A"/>
<path transform="translate(595,1178)" d="m0 0h5v2l-15 4-7 1h-13l5-4 21-2z" fill="#744317"/>
<path transform="translate(527,1219)" d="m0 0 9 1 3 3-5 2-1 2h8l-4 2h-15l2-5 3-2-2-2z" fill="#F6DB89"/>
<path transform="translate(415,1227)" d="m0 0 5 2 11 4 14 3 3 3-15-1-13-4-5-3z" fill="#A48551"/>
<path transform="translate(523,1419)" d="m0 0 23 3 29 6 1 4h-2v-2l-11-2-29-5-15-1z" fill="#794E24"/>
<path transform="translate(440,584)" d="m0 0h2v48l-3-1z" fill="#F6DF81"/>
<path transform="translate(432,256)" d="m0 0h1l1 21v27l-1 11h-1l-1-12v-16z" fill="#EAC97A"/>
<path transform="translate(646,1382)" d="m0 0h6l-2 2v3l-14 3-6-1-9 2 1-2 17-5z" fill="#806542"/>
<path transform="translate(279,1448)" d="m0 0 2 4h5l4 3 3 1 1 3 2 1-1 2-10-2-6-3v-2h-2z" fill="#795C3A"/>
<path transform="translate(581,1213)" d="m0 0 4 1v9h-9l-2-4-3-3h3v-2z" fill="#8B4C16"/>
<path transform="translate(397,1407)" d="m0 0v3l-5 6 20 4 10-1h3l-3 3h-17l-13-3-4-2 2-5z" fill="#F9EFAD"/>
<path transform="translate(678,1365)" d="m0 0h5l2 6-8 4-10-1 2-2h3v-3z" fill="#826B49"/>
<path transform="translate(592,656)" d="m0 0h1v19l-1 29-1 7h-1v-42h2z" fill="#7F6948"/>
<path transform="translate(482,1261)" d="m0 0h2l-1 5 2 2h5l1 3-2 1h-6l1 1-1 5-5-5-1-9h2v-2z" fill="#FCF8B8"/>
<path transform="translate(714,1452)" d="m0 0 8 1-1 2h-2l-6 12-2-2-2 1v-10z" fill="#836B48"/>
<path transform="translate(661,1371)" d="m0 0 6 1-2 5h-2l-2 7h-1v-6l-2 1-1 4-5-1 3-1v-2h-3v-3h2l1-3 4-1z" fill="#967E51"/>
<path transform="translate(425,1346)" d="m0 0 8 1 2 2 8 2-3 2-5 1h-12l1-7z" fill="#F6DE8F"/>
<path transform="translate(607,1276)" d="m0 0 1 2 10 2 7 3-5 5-9 2 2-2 4-1-10-6z" fill="#DEB66C"/>
<path transform="translate(431,229)" d="m0 0h1l1 9v10h1v29h-1l-1 10h-1z" fill="#F7DC8A"/>
<path transform="translate(435,40)" d="m0 0h1l1 11v16l-2 21h-1v-47z" fill="#804816"/>
<path transform="translate(438,1296)" d="m0 0 8 1 18 3 14 1v1l-20 1-12 1v-4l-6-2z" fill="#FEE74B"/>
<path transform="translate(437,171)" d="m0 0h1v36h-1l-1-12 1-10h-2v17h-1v-26h2z" fill="#724318"/>
<path transform="translate(304,1444)" d="m0 0 11 4 1 4-2 2v-5l-2 1v2l-13-2-6-2 2-3z" fill="#FCFBBB"/>
<path transform="translate(297,1354)" d="m0 0h8l20 4 1 2-6 1-9-2-13-2-6-1v-1z" fill="#AB8C55"/>
<path transform="translate(388,1305)" d="m0 0h2l3 6-4 1 1 2-5 5 1 2h-4l-1-2v-6z" fill="#F7E18A"/>
<path transform="translate(523)" d="m0 0h3v25l-1 9h-2z" fill="#E3BE72"/>
<path transform="translate(482,1019)" d="m0 0h1v13h2v33l-2 1-1-18h2v-8h-2z" fill="#FBE367"/>
<path transform="translate(483,1008)" d="m0 0h1v24h-1l-1 8h2v8h-2v17h-1v-47h2z" fill="#FCF48E"/>
<path transform="translate(426,1446)" d="m0 0 5 1-3 2-3 3-1 3h-2l1 9 9 3v1l-9-1-4-4-1-9 3-4 2-3z" fill="#DDB76D"/>
<path transform="translate(700,1433)" d="m0 0h10l6 1v1l-18 1-8 3-2 2-5 1-4 1v3l-8 2v2h-2l1-3 13-8 13-5z" fill="#F7EDAB"/>
<path transform="translate(528,1317)" d="m0 0h16l-2 4-2 1 6 1v1l-14 1-3-3 2-2z" fill="#947E51"/>
<path transform="translate(262,1427)" d="m0 0h2l3 3v2l-10 2-2 2-6-1-5-5h4l1-2 3 1h7z" fill="#8F784E"/>
<path transform="translate(460,1406)" d="m0 0h9l8 3v2l-3 1-5-2v4h-7l-4-2v-3h8v-2h-6z" fill="#A78C58"/>
<path transform="translate(455,1152)" d="m0 0h2l2 7v14l-1-3h-2v2h-5l-1-2 3-4h2z" fill="#F8DD70"/>
<path transform="translate(436,376)" d="m0 0h1v37h-1l-1-8h-1v-26z" fill="#874A16"/>
<path transform="translate(384,1332)" d="m0 0 15 7 5 2v2l-7 2-4-1 5-2-14-5-8-1 4-3z" fill="#D5B26A"/>
<path transform="translate(394,1298)" d="m0 0 5 1 3 3 5 3 1 2-10 2-4-4z" fill="#A28653"/>
<path transform="translate(544,1030)" d="m0 0h1l1 9 2-4v19l-2-1-1 21h-1z" fill="#724318"/>
<path transform="translate(254,1384)" d="m0 0 2 4 6 3v13h-2l-4-4v-2l-1-5-2-1z" fill="#957F51"/>
<path transform="translate(421,1210)" d="m0 0 4 2v4l8 1 3 3v2h-10l-4-2 1-1-2-1z" fill="#DBB269"/>
<path transform="translate(377,1316)" d="m0 0 1 3-2 2-7 4-4 4h-2l-2 8-1 6-2 1-1-8 5-9 8-6h2v-2z" fill="#82592C"/>
<path transform="translate(634,1306)" d="m0 0 6 4 4 4 1 7-2 3h-3l-2-8-3-1 1-5z" fill="#E3BE72"/>
<path transform="translate(627,1284)" d="m0 0 5 1 3 4-1 3h-8l-5 5-5 1 1-4 9-5z" fill="#DCB66C"/>
<path transform="translate(323,1412)" d="m0 0 4 1 3 1 20 1v1l-11 2v1l-6 2-5-1-3-5v-2z" fill="#DFB96E"/>
<path transform="translate(312,1370)" d="m0 0 3 1v3l6-1h8l-1 2-19 3v-3h-7v-3z" fill="#75471B"/>
<path transform="translate(593,611)" d="m0 0h1l1 26-1 27h-1l-1-8v-44z" fill="#DCB369"/>
<path transform="translate(619,1441)" d="m0 0h3l6 7 2 5-5-2 1 4h-3l-4-5-1-6 2-1z" fill="#A0884D"/>
<path transform="translate(417,1220)" d="m0 0 5 2 3 2-2 1v2l6 1v1l-9 1-5-3-1 2-1-5z" fill="#F6E078"/>
<path transform="translate(607,1219)" d="m0 0 4 4-1 7-5 2v-2l-4-2v-2l-4-1 9-3z" fill="#DCB369"/>
<path transform="translate(676,1385)" d="m0 0h14l-2 2-10 1-1 1-13 2h-11v-1l8-1 1-2 12-1z" fill="#DBB971"/>
<path transform="translate(443,1351)" d="m0 0 3 1v1l-11 3-7 4-2 4-3 4-3 6h-1v-5l4-8-1-2 9-3v-2z" fill="#8E6534"/>
<path transform="translate(362,1414)" d="m0 0h17l-1 7-4 1-1-4-5-1-16-1v-1z" fill="#876C44"/>
<path transform="translate(582,1401)" d="m0 0 17 1 2-1h7l-3 3-9 2-6-1-9-1-8-1v-1z" fill="#DDBB71"/>
<path transform="translate(630,1376)" d="m0 0 2 1-5 3h-2l1 4-6 4h-2v3l-7 1 4-5 1-4z" fill="#AD944F"/>
<path transform="translate(568,1231)" d="m0 0h13l2 2-4 2-7 1h-10v-3-1z" fill="#F5D988"/>
<path transform="translate(666,1419)" d="m0 0 2 1-2 3-16 2-2 1v-2h-3v5h-1v-8l17-1z" fill="#795E3E"/>
<path transform="translate(307,1340)" d="m0 0h15l-4 2-15 2-4 3-2 5h-2v-3h-2l2-4 8-4z" fill="#74481E"/>
<path transform="translate(474,1430)" d="m0 0h20l2 2-5 5-11-3-3-2-4-1z" fill="#7B6446"/>
<path transform="translate(705,1369)" d="m0 0h11l8 1v2l-10 1h-7l-13 2v-2l10-1z" fill="#83643C"/>
<path transform="translate(539,1183)" d="m0 0h12l-4 2 5 1v1l-25 1v-3z" fill="#916E3E"/>
<path transform="translate(597,1196)" d="m0 0h10l1 4h-3v4l-4 3-8 1 1-2 6-2v-6h-6z" fill="#7D6647"/>
<path transform="translate(435,185)" d="m0 0h2v16l1 13-4 2v-14z" fill="#7D4717"/>
<path transform="translate(602,1239)" d="m0 0 2 1 1 11 1 4-1 1v16l-2-3-2-5v-11z" fill="#947E51"/>
<path transform="translate(517,1205)" d="m0 0h7l2 3h-2l1 4h-2l-1-1-1 2h-9l2-1-1-4 1-2z" fill="#DCB369"/>
<path transform="translate(763,1437)" d="m0 0h3v2l5 2 2 3-6 2h-5l1-2-7-2v-2h7l-2-2z" fill="#9C8153"/>
<path transform="translate(772,1385)" d="m0 0h1l2 9 1 5-3 3-3-4-3-12 5 1z" fill="#7B6446"/>
<path transform="translate(439,138)" d="m0 0h1l1 27-1 7-2 1v-34z" fill="#FCF289"/>
<path transform="translate(702,1342)" d="m0 0h15l16 3-1 3-10-2-18-1-3-2z" fill="#764A1F"/>
<path transform="translate(594,1225)" d="m0 0h10l-1 3-19 2h-15v-1l23-3z" fill="#937D50"/>
<path transform="translate(476,1159)" d="m0 0 2 1 1 6h3l1 5-3 3h-6l-2-3 5 1-3-4h2l-1-2v-6z" fill="#FCE560"/>
<path transform="translate(652,1432)" d="m0 0h8l-6 7-5 5-3 2-1-4z" fill="#C9AC43"/>
<path transform="translate(401,1390)" d="m0 0 13 2 11 2-4 2h-11l-6-2-4-1z" fill="#E3C175"/>
<path transform="translate(398,1323)" d="m0 0 6 2 11 5-3 1-1 2-13-4-1-2h2z" fill="#FADF52"/>
<path transform="translate(613,1433)" d="m0 0 4 2 7 4 2 5h-3l-1-3-2 1 1 2-2 2-3-3z" fill="#7F6340"/>
<path transform="translate(501,1384)" d="m0 0 5 2v3l5-1-1 4-9 2-2-3 1-6z" fill="#907346"/>
<path transform="translate(424,1304)" d="m0 0 14 2 2 1v2l-7 2-5-2-4 1-1-5z" fill="#FCEC63"/>
<path transform="translate(459,1442)" d="m0 0 27 1v1l-10 2h-10-2-7v-2h2z" fill="#DCB369"/>
<path transform="translate(637,1471)" d="m0 0 6 1v2l2 2h-20l-1-3 11-1z" fill="#8E774E"/>
<path transform="translate(387,1452)" d="m0 0 6 1 1 1h7l4 2 2 2-3 1h-8l-9-3z" fill="#7B5F3C"/>
<path transform="translate(335,1442)" d="m0 0 4 3-1 3-1-1-1 5-12-2 1-2 6 1-1-2-3-2z" fill="#7F6542"/>
<path transform="translate(528,1237)" d="m0 0h25v1l-32 3-8-1v-1h15z" fill="#E1BC68"/>
<path transform="translate(720,1353)" d="m0 0 24 1-4 2-1 1h-15l-5-2z" fill="#917B4F"/>
<path transform="translate(632,1347)" d="m0 0h6l4 6-1 4-3 1h-3v-4l-3 3v-3l3-4-3-1z" fill="#724419"/>
<path transform="translate(629,1296)" d="m0 0 3 1-4 4-1 6-5 2-1-3 1-4-6 2 3-3z" fill="#7B6040"/>
<path transform="translate(419,1276)" d="m0 0 7 3 1 3 7 4-3 1-9-2-2 1v-4l-2-1z" fill="#D1AB65"/>
<path transform="translate(429,91)" d="m0 0h1v11l3-1-2 27-1 5h-1z" fill="#FDF471"/>
<path transform="translate(728,1413)" d="m0 0 3 1-1 4-7 5h-2v-9z" fill="#7E6747"/>
<path transform="translate(438,1241)" d="m0 0 25 3v1h-11l-1 2h-6l-3 1-2-2 4-1h-8l-1-2z" fill="#F9E770"/>
<path transform="translate(688,1453)" d="m0 0h23l-1 3-1 11-2-3-1-8h-8l-1 2v-2l-9-2z" fill="#F8E69C"/>
<path transform="translate(444,1391)" d="m0 0 12 1 2 1 9 1-4 3-7 1-4-2-4-1-2-2z" fill="#7F6544"/>
<path transform="translate(605,1208)" d="m0 0h2v8l-3 4-6 1 3-3-1-8z" fill="#A38858"/>
<path transform="translate(736,1443)" d="m0 0 2 1 1 4-5 2h-9v-2l-8-1 1-2h7l8 1 3-1z" fill="#957E51"/>
<path transform="translate(386,1316)" d="m0 0 8 6 3 3-1 3-9-5-4 1-1-3 3-3z" fill="#DDB668"/>
<path transform="translate(728,1359)" d="m0 0 3 1v1l12 2-3 2-10-2-12 1-7-1 3-2z" fill="#DBB96F"/>
<path transform="translate(472,1340)" d="m0 0 14 1-1 3h-20l3-1v-2z" fill="#EFD175"/>
<path transform="translate(513,1215)" d="m0 0 22 1 10 1v1h-33z" fill="#8B4F19"/>
<path transform="translate(595,1473)" d="m0 0 4 1 2 6-9 2h-8v-1h6v-2l3-3 1-2z" fill="#907A4F"/>
<path transform="translate(359,1463)" d="m0 0h9l-3 2-1 4h-7l-4 1v-2l-2-1z" fill="#F1D586"/>
<path transform="translate(639,1427)" d="m0 0 2 1-1 4-1 3 1 12h-3l-2 2 1-15z" fill="#B89B4B"/>
<path transform="translate(649,1322)" d="m0 0 5 2 9 9 1 4-4-2-3-1-4-4-2-4-2-1z" fill="#D8B36B"/>
<path transform="translate(408,1299)" d="m0 0 3 1 3-1 8 5-2 1-2-1v2l-4 1-6-3z" fill="#FAE764"/>
<path transform="translate(592,585)" d="m0 0h1v20l-2 11h-1v-24h2z" fill="#836C49"/>
<path transform="translate(272,1370)" d="m0 0 12 1 13 3 1 2-3 1-3-1-1 2h-2l-1 2-4-2 4-2 1-1-17-4z" fill="#7C582F"/>
<path transform="translate(592,472)" d="m0 0h1v24l-2 15h-1v-21h2z" fill="#856E4A"/>
<path transform="translate(298,1433)" d="m0 0h5l-3 2-8 3-9 5-3 1-1 5-2 4-1-5 5-7 13-7z" fill="#F4E49E"/>
<path transform="translate(640,1421)" d="m0 0h2l1 5-2 16-2 2-1-12 2-4-1-5z" fill="#8E7348"/>
<path transform="translate(573,1433)" d="m0 0 3 1-5 1-1 3h-6l-3 1-8-3v-1l5-1z" fill="#795732"/>
<path transform="translate(500,1432)" d="m0 0 1 4 2 1-2 7v8l-2-3-2-7v-9z" fill="#F2D585"/>
<path transform="translate(774,1406)" d="m0 0 5 1 1 10-4-2-4-5 1-2-6 1 3-2z" fill="#AA905B"/>
<path transform="translate(461,1382)" d="m0 0h6l5 4 7 2 1 3h-7l-12-8z" fill="#E0B96C"/>
<path transform="translate(448,1227)" d="m0 0 32 2v1h-36v-2z" fill="#FBEA6D"/>
<path transform="translate(622,1428)" d="m0 0h2v2h2l6 18-1 3-5-9z" fill="#816A48"/>
<path transform="translate(406,1317)" d="m0 0 8 1 13 3-1 2-10-1-1-1h-10l-3-2z" fill="#FDE453"/>
<path transform="translate(309,1307)" d="m0 0 9 1 4 1v5l5 2 1 2-5-2-9-4-3-3z" fill="#9F8549"/>
<path transform="translate(294,1448)" d="m0 0 12 2 5 2-1 2-7 1-7-3z" fill="#DAB268"/>
<path transform="translate(574,1403)" d="m0 0h7l9 1h3l1 2 6 1v1l-7 1-16-4z" fill="#EFD181"/>
<path transform="translate(322,1331)" d="m0 0 10 2 2 2-2 1 1 2-7-1-5-1v-2l-4-1v-1z" fill="#9A804F"/>
<path transform="translate(373,1350)" d="m0 0 3 1h-2l-2 6 2-3 1-2 6 1v1h-5l-2 6v7h-2l-1 2-1-13z" fill="#84643B"/>
<path transform="translate(495,1332)" d="m0 0 3 3h-2v3l2-1v3l8 1v1h-17v-4l5-3z" fill="#FEE445"/>
<path transform="translate(431,303)" d="m0 0 3 1v21l-3 1-1-19z" fill="#F7DC8A"/>
<path transform="translate(440,165)" d="m0 0h1v26l-3-4v-14l1-1z" fill="#F0D776"/>
<path transform="translate(583,1375)" d="m0 0 4 2 2 6-1 2-5-2-3-3 1-4z" fill="#E0B96D"/>
<path transform="translate(632,1350)" d="m0 0h2l-1 4-5 3v3h-4l-1-2-2-1 4-4 7-1z" fill="#988152"/>
<path transform="translate(384,1322)" d="m0 0 5 1 12 6 17 5v1l-8-1-13-4-6-3-6-2z" fill="#8D5C2A"/>
<path transform="translate(400,1320)" d="m0 0h10l2 2 10 2-1 2-17-3-2 3-2-1z" fill="#F6DE73"/>
<path transform="translate(534,1296)" d="m0 0h3l3 4 10 1v1l-10 1h-10v-2l3-2z" fill="#B3945A"/>
<path transform="translate(388,1293)" d="m0 0h4l5 2 2 4-5-1 1 8-3-1-2-7z" fill="#D0A964"/>
<path transform="translate(457,1270)" d="m0 0h1v7l-2 7-4-4 1-7 4-1z" fill="#FDF471"/>
<path transform="translate(631,1392)" d="m0 0 6 2v1l-9 1v1l-16 2 2-2 12-4z" fill="#C8AE6D"/>
<path transform="translate(612,1358)" d="m0 0 3 1 1 5-5 2-3 3h-2l-2 4-2 1v-3h2l2-5 6-5z" fill="#7A542A"/>
<path transform="translate(406,1288)" d="m0 0 4 4 19 5v1h-11v-2l-10-2-5-5z" fill="#8E5E2B"/>
<path transform="translate(248,1381)" d="m0 0h3l-1 14-1 1-1 9-3-1z" fill="#794F24"/>
<path transform="translate(621,1356)" d="m0 0m-2 1 4 1 1 3-2 4h-2l-2 4h-3l4-6-3-1 2-4z" fill="#856D48"/>
<path transform="translate(664,1309)" d="m0 0h2l4 11-2 2v-4h-2l1 12h-2l-2-20z" fill="#765028"/>
<path transform="translate(395,1283)" d="m0 0h3l-1 5 1 6-6-2-1-6z" fill="#FBF6B1"/>
<path transform="translate(412,1275)" d="m0 0 1 3-4 3-9 1-6 3h-3v-2l13-5 6-2z" fill="#7E4F21"/>
<path transform="translate(521,1240)" d="m0 0 34 1v1l-27 1-8-1z" fill="#947E51"/>
<path transform="translate(438,1238)" d="m0 0 25 5v1h-10l-14-2z" fill="#894E19"/>
<path transform="translate(605,1238)" d="m0 0h2l1 18-3-3-2-8v-5z" fill="#EBCA7B"/>
<path transform="translate(512,1205)" d="m0 0h2v7l-2 1h-10l4-1 2-5z" fill="#F7DC8A"/>
<path transform="translate(492,1096)" d="m0 0 2 1 1 6v17h-1l-1-6h-1z" fill="#FAEE94"/>
<path transform="translate(456,856)" d="m0 0h1v24h-1l-1-7-1 7h-1v-14l3-1z" fill="#FAE674"/>
<path transform="translate(434,1442)" d="m0 0h11l4 1v2h-5l-2 3-1-2h-12v-2z" fill="#E3BE72"/>
<path transform="translate(510,1418)" d="m0 0 5 2-4 2-5 2-10 1v-2z" fill="#DEB76C"/>
<path transform="translate(522,991)" d="m0 0h1l1 11 1 10-2 12h-1z" fill="#FAE068"/>
<path transform="translate(453,794)" d="m0 0h1v9h2v14h-3z" fill="#FEEA55"/>
<path transform="translate(530)" d="m0 0h3l-1 23-2 1z" fill="#F8DE7D"/>
<path transform="translate(681,1444)" d="m0 0h2l1 3h-2v3l4 2-14 1 1-3 7-4z" fill="#FAEDA6"/>
<path transform="translate(523,1419)" d="m0 0 23 3 2 2-29-2z" fill="#7C552A"/>
<path transform="translate(574,1404)" d="m0 0 5 1 2 1-1 3h-14l-1-2 9-2z" fill="#B5955A"/>
<path transform="translate(635,1373)" d="m0 0h5l-5 6-7 4-3-1v-2l6-3 1-2h3z" fill="#8A6F47"/>
<path transform="translate(646,1365)" d="m0 0 12 1-3 7-2-2v-3h-6l-3 1v2h-2l2-5z" fill="#8D754C"/>
<path transform="translate(432,104)" d="m0 0h2v18l-3 1v-11z" fill="#F1D383"/>
<path transform="translate(715,1447)" d="m0 0h10l2 2-9 4-4-2z" fill="#DCB66C"/>
<path transform="translate(528,1417)" d="m0 0 3 1-7 2v1l-15 4-1-3 13-4z" fill="#774D23"/>
<path transform="translate(281,1354)" d="m0 0h9v2l-18 3-4 1 1-3z" fill="#7B4E21"/>
<path transform="translate(448,1200)" d="m0 0 4 2v3l1 3h5v2l-3 2h-5l-2-8z" fill="#F7DC8A"/>
<path transform="translate(433,165)" d="m0 0h1v27l-2-4-1-7v-9h2z" fill="#DCB369"/>
<path transform="translate(502)" d="m0 0h4v18h-1l-1-8-2 1z" fill="#FDFCCC"/>
<path transform="translate(556,1451)" d="m0 0 2 2 2 9 2 4-3 1-3-1-1-12z" fill="#724318"/>
<path transform="translate(431,1348)" d="m0 0h9l10 1 2 1v2l-6 1-6-2-9-2z" fill="#F9EDA7"/>
<path transform="translate(549,1308)" d="m0 0h5v3l-4 2 5 1v1h-12l1-4z" fill="#F0D37A"/>
<path transform="translate(601,1181)" d="m0 0 5 2 5 6 1 7-4-4-3-5-4-4z" fill="#F5DC8C"/>
<path transform="translate(444,1381)" d="m0 0h9l-1 3-4 1-3 3h-3v-5z" fill="#866940"/>
<path transform="translate(606,1369)" d="m0 0h4l-2 6 2 1-2 2-3-1-2 2-1-5z" fill="#907447"/>
<path transform="translate(624,1360)" d="m0 0h1l-1 8-5 8-1-3 1-3-3 2 2-4 2-3h2z" fill="#724319"/>
<path transform="translate(445,1442)" d="m0 0h14v2l-5 2 2 3-5-1v-3h-2v-2z" fill="#B1894C"/>
<path transform="translate(296,1446)" d="m0 0 13 2 3 2v2l-13-2-6-2z" fill="#F6DB8A"/>
<path transform="translate(293,1421)" d="m0 0 8 1 1 6-1 3-2-1v-5l-5 1-3-1v-3z" fill="#90794F"/>
<path transform="translate(344,1376)" d="m0 0h16v1l-14 2h-14v-1l10-1z" fill="#D1AB65"/>
<path transform="translate(634,1312)" d="m0 0 1 3 4 1 1 2v6l3 1-1 1h-6l2-9h-5z" fill="#927C50"/>
<path transform="translate(424,1171)" d="m0 0h2v5l5 4 9 3v1l-9-1-6-3-2-4z" fill="#8A5927"/>
<path transform="translate(644,1441)" d="m0 0 1 2 2 1-2 4-4 3-2-1v-6z" fill="#754A20"/>
<path transform="translate(625,1372)" d="m0 0h11l-1 3-5 2-5-1z" fill="#764D25"/>
<path transform="translate(310,1330)" d="m0 0h11l1 2-4 1 3 2-2 3-1-3-6-2-2-1z" fill="#81633C"/>
<path transform="translate(410,1320)" d="m0 0h5l6 2 4 1v2h5v1h-9l-4-2-8-2z" fill="#FDED60"/>
<path transform="translate(560,1238)" d="m0 0 10 1v2l-15 1v-2h-7v-1z" fill="#824816"/>
<path transform="translate(668,1453)" d="m0 0h2l-2 6-2 2-4-1-1-3z" fill="#E4C981"/>
<path transform="translate(389,1310)" d="m0 0 7 2 4 2v2l-7-1-1 2-3-3-2-3z" fill="#E1BB6C"/>
<path transform="translate(518,1191)" d="m0 0 2 1v4l6 3 7 1v1h-11l-5-5-1-4z" fill="#FDF471"/>
<path transform="translate(654,1461)" d="m0 0 6 2 1 3h-6l-6 2-1-3 5-1z" fill="#DBB36A"/>
<path transform="translate(312,1370)" d="m0 0 3 1-1 4h-12v-3z" fill="#7A5B36"/>
<path transform="translate(641,1362)" d="m0 0 2 1 1 5-2 2h-10l2-3 5 1z" fill="#724319"/>
<path transform="translate(708,1350)" d="m0 0h7l8 2-3 2-3 1-8-2z" fill="#957E51"/>
<path transform="translate(653,1337)" d="m0 0 6 2-2 1v3h-4l-2 4-2 1 1-5 2-4z" fill="#7B6446"/>
<path transform="translate(407,1289)" d="m0 0 5 1 7 2 3 1v2l2 1-10-2-7-3z" fill="#DCB469"/>
<path transform="translate(604,1256)" d="m0 0h2l1 3v13h-2l-1-6z" fill="#DCB369"/>
<path transform="translate(482,1048)" d="m0 0h2l1 4v13l-2 1z" fill="#FDEB5A"/>
<path transform="translate(241,1426)" d="m0 0 7 1v3l-2 1 6 2v1l-7-1-4-4z" fill="#D7AF67"/>
<path transform="translate(774,1414)" d="m0 0 6 3v8l-3-1-1 2-1-2 1-2h2l-4-4z" fill="#7B6446"/>
<path transform="translate(587,1363)" d="m0 0 9 3-2 5-4-1-3-5z" fill="#947C50"/>
<path transform="translate(550,1218)" d="m0 0 4 2 1 6h-8l2-1v-2h2v-3h-5z" fill="#F7DC8A"/>
<path transform="translate(658,1467)" d="m0 0 3 2-7 3-7 1v-4l10-1z" fill="#7B6446"/>
<path transform="translate(655,1373)" d="m0 0 4 4-2 6-5-1 3-1v-2h-3v-3h2z" fill="#7B6446"/>
<path transform="translate(547,1190)" d="m0 0 6 4-1 7h-2l-3-6z" fill="#9D814F"/>
<path transform="translate(417,1188)" d="m0 0h3v4l5 2 3 2-9-1v-3h-5l1-3z" fill="#FCF7B1"/>
<path transform="translate(528,1343)" d="m0 0h15v1l-13 2-6 2-1-3z" fill="#947E51"/>
<path transform="translate(619,1341)" d="m0 0 5 2 1 2-12 1 1-4z" fill="#785B3A"/>
<path transform="translate(307,1340)" d="m0 0h15l-4 2-15 1 1-2z" fill="#764C22"/>
<path transform="translate(639,1333)" d="m0 0 4 1-4 3-7 3h-6l2-2 10-4z" fill="#7B6446"/>
<path transform="translate(627,1288)" d="m0 0 2 1zm-1 1m-1 1v3l-4 4-5 1 1-4z" fill="#D0AB65"/>
<path transform="translate(602,1239)" d="m0 0 2 1 1 11 1 4-4 1-1-3z" fill="#8F784D"/>
<path transform="translate(423,1229)" d="m0 0 13 3 2 2-4 1-12-4z" fill="#EDCE71"/>
<path transform="translate(607,1219)" d="m0 0 4 4-1 7-5 2v-2l3-2v-4h-5l1-2h2z" fill="#F2D584"/>
<path transform="translate(589,1184)" d="m0 0h6l-2 3-6 1h-10l3-2z" fill="#856239"/>
<path transform="translate(477,1144)" d="m0 0h1v16l-4-2v-12h1v8h2z" fill="#F7DC89"/>
<path transform="translate(706,1455)" d="m0 0h1l2 16h-10v-1h6v-14z" fill="#8D7549"/>
<path transform="translate(663,1423)" d="m0 0h3l-1 5-4 3v-3l-5 4-2-1z" fill="#BFA452"/>
<path transform="translate(460,1406)" d="m0 0h9l8 3v2l-3 1-3-2-5-1v-2h-6z" fill="#BA995C"/>
<path transform="translate(662,1387)" d="m0 0 14 1v1l-12 2h-11v-1l8-1z" fill="#AE9059"/>
<path transform="translate(634,1385)" d="m0 0 4 2-2 3-6-1-9 2 1-2z" fill="#7A603F"/>
<path transform="translate(289,1382)" d="m0 0h6l-3 2-11 4-1 2h-2l-1 2 1-5z" fill="#F8EFAB"/>
<path transform="translate(370,1359)" d="m0 0h1l1 8 3 1 1-4 2 5-7 4-1-3z" fill="#E3BD6F"/>
<path transform="translate(571,1299)" d="m0 0h5l2 3-12 1-7-1v-1z" fill="#7E4716"/>
<path transform="translate(548,1201)" d="m0 0 11 1 1 4h-6l-6-3z" fill="#947E51"/>
<path transform="translate(470,1440)" d="m0 0 4 1-2 1zm-15 0h9l8 2v1h-11l-8-1z" fill="#F6DA89"/>
<path transform="translate(355,1433)" d="m0 0 3 2v5h2l1 5-5-2-2-4v-5z" fill="#796040"/>
<path transform="translate(757,1385)" d="m0 0 3 2v2h2v4l3 1-1 2h-2l-1 3-1-7-2-1z" fill="#7B6446"/>
<path transform="translate(463,1388)" d="m0 0 5 2-1 4h-8l2-5z" fill="#AF9359"/>
<path transform="translate(423,1361)" d="m0 0h4l-1 3-3 4-3 6h-1v-5z" fill="#998052"/>
<path transform="translate(484,1295)" d="m0 0 4 2-2 5h-6l2-1 1-5z" fill="#FAEA7A"/>
<path transform="translate(435,1206)" d="m0 0h5l1 1h7v4l-10-1z" fill="#F2D484"/>
<path transform="translate(661,1339)" d="m0 0 2 1v4l3 1v6l-2-4-5-3-1-3z" fill="#7C6546"/>
<path transform="translate(447,1213)" d="m0 0 17 1v1l-5 1h-10l-5-1z" fill="#FAEA79"/>
<path transform="translate(429,48)" d="m0 0h1l2 16 1 5-3 1-1-11z" fill="#F9E77D"/>
<path transform="translate(635,1472)" d="m0 0 3 1 2 2h-16v-2z" fill="#7F613A"/>
<path transform="translate(666,1419)" d="m0 0 2 1-2 3-9 1-1-3z" fill="#7D582F"/>
<path transform="translate(253,1368)" d="m0 0 1 2-2 10-3 1v-7l3-5z" fill="#74481E"/>
<path transform="translate(602,1362)" d="m0 0h5v2l2 1-3 1-2 4-2-4z" fill="#957E51"/>
<path transform="translate(299,1349)" d="m0 0h9l1 3h-12z" fill="#897048"/>
<path transform="translate(554,1308)" d="m0 0h5l1 3h-3v2h-8l3-2-1-2z" fill="#FFE544"/>
<path transform="translate(410,1295)" d="m0 0 8 1v2l3 1h-9v3l-3-3z" fill="#F7DF83"/>
<path transform="translate(457,1250)" d="m0 0 5 5 1 4-2 2v-4l-3 1-2-5z" fill="#FCF074"/>
<path transform="translate(419,1207)" d="m0 0 5 2-3 1 1 8h2v2l-5-1z" fill="#F8E277"/>
<path transform="translate(525,17)" d="m0 0h1v8l-1 9h-2v-12z" fill="#ECCB7C"/>
<path transform="translate(747,1382)" d="m0 0 2 1-1 2 2 2h-12l2-3z" fill="#7C5D38"/>
<path transform="translate(314,1369)" d="m0 0 4 1-1 2h9v1l-12 2v-4z" fill="#9A7E4E"/>
<path transform="translate(630,1321)" d="m0 0 1 2-6 2v2l-5 2-1-3 7-4z" fill="#7A5B38"/>
<path transform="translate(322,1310)" d="m0 0 8 4v3l-5-1-3-2z" fill="#795935"/>
<path transform="translate(548,1305)" d="m0 0h11l2 1v2l-14-1z" fill="#FAE069"/>
<path transform="translate(398,1282)" d="m0 0h3v5l-1 3v3h-2l-2-7z" fill="#F6DC85"/>
<path transform="translate(503,1166)" d="m0 0 2 2-2 3-5 1-1 2-2-2v-3h5z" fill="#F4D97D"/>
<path transform="translate(584,1473)" d="m0 0h11l-1 2-10 1-7 2 3-3z" fill="#F3D787"/>
<path transform="translate(470,1390)" d="m0 0h3l1 4h-2l-1 2-4-2v-2l-2-1z" fill="#7E603C"/>
<path transform="translate(496,1385)" d="m0 0h2v5l4 3-6 1-4-3 4-1z" fill="#9B8353"/>
<path transform="translate(553,1369)" d="m0 0h14l-3 3h-10l-2-2z" fill="#DCB369"/>
<path transform="translate(426,1354)" d="m0 0h5v2l-7 3-4-2z" fill="#DBB36A"/>
<path transform="translate(584,1219)" d="m0 0h6l1 1h7v2l-11 1h-2z" fill="#7B6446"/>
<path transform="translate(550,1192)" d="m0 0 4 1v2h2v2l4 2v1h-7l-1-6z" fill="#E5C16B"/>
<path transform="translate(481,1166)" d="m0 0 2 2-1 4-2 2h-6l-2-3 5 1 4-2z" fill="#FDE854"/>
<path transform="translate(323,1416)" d="m0 0 5 2 1 4-7-1z" fill="#7C6443"/>
<path transform="translate(637,1380)" d="m0 0m-1 1m-1 1m-1 1m-5 1h5v2l-9 3-2-1z" fill="#724318"/>
<path transform="translate(720,1353)" d="m0 0h8l3 2-4 2-4-1-4-2z" fill="#7F6847"/>
<path transform="translate(525,1332)" d="m0 0 3 1 4 3-1 3-3-1-3-2v-1l-5-1v-1z" fill="#F7DC8A"/>
<path transform="translate(388,1305)" d="m0 0h2l3 6-7 1v-2l-2-1z" fill="#F6DA6E"/>
<path transform="translate(421,1303)" d="m0 0h3v5l-3 1-5-2 2-1v-2z" fill="#F5DA7D"/>
<path transform="translate(661,1426)" d="m0 0v3 5l-3 3-2-1 3-3h-5l5-5z" fill="#886F45"/>
<path transform="translate(408,1413)" d="m0 0 5 1-4 2 1 1v1h-7l1-4z" fill="#FDFCBD"/>
<path transform="translate(611,1398)" d="m0 0 9 1-1 2h-15l4-2z" fill="#7B5B35"/>
<path transform="translate(418,1396)" d="m0 0 3 1 1 2-12 2 1-3z" fill="#81592C"/>
<path transform="translate(611,1387)" d="m0 0 2 1-8 8-4 2 2-4z" fill="#816A48"/>
<path transform="translate(292,1374)" d="m0 0h5l1 2-3 1-3-1-1 2h-2l-1 2-4-2 4-2z" fill="#89714B"/>
<path transform="translate(415,1319)" d="m0 0 12 2-1 2-10-1z" fill="#FDE350"/>
<path transform="translate(363,1307)" d="m0 0h2l-2 10-2-3-2 1 2-6z" fill="#77542E"/>
<path transform="translate(400,1302)" d="m0 0 6 2 2 3-7 1z" fill="#8A521E"/>
<path transform="translate(476,1256)" d="m0 0 3 1 1 5-1 2h-2l-1 4-1-4 1-5z" fill="#F7DC8A"/>
<path transform="translate(438,1241)" d="m0 0 10 2-1 2h-11l-1-2z" fill="#FCE154"/>
<path transform="translate(417,1183)" d="m0 0h2l-2 4-3 4-1 5-3-2 2-5z" fill="#7B5227"/>
<path transform="translate(431,160)" d="m0 0 3 1-1 11h-2z" fill="#F6DA88"/>
<path transform="translate(429,91)" d="m0 0h1v11l3-1-1 11h-1v-8h-2z" fill="#F9E77E"/>
<path transform="translate(424,1443)" d="m0 0 3 2-1 2-3 1-3 7-1-4 2-5z" fill="#F4DB8C"/>
<path transform="translate(704,1365)" d="m0 0 1 2-11 3h-2v-3l5-1z" fill="#724318"/>
<path transform="translate(707,1363)" d="m0 0h11v1l-8 1v2l-5 1z" fill="#9B8253"/>
<path transform="translate(594,1346)" d="m0 0h5l-4 4h-9v-2z" fill="#A58A56"/>
<path transform="translate(322,1343)" d="m0 0h7l5 5-7-1z" fill="#A5854D"/>
<path transform="translate(701,1344)" d="m0 0 7 1v1h-6l2 1v2l2 1h-6l-1-4z" fill="#957E51"/>
<path transform="translate(699,1335)" d="m0 0h2v3l-6 3-3 3-2-1 4-5z" fill="#947D50"/>
<path transform="translate(409,1327)" d="m0 0 7 2 3 3-1 2-6-1 1-3-4-2z" fill="#F5D97F"/>
<path transform="translate(394,1298)" d="m0 0 5 1 2 3-3 1-1 4-1-2v-4l-2 2z" fill="#916F3F"/>
<path transform="translate(655,1465)" d="m0 0h4l-2 4-7 1 1-3z" fill="#7B5429"/>
<path transform="translate(367,1465)" d="m0 0h4v2h2v3l-5 1-1-3z" fill="#A78E5A"/>
<path transform="translate(421,1458)" d="m0 0 2 4 1 3 8 2v1l-9-1-3-4z" fill="#D9B068"/>
<path transform="translate(588,1428)" d="m0 0 5 1-1 6-4-1-1-4z" fill="#8F784E"/>
<path transform="translate(505,1387)" d="m0 0 1 2 5-1-1 4-7 2z" fill="#83653E"/>
<path transform="translate(605,1376)" d="m0 0 3 1-1 6-2 1 1-4-3 3-2-1z" fill="#B2974F"/>
<path transform="translate(542,1334)" d="m0 0 5 1 1 5h-7l1-2h2v-2h-2z" fill="#FFE544"/>
<path transform="translate(414,1222)" d="m0 0 5 1v4h-4l-1 2-1-5z" fill="#F7E99E"/>
<path transform="translate(389,1473)" d="m0 0 3 4-1 2-5-1v-3z" fill="#7D5225"/>
<path transform="translate(347,1303)" d="m0 0" fill="#DCB369"/>
</svg>
