<svg xmlns="http://www.w3.org/2000/svg" width="1600" height="1598" viewBox="0 0 1600 1598" version="1.1">
	<path d="M 775 360.086 C 698.765 364.218, 622.718 389.308, 558.500 431.514 C 508.673 464.262, 464.474 508.540, 431.739 558.500 C 390.254 621.813, 366.760 691.313, 360.919 768 C 359.442 787.398, 360.257 830.502, 362.451 849 C 365.847 877.627, 372.469 908.308, 380.958 934.753 L 385.188 947.927 383.026 950.964 C 380.702 954.228, 379.463 954.735, 378.662 952.750 C 378.385 952.063, 378.122 953.706, 378.079 956.403 C 378.027 959.644, 376.983 963.460, 375 967.656 C 371.702 974.636, 371.229 979.801, 373.346 985.730 C 374.087 987.803, 375.256 991.075, 375.944 993 C 376.632 994.925, 377.819 999.875, 378.581 1004 C 381.227 1018.315, 381.737 1019.940, 386.605 1029.554 C 389.594 1035.456, 392.862 1040.368, 395 1042.171 C 398.325 1044.975, 417.802 1058, 418.670 1058 C 419.389 1058, 425.486 1062.469, 425.833 1063.250 C 426.017 1063.662, 427.003 1064, 428.024 1064 C 429.046 1064, 430.143 1064.422, 430.461 1064.937 C 430.779 1065.452, 433.618 1067.080, 436.770 1068.554 C 439.921 1070.028, 443.400 1071.969, 444.500 1072.867 C 446.451 1074.460, 446.457 1074.449, 444.759 1072.431 C 443.065 1070.418, 443.116 1070.315, 446.655 1068.627 C 448.656 1067.673, 450.587 1067.254, 450.946 1067.696 C 451.306 1068.138, 453.360 1070.750, 455.512 1073.500 C 486.947 1113.678, 531.749 1152.466, 578 1179.545 C 713.539 1258.903, 882.836 1259.615, 1019.195 1181.401 C 1064.771 1155.259, 1106.776 1119.718, 1140.466 1078.791 L 1150.104 1067.082 1153.535 1068.718 L 1156.967 1070.355 1154.293 1073.927 C 1147.105 1083.530, 1129.801 1103.036, 1117.738 1115.134 C 1059.788 1173.252, 989.721 1213.253, 910.500 1233.447 C 876.920 1242.007, 847.455 1245.936, 811 1246.715 C 774.925 1247.487, 744.056 1245.016, 714.104 1238.961 C 708.822 1237.893, 703.600 1237.046, 702.500 1237.080 L 700.500 1237.141 702.500 1238 C 703.600 1238.473, 705.876 1238.891, 707.559 1238.930 C 709.241 1238.968, 711.491 1239.661, 712.559 1240.468 C 713.626 1241.276, 716.356 1241.951, 718.624 1241.968 C 720.893 1241.986, 724.662 1242.675, 727 1243.500 C 729.338 1244.325, 734.682 1245.007, 738.876 1245.016 C 743.069 1245.024, 749.200 1245.683, 752.500 1246.480 C 761.492 1248.651, 847.855 1248.668, 854 1246.500 C 856.338 1245.675, 861.513 1245, 865.500 1245 C 869.487 1245, 874.662 1244.325, 877 1243.500 C 879.338 1242.675, 882.882 1241.984, 884.876 1241.965 C 886.869 1241.945, 889.625 1241.286, 891 1240.500 C 892.375 1239.714, 894.985 1239.055, 896.800 1239.035 C 898.614 1239.016, 901.314 1238.388, 902.800 1237.640 C 904.285 1236.892, 907.910 1236.007, 910.856 1235.674 C 913.802 1235.342, 916.727 1234.665, 917.356 1234.171 C 917.985 1233.677, 921.031 1232.989, 924.124 1232.642 C 927.217 1232.296, 931.042 1231.337, 932.624 1230.512 C 934.206 1229.687, 936.400 1228.995, 937.500 1228.974 C 938.600 1228.953, 940.374 1228.276, 941.441 1227.468 C 942.509 1226.661, 944.366 1226, 945.569 1226 C 946.771 1226, 948.315 1225.325, 949 1224.500 C 949.685 1223.675, 951.427 1222.986, 952.872 1222.968 C 954.318 1222.951, 956.374 1222.276, 957.441 1221.468 C 958.509 1220.661, 960.464 1220, 961.787 1220 C 963.109 1220, 965.386 1219.392, 966.846 1218.648 C 968.306 1217.905, 973.100 1215.598, 977.500 1213.522 C 981.900 1211.446, 986.190 1209.412, 987.033 1209.001 C 987.876 1208.590, 990.114 1207.914, 992.006 1207.499 C 993.899 1207.083, 997.250 1205.605, 999.454 1204.214 C 1005.526 1200.380, 1016.118 1195, 1017.592 1195 C 1018.311 1195, 1020.835 1193.763, 1023.200 1192.250 C 1030.302 1187.708, 1031.367 1187.090, 1034.628 1185.617 C 1036.348 1184.840, 1038.062 1183.708, 1038.437 1183.102 C 1038.812 1182.496, 1039.785 1182, 1040.601 1182 C 1041.416 1182, 1043.077 1181.056, 1044.292 1179.902 C 1045.506 1178.748, 1048.758 1176.345, 1051.517 1174.563 C 1054.277 1172.781, 1057.309 1170.548, 1058.256 1169.601 C 1059.202 1168.655, 1062.119 1166.427, 1064.738 1164.650 C 1072.879 1159.127, 1080.478 1153.713, 1081 1153.063 C 1081.275 1152.722, 1083.795 1150.816, 1086.601 1148.830 C 1097.487 1141.121, 1136.131 1102.574, 1147.571 1088.013 C 1152.255 1082.050, 1159.738 1076, 1162.428 1076 C 1163.158 1076, 1164.315 1075.325, 1165 1074.500 C 1165.685 1073.675, 1167.315 1073, 1168.622 1073 C 1169.930 1073, 1171 1072.594, 1171 1072.098 C 1171 1071.602, 1172.237 1070.700, 1173.750 1070.095 C 1176.217 1069.108, 1187.640 1061.656, 1190.708 1059.033 C 1191.372 1058.465, 1192.319 1058, 1192.812 1058 C 1193.816 1058, 1196.533 1055.645, 1206 1046.564 C 1214.468 1038.442, 1218 1034.341, 1218 1032.631 C 1218 1031.869, 1218.675 1030.685, 1219.500 1030 C 1220.325 1029.315, 1221 1027.996, 1221 1027.069 C 1221 1026.141, 1221.661 1024.509, 1222.468 1023.441 C 1223.276 1022.374, 1223.953 1020.375, 1223.974 1019 C 1223.995 1017.625, 1224.613 1015.348, 1225.348 1013.941 C 1226.082 1012.533, 1226.975 1009.555, 1227.332 1007.323 C 1227.689 1005.091, 1228.658 1001.968, 1229.484 1000.382 C 1230.311 998.797, 1230.990 996.092, 1230.994 994.372 C 1230.997 992.652, 1231.675 989.629, 1232.500 987.654 C 1235.400 980.713, 1233.637 971.495, 1227.614 962.108 C 1224.180 956.756, 1223.290 950.852, 1225.453 947.764 C 1226.304 946.549, 1227 944.471, 1227 943.146 C 1227 941.820, 1227.932 939.229, 1229.070 937.386 C 1230.209 935.544, 1230.866 933.593, 1230.531 933.050 C 1230.196 932.507, 1230.839 930.049, 1231.961 927.587 C 1233.082 925.124, 1234 921.561, 1234 919.669 C 1234 917.777, 1234.672 914.940, 1235.494 913.364 C 1236.315 911.789, 1236.944 908.700, 1236.890 906.500 L 1236.792 902.500 1235.379 907.500 C 1226.956 937.317, 1221.491 954.007, 1220.155 953.993 C 1219.795 953.989, 1218.498 952.515, 1217.274 950.717 L 1215.049 947.448 1219.051 935.474 C 1232.918 893.989, 1240.185 847.460, 1240.208 800 C 1240.221 773.121, 1239.142 757.788, 1235.526 733.478 C 1217.408 611.642, 1147.776 502.297, 1044.500 433.503 C 1000.735 404.350, 956.632 384.853, 906.500 372.494 C 876.753 365.161, 854.390 361.823, 823 360.029 C 803.615 358.921, 796.319 358.930, 775 360.086 M 760.569 370.217 C 749.057 371.213, 739.488 372.179, 739.304 372.363 C 738.737 372.930, 747.246 474.453, 747.926 475.233 C 748.278 475.636, 751.588 475.683, 755.283 475.338 L 762 474.711 761.951 469.605 C 761.925 466.797, 761.121 455.387, 760.166 444.250 C 759.211 433.113, 758.575 424, 758.753 424 C 758.932 424, 762.660 425.638, 767.039 427.639 C 774.563 431.079, 776.876 433, 773.493 433 C 772.239 433, 772.089 434.131, 772.599 439.750 C 772.937 443.462, 773.727 452.575, 774.356 460 L 775.500 473.500 782.500 473.150 C 786.350 472.957, 789.746 472.650, 790.046 472.467 C 790.346 472.284, 789.566 459.842, 788.312 444.817 C 787.059 429.793, 785.118 406.504, 783.999 393.065 C 782.880 379.626, 781.860 368.580, 781.732 368.518 C 781.604 368.456, 772.081 369.220, 760.569 370.217 M 815.991 370.178 C 815.987 371.455, 815.704 374.823, 815.362 377.662 L 814.742 382.824 820.621 383.484 C 823.855 383.848, 826.972 384.288, 827.549 384.464 C 828.700 384.814, 828.800 383.496, 823.481 437.974 C 821.630 456.935, 820.261 472.594, 820.439 472.773 C 820.617 472.951, 823.962 473.438, 827.872 473.856 L 834.981 474.616 835.463 471.558 C 835.728 469.876, 837.534 451.400, 839.477 430.500 C 841.419 409.600, 843.260 390.995, 843.567 389.155 L 844.126 385.810 850.953 386.495 L 857.779 387.181 858.497 380.031 C 858.892 376.099, 859.054 372.722, 858.857 372.527 C 858.661 372.331, 851.300 371.461, 842.500 370.592 C 833.700 369.723, 824.138 368.752, 821.250 368.434 C 816.260 367.885, 816 367.971, 815.991 370.178 M 893.168 382.749 C 892.482 385.362, 890.789 391.247, 889.405 395.826 C 887.267 402.903, 886.669 403.970, 885.420 402.934 C 883.601 401.424, 883.839 401.018, 881.266 410 L 879.118 417.500 882.309 420.836 C 884.886 423.530, 885.127 424.107, 883.562 423.836 C 881.833 423.536, 880.779 426.446, 873.769 450.873 C 869.448 465.928, 866.045 478.350, 866.206 478.477 C 866.933 479.049, 907.202 490.129, 907.478 489.833 C 907.649 489.650, 909.157 484.550, 910.829 478.500 C 912.502 472.450, 914.125 466.825, 914.437 466 C 914.795 465.051, 912.771 462.168, 908.930 458.155 C 905.590 454.665, 902.739 451.965, 902.594 452.155 C 902.450 452.345, 901.287 456.325, 900.012 461 C 898.736 465.675, 897.378 469.861, 896.994 470.302 C 896.259 471.146, 887.098 469.265, 885.661 467.975 C 884.740 467.148, 893.887 434, 895.035 434 C 895.426 434, 898.255 436.693, 901.324 439.984 C 904.392 443.275, 907.093 445.637, 907.327 445.234 C 907.561 444.830, 908.582 441.238, 909.597 437.250 L 911.443 430.001 905.228 423.730 L 899.014 417.460 901.663 407.980 C 903.120 402.766, 904.641 398.123, 905.043 397.663 C 905.783 396.815, 917 399.885, 917 400.936 C 917 401.250, 916.100 404.654, 915 408.500 C 913.900 412.346, 913 415.761, 913 416.088 C 913 416.608, 924.016 420.166, 926.380 420.409 C 927.505 420.525, 936.127 390.699, 935.196 389.910 C 934.813 389.586, 926.175 386.977, 916 384.113 C 905.825 381.248, 896.806 378.700, 895.958 378.451 C 894.825 378.117, 894.085 379.258, 893.168 382.749 M 695.868 387.617 L 687.294 396.192 675.922 393.154 C 669.668 391.483, 664.362 390.304, 664.133 390.534 C 663.733 390.934, 689.852 489.109, 690.561 489.869 C 690.985 490.324, 705 486.941, 705 486.384 C 705 486.164, 700.500 469.252, 695 448.801 C 689.500 428.351, 685 411.459, 685 411.264 C 685 411.069, 686.600 411.210, 688.556 411.576 C 691.450 412.119, 692.566 411.817, 694.552 409.951 C 695.894 408.690, 697.151 407.848, 697.345 408.079 C 697.540 408.311, 698.606 412.100, 699.716 416.500 C 702.904 429.143, 717.289 482.459, 717.626 482.882 C 718.065 483.433, 732.001 479.723, 731.992 479.057 C 731.988 478.751, 729.693 469.950, 726.893 459.500 C 724.092 449.050, 721.453 439.150, 721.029 437.500 C 715.743 416.942, 705.661 380.335, 705.130 379.771 C 704.752 379.371, 700.584 382.901, 695.868 387.617 M 757.853 385.706 C 755.456 386.075, 755.241 386.462, 755.580 389.807 C 755.786 391.838, 756.226 396.545, 756.558 400.266 C 757.217 407.643, 757.129 407.543, 766.393 411.398 L 770.286 413.017 769.576 401.799 C 768.522 385.146, 768.465 384.970, 764.125 385.150 C 762.131 385.232, 759.309 385.483, 757.853 385.706 M 623.192 406.167 C 615.883 409.518, 615.926 408.200, 622.634 423.379 C 625.035 428.812, 627 433.394, 627 433.559 C 627 433.725, 626.136 434.005, 625.079 434.180 C 623.270 434.481, 623.339 434.918, 626.261 441.681 C 629.389 448.920, 630.572 449.955, 635.758 449.986 C 637.654 449.998, 637.843 450.281, 636.934 451.750 C 636.063 453.158, 637.889 458.194, 646.268 477.500 C 651.997 490.700, 656.962 502.276, 657.301 503.225 C 657.862 504.794, 658.535 504.686, 664.709 502.037 C 669.280 500.076, 671.408 498.631, 671.219 497.619 C 671.065 496.791, 669.201 492.151, 667.077 487.307 C 664.953 482.463, 660.692 472.749, 657.608 465.720 C 654.524 458.691, 652 452.759, 652 452.539 C 652 452.319, 652.864 451.995, 653.921 451.820 C 655.729 451.519, 655.657 451.073, 652.709 444.250 C 650.110 438.234, 649.182 437, 647.257 437 C 645.954 437, 644.661 436.233, 644.307 435.250 C 642.784 431.017, 630.827 404.440, 630.198 403.887 C 629.814 403.550, 626.661 404.576, 623.192 406.167 M 994.337 451.499 C 984.527 466.623, 971.896 486.086, 966.269 494.749 L 956.039 510.500 961.769 511.141 C 964.921 511.494, 970.444 511.832, 974.043 511.891 L 980.586 512 985.929 522.250 C 988.868 527.888, 991.619 532.886, 992.043 533.357 C 992.468 533.829, 993.379 533.154, 994.068 531.857 C 994.757 530.561, 1007.016 511.500, 1021.310 489.500 C 1035.604 467.500, 1047.487 448.797, 1047.717 447.937 C 1047.994 446.904, 1046.191 445.113, 1042.393 442.648 C 1037.728 439.620, 1036.416 439.163, 1035.400 440.210 C 1034.232 441.414, 1030.151 447.656, 1003.986 488.250 C 998.402 496.913, 993.476 504, 993.038 504 C 992.601 504, 991.683 502.650, 991 501 C 989.966 498.504, 989.190 498, 986.379 498 C 984.520 498, 983 497.784, 983 497.519 C 983 496.980, 986.977 490.663, 997.491 474.500 C 1001.427 468.450, 1009.226 456.458, 1014.823 447.852 C 1020.421 439.245, 1025 431.965, 1025 431.674 C 1025 431.111, 1013.608 424, 1012.706 424 C 1012.414 424, 1004.148 436.375, 994.337 451.499 M 568.291 435.786 C 558.826 441.679, 551.063 446.819, 551.041 447.210 C 551.018 447.600, 552.699 450.606, 554.775 453.890 L 558.551 459.861 564.025 456.453 C 567.036 454.579, 569.785 453.035, 570.133 453.023 C 570.481 453.010, 578.104 464.813, 587.072 479.250 C 601.987 503.258, 616.881 526.983, 617.585 527.851 C 617.995 528.358, 630 520.841, 630 520.078 C 630 519.727, 619.650 502.856, 607 482.587 C 594.350 462.318, 584 445.390, 584 444.971 C 584 444.552, 586.362 442.726, 589.250 440.915 C 592.138 439.103, 594.661 437.507, 594.858 437.369 C 595.628 436.827, 587.785 425.002, 586.678 425.036 C 586.030 425.056, 577.756 429.894, 568.291 435.786 M 1040.212 505.730 L 1004.923 543.500 1009.887 548.250 C 1012.618 550.862, 1015.277 553, 1015.798 553 C 1016.619 553, 1032.539 536.493, 1045.973 521.712 C 1048.366 519.079, 1050.653 517.279, 1051.054 517.712 C 1052.183 518.931, 1056.860 535, 1056.085 535 C 1055.708 535, 1054.937 534.537, 1054.371 533.971 C 1053.057 532.657, 1025.562 561.415, 1026.298 563.334 C 1026.575 564.057, 1029.044 566.525, 1031.783 568.818 L 1036.764 572.988 1042.033 567.244 C 1047.784 560.975, 1081.681 524.747, 1097.250 508.231 C 1102.612 502.542, 1107 497.529, 1107 497.092 C 1107 496.059, 1078.073 468.585, 1076.612 468.230 C 1076.001 468.082, 1059.620 484.957, 1040.212 505.730 M 780 482.650 C 751.289 485.360, 735.514 488.010, 715.729 493.447 C 642.115 513.677, 577.996 560.321, 534.947 624.957 C 526.276 637.977, 512.463 663.873, 506.655 678 C 495.094 706.120, 486.845 739.482, 484.032 769.500 C 482.521 785.633, 482.761 818.468, 484.499 833.329 C 486.584 851.147, 486.533 851, 490.608 851 C 492.474 851, 494 850.739, 494 850.420 C 494 850.101, 493.227 844.364, 492.282 837.670 C 489.866 820.550, 489.914 777.504, 492.369 760 C 499.257 710.883, 515.339 667.717, 541.359 628.500 C 584.787 563.046, 650.642 516.805, 727.087 498.087 C 800.512 480.109, 880.782 490.400, 946.940 526.275 C 973.675 540.772, 997.370 558.389, 1018.530 579.500 C 1067.739 628.596, 1097.100 687.213, 1107.688 757.500 C 1110.077 773.359, 1110.134 826.463, 1107.777 840.500 C 1106.946 845.450, 1106.458 849.837, 1106.692 850.250 C 1106.926 850.663, 1108.608 851, 1110.428 851 L 1113.738 851 1114.857 842.250 C 1123.336 775.921, 1112.024 710.792, 1082.075 653.500 C 1050.703 593.486, 1003.135 546.474, 943.013 516.063 C 906.361 497.523, 866.413 486.350, 825.050 483.067 C 812.677 482.085, 788.370 481.860, 780 482.650 M 497.250 491.974 C 494.363 494.668, 492 497.078, 492 497.330 C 492 497.761, 499.511 506.105, 543.336 554.361 C 553.145 565.162, 561.470 573.996, 561.836 573.991 C 562.201 573.987, 564.075 572.524, 566 570.741 C 567.925 568.958, 574.675 562.821, 581 557.104 C 587.325 551.386, 592.500 546.133, 592.500 545.429 C 592.500 543.559, 576.120 526, 574.375 526 C 573.561 526, 569.767 526.712, 565.943 527.581 C 557.932 529.403, 557.917 529.017, 566.334 538.015 L 572.168 544.253 567.866 548.637 C 565.499 551.048, 563.230 552.904, 562.824 552.760 C 562.086 552.500, 556.340 546.222, 512.015 497.250 C 506.912 491.613, 502.684 487.017, 502.619 487.038 C 502.553 487.059, 500.137 489.280, 497.250 491.974 M 1069.750 496.440 C 1066.037 500.512, 1063 504.349, 1063 504.965 C 1063 507.048, 1066.495 517.999, 1067.080 517.748 C 1067.399 517.612, 1071.859 513.092, 1076.992 507.704 L 1086.325 497.907 1081.954 493.454 C 1079.550 491.004, 1077.340 489.008, 1077.042 489.018 C 1076.744 489.028, 1073.463 492.368, 1069.750 496.440 M 1129.615 522.814 C 1129.339 523.261, 1110.876 537.099, 1088.587 553.564 C 1066.297 570.029, 1048.047 583.857, 1048.030 584.293 C 1047.998 585.143, 1055.976 596, 1056.634 596 C 1056.850 596, 1064.783 590.239, 1074.264 583.198 C 1083.744 576.157, 1092.906 569.417, 1094.623 568.220 L 1097.747 566.044 1098.414 572.272 C 1098.780 575.697, 1099.358 580.075, 1099.697 582 C 1100.256 585.170, 1100.158 585.371, 1098.662 584.132 C 1096.674 582.485, 1097.400 582.054, 1078.028 596.375 L 1064.058 606.703 1068.657 612.891 C 1072.702 618.335, 1073.450 618.917, 1074.878 617.728 C 1075.770 616.985, 1081.675 612.554, 1088 607.882 C 1118.078 585.661, 1115.230 588.211, 1114.817 583.874 C 1114.415 579.660, 1114.798 579.436, 1119.498 581.135 C 1122.562 582.243, 1123.050 581.963, 1139.805 569.500 L 1156.973 556.729 1153.909 552.614 C 1152.223 550.351, 1146.492 542.552, 1141.172 535.283 C 1135.852 528.014, 1131.189 522.051, 1130.809 522.033 C 1130.429 522.015, 1129.892 522.366, 1129.615 522.814 M 464.500 528.446 C 462.300 531.396, 460.500 534.257, 460.500 534.806 C 460.500 535.355, 465.450 539.581, 471.500 544.198 C 516.393 578.457, 530.002 589.075, 529.970 589.816 C 529.954 590.192, 528.220 592.491, 526.117 594.924 L 522.293 599.347 511.897 591.375 C 506.178 586.990, 491.600 575.828, 479.500 566.570 C 467.400 557.312, 456.571 548.896, 455.436 547.869 C 454.300 546.841, 452.852 546, 452.218 546 C 451.584 546, 449.178 548.499, 446.872 551.554 C 443.321 556.257, 442.895 557.302, 444.089 558.379 C 445.709 559.838, 455.873 567.694, 467.500 576.473 C 471.900 579.795, 481.575 587.209, 489 592.950 C 496.425 598.690, 507.339 607.125, 513.253 611.693 C 519.168 616.262, 524.417 620, 524.918 620 C 525.855 620, 549.753 589.807, 550.635 587.510 C 550.928 586.745, 545.761 582.075, 537.813 575.918 C 515.402 558.561, 468.922 522.997, 468.705 523.042 C 468.592 523.065, 466.700 525.497, 464.500 528.446 M 1119 549.846 C 1113.524 554.032, 1111.519 556.175, 1111.571 557.789 C 1111.962 569.888, 1112.013 570.209, 1113.425 569.667 C 1115.800 568.756, 1134.888 554.561, 1134.946 553.663 C 1135.038 552.235, 1128.722 543.997, 1127.580 544.057 C 1126.986 544.088, 1123.125 546.693, 1119 549.846 M 1128.220 608.955 L 1081.981 631.924 1085.205 638.462 C 1086.978 642.058, 1088.753 645, 1089.149 645 C 1089.545 645, 1099.808 640.050, 1111.955 634 C 1124.103 627.950, 1134.207 623, 1134.410 623 C 1134.908 623, 1133.848 640.375, 1133.314 640.971 C 1133.081 641.230, 1132.544 640.880, 1132.119 640.193 C 1131.552 639.275, 1126.524 641.273, 1113.174 647.718 C 1103.178 652.544, 1095 656.822, 1095 657.225 C 1095 658.861, 1100.564 669.958, 1101.394 669.978 C 1101.886 669.990, 1112.573 664.970, 1125.144 658.822 L 1148 647.643 1148 643.988 C 1148 639.220, 1148.733 638.645, 1151.769 641.033 C 1153.144 642.115, 1154.881 643, 1155.628 643 C 1157.452 643, 1194 624.719, 1194 623.807 C 1194 622.555, 1175.949 586.512, 1175.187 586.243 C 1174.787 586.102, 1153.652 596.322, 1128.220 608.955 M 1159.064 610.405 C 1154.424 612.772, 1150.293 615.562, 1149.884 616.605 C 1149.475 617.647, 1149.109 621.091, 1149.070 624.258 L 1149 630.015 1161.250 623.894 C 1167.987 620.527, 1173.634 617.652, 1173.798 617.505 C 1174.247 617.102, 1168.665 605.992, 1168.042 606.050 C 1167.744 606.078, 1163.704 608.037, 1159.064 610.405 M 753.569 615.186 L 747.892 621.372 753.815 627.295 C 759.720 633.200, 759.746 633.213, 762.312 631.531 C 763.728 630.603, 766.548 627.816, 768.579 625.338 L 772.271 620.832 766.417 614.916 C 763.197 611.662, 760.266 609, 759.904 609 C 759.542 609, 756.691 611.784, 753.569 615.186 M 833.265 614.794 L 827.031 620.500 832.912 627 L 838.794 633.500 841.647 631.021 C 843.216 629.658, 846.160 627.006, 848.188 625.129 L 851.877 621.714 846.261 615.357 C 843.172 611.861, 840.387 609.020, 840.072 609.044 C 839.758 609.067, 836.694 611.655, 833.265 614.794 M 785.075 611.409 C 783.440 613.380, 784.651 617, 786.945 617 C 789.665 617, 791.622 614.210, 790.335 612.166 C 788.922 609.922, 786.588 609.586, 785.075 611.409 M 809.930 611.584 C 808.279 613.574, 809.793 616.364, 812.766 616.808 C 815.282 617.184, 816.748 613.606, 814.960 611.452 C 813.392 609.562, 811.568 609.610, 809.930 611.584 M 814.079 613.583 C 814.127 614.748, 814.364 614.985, 814.683 614.188 C 814.972 613.466, 814.936 612.603, 814.604 612.271 C 814.272 611.939, 814.036 612.529, 814.079 613.583 M 840 619.418 C 840 623.498, 839.727 627.548, 839.393 628.418 C 838.369 631.087, 840.336 630.197, 845.289 625.750 L 850.024 621.500 845.457 616.750 C 842.945 614.138, 840.690 612, 840.445 612 C 840.200 612, 840 615.338, 840 619.418 M 760.809 613.750 C 760.639 614.163, 760.725 618.010, 761 622.301 L 761.500 630.102 765.956 625.554 L 770.411 621.005 766.503 617.003 C 762.610 613.017, 761.397 612.323, 760.809 613.750 M 726.850 618.275 L 723.276 622.551 727.731 626.426 L 732.186 630.301 736.048 625.901 L 739.909 621.500 735.705 617.780 C 733.392 615.734, 731.258 614.046, 730.962 614.030 C 730.666 614.013, 728.815 615.924, 726.850 618.275 M 865.706 617.706 L 861.009 621.185 864.174 625.593 C 865.915 628.017, 867.760 630, 868.276 630 C 869.445 630, 877.004 624.073, 876.990 623.166 C 876.985 622.800, 875.500 620.639, 873.692 618.364 L 870.402 614.227 865.706 617.706 M 731.846 622.242 L 732.191 628.270 735.220 625.241 C 738.495 621.966, 738.375 621.117, 734.220 618.153 L 731.500 616.214 731.846 622.242 M 703.036 621.104 L 699.738 625.209 703.920 629.354 L 708.101 633.500 712.032 629 L 715.962 624.500 712.020 620.750 C 709.852 618.688, 707.685 617, 707.206 617 C 706.727 617, 704.850 618.847, 703.036 621.104 M 869.986 620.250 C 869.979 622.038, 869.688 624.564, 869.340 625.863 C 868.778 627.962, 868.920 628.104, 870.604 627.130 C 871.647 626.527, 873.341 625.375, 874.369 624.569 C 876.181 623.151, 876.165 623.011, 873.869 620.108 C 870.807 616.235, 870.003 616.264, 869.986 620.250 M 889.812 620.357 L 885.124 623.603 888.180 628.302 C 889.861 630.886, 891.566 633, 891.968 633 C 892.950 633, 901 627.138, 901 626.424 C 901 625.823, 895.043 616.962, 894.702 617.055 C 894.591 617.085, 892.390 618.571, 889.812 620.357 M 708 624.968 L 708 631.310 710.093 629.416 C 713.998 625.882, 714.146 624.514, 710.957 621.459 L 708 618.626 708 624.968 M 894.780 620.599 C 894.491 621.094, 893.938 623.686, 893.550 626.357 C 892.799 631.531, 892.650 631.464, 897.730 628.220 C 899.389 627.161, 899.728 626.373, 899.054 625.148 C 897.177 621.739, 895.287 619.728, 894.780 620.599 M 785.046 628.444 C 782.345 631.699, 786.815 635.614, 789.811 632.618 C 791.084 631.344, 791.215 630.563, 790.376 629.231 C 788.916 626.913, 786.601 626.571, 785.046 628.444 M 809.930 628.584 C 808.279 630.574, 809.793 633.364, 812.766 633.808 C 815.282 634.184, 816.748 630.606, 814.960 628.452 C 813.392 626.562, 811.568 626.610, 809.930 628.584 M 814.079 630.583 C 814.127 631.748, 814.364 631.985, 814.683 631.188 C 814.972 630.466, 814.936 629.603, 814.604 629.271 C 814.272 628.939, 814.036 629.529, 814.079 630.583 M 402.659 631.750 C 400.701 634.946, 388.089 670.476, 388.708 671.050 C 389.144 671.453, 394.675 673.699, 401 676.040 C 413.325 680.603, 414.176 681.032, 412.250 681.720 C 409.695 682.633, 411.182 683.895, 417.934 686.544 C 424.975 689.306, 425.756 689.296, 429.750 686.392 C 431.666 684.999, 432 684.976, 432 686.236 C 432 687.252, 439.915 690.704, 457.250 697.248 C 471.137 702.490, 483.175 707.053, 484 707.387 C 485.177 707.863, 487.007 703.957, 492.500 689.247 C 496.350 678.936, 499.638 669.754, 499.807 668.843 C 500.119 667.162, 499.938 667.076, 481.824 660.315 L 475.148 657.823 468.562 663.100 C 464.941 666.002, 462.320 668.666, 462.739 669.018 C 463.157 669.371, 467.458 671.158, 472.295 672.990 C 479.279 675.635, 480.957 676.649, 480.440 677.911 C 480.081 678.785, 479.119 681.413, 478.300 683.750 C 477.482 686.087, 476.668 688, 476.492 688 C 475.934 688, 449.648 678.245, 446.164 676.745 L 442.829 675.309 449.478 670.018 C 453.135 667.108, 455.761 664.394, 455.313 663.987 C 454.192 662.966, 443.241 659, 441.545 659 C 440.786 659, 437.208 661.424, 433.594 664.386 L 427.023 669.773 417.467 666.136 C 406.848 662.095, 406.846 662.092, 410.404 653.575 L 411.879 650.044 418.190 652.438 C 421.660 653.755, 425.223 655.119, 426.107 655.468 C 427.282 655.933, 428.044 655.216, 428.940 652.802 C 429.614 650.986, 430.828 647.972, 431.636 646.104 C 432.445 644.236, 432.746 642.358, 432.304 641.930 C 431.591 641.241, 404.656 631, 403.556 631 C 403.315 631, 402.911 631.337, 402.659 631.750 M 754 646 C 754 646.550, 754.595 647, 755.322 647 C 756.049 647, 759.762 649.698, 763.572 652.997 C 767.382 656.295, 770.797 658.995, 771.160 658.997 C 771.522 658.998, 771.806 655.850, 771.790 652 L 771.761 645 762.880 645 C 757.627 645, 754 645.408, 754 646 M 785.046 646.444 C 782.345 649.699, 786.815 653.614, 789.811 650.618 C 791.084 649.344, 791.215 648.563, 790.376 647.231 C 788.916 644.913, 786.601 644.571, 785.046 646.444 M 810.200 646.200 C 807.580 648.820, 810.300 652.674, 813.952 651.515 C 817.193 650.486, 815.971 645, 812.500 645 C 811.895 645, 810.860 645.540, 810.200 646.200 M 736.449 646.900 C 731.287 647.532, 727.168 650.087, 723.463 654.958 C 721.818 657.121, 721.574 659.519, 721.432 674.958 C 721.343 684.606, 720.916 696.042, 720.482 700.370 L 719.693 708.240 728.244 716.370 C 736.713 724.421, 740 729.042, 740 732.891 C 740 733.986, 740.450 735.160, 741 735.500 C 742.924 736.689, 742.063 738.104, 740.066 737.035 C 739.002 736.466, 737.721 736, 737.219 736 C 735.855 736, 742.600 767.296, 744.961 771.924 C 747.858 777.602, 753.310 782.656, 765.463 790.928 C 777.273 798.967, 783.667 802.170, 792.460 804.453 C 803.921 807.428, 810.941 805.779, 813.566 799.496 C 816.294 792.967, 812.537 786.077, 805.127 784.018 C 800.036 782.605, 799.163 782.711, 793.250 785.464 C 787.592 788.098, 786.867 787.710, 790 783.727 C 792.723 780.265, 792.523 779.274, 788.944 778.488 C 787.263 778.119, 782.653 775.383, 778.699 772.408 C 774.745 769.434, 771.170 767, 770.755 767 C 770.340 767, 770 767.900, 770 769 C 770 770.100, 769.550 771, 769 771 C 767.140 771, 764 767.015, 764 764.655 C 764 763.365, 764.900 761.495, 766 760.500 C 767.799 758.872, 768 758.857, 768 760.345 C 768 764.079, 773.370 761.431, 782.164 753.361 C 787.989 748.016, 790.917 747.208, 796.062 749.528 C 799.834 751.229, 800.166 751.229, 803.938 749.528 C 809.245 747.135, 811.498 747.897, 819.919 754.932 C 826.221 760.197, 830.653 762.864, 831.400 761.841 C 831.537 761.654, 832.381 758.350, 833.275 754.500 C 835.458 745.099, 836.541 732.452, 835.232 731.644 C 834.672 731.297, 833.925 732.162, 833.573 733.566 C 832.709 737.009, 825.451 744.729, 820.893 747.055 C 817.803 748.631, 817.010 748.717, 816.065 747.578 C 815.443 746.828, 813.599 745.662, 811.967 744.986 C 809.942 744.148, 809 743.055, 809 741.545 C 809 738.343, 808.379 738.100, 803.703 739.474 C 799.877 740.599, 799.455 741.050, 799 744.509 L 798.500 748.308 795.324 745.627 C 793.576 744.152, 791.860 741.639, 791.509 740.042 C 790.579 735.807, 788.655 734.638, 783.727 735.314 C 779.206 735.934, 771 733.146, 771 730.990 C 771 729.100, 769.068 730.961, 767.152 734.696 L 765.322 738.262 763.661 734.111 C 761.327 728.277, 761.472 717.956, 763.956 713.086 C 766.047 708.987, 770.704 704.546, 774.011 703.496 C 776.615 702.670, 779.943 696.123, 780.929 689.887 C 781.668 685.209, 781.601 685, 779.359 685 C 778.071 685, 774.978 686.557, 772.485 688.459 C 769.992 690.362, 766.312 692.372, 764.307 692.926 C 757.424 694.826, 747.603 690.878, 742.550 684.179 C 740.669 681.686, 740.670 681.659, 742.571 682.399 C 752.780 686.372, 763.722 686.752, 768.468 683.297 C 771.767 680.896, 771.621 680.187, 767.750 679.813 L 764.500 679.500 767.842 677.391 C 770.841 675.498, 770.976 675.227, 769.156 674.751 C 767.973 674.442, 766.916 674.775, 766.618 675.552 C 766.337 676.284, 764.956 677.638, 763.548 678.561 C 761.358 679.995, 760.543 680.053, 757.910 678.963 C 754.614 677.598, 752.654 674.064, 753.692 671.359 C 754.229 669.961, 753.871 669.813, 751.414 670.416 C 749.811 670.810, 747.893 671.725, 747.151 672.450 C 746.026 673.550, 746.523 674.216, 750.151 676.464 L 754.500 679.160 750.500 678.528 C 748.300 678.180, 744.205 676.794, 741.400 675.447 C 738.596 674.101, 735.108 673, 733.650 673 C 730.449 673, 730.275 671.357, 732.609 663.154 C 734.518 656.445, 738.429 651.962, 745.408 648.484 L 750.393 646 745.946 646.141 C 743.501 646.218, 739.227 646.560, 736.449 646.900 M 832.750 648.767 C 829.473 651.011, 829 651.838, 829 655.323 L 829 659.310 831.250 657.412 C 832.487 656.368, 835.330 653.935, 837.566 652.007 C 839.802 650.078, 842.502 647.964, 843.566 647.309 C 845.237 646.279, 844.889 646.123, 841 646.158 C 837.857 646.187, 835.369 646.973, 832.750 648.767 M 814.079 648.583 C 814.127 649.748, 814.364 649.985, 814.683 649.188 C 814.972 648.466, 814.936 647.603, 814.604 647.271 C 814.272 646.939, 814.036 647.529, 814.079 648.583 M 855.500 648.967 C 860.728 651.481, 862.211 652.749, 865.372 657.406 C 868.378 661.836, 868.663 661.522, 866.447 656.218 C 863.869 650.045, 860.260 646.997, 855.563 647.022 L 851.500 647.044 855.500 648.967 M 1194 659.040 C 1180.368 663.586, 1181 663.485, 1181 661.117 C 1181 659.286, 1180.811 659.290, 1174.250 661.258 C 1165.801 663.791, 1165.313 664.190, 1164.457 669.253 C 1163.823 673.010, 1163.635 673.222, 1162.421 671.561 C 1161.152 669.825, 1159.768 670.154, 1135.292 678.001 C 1121.106 682.549, 1109.125 686.607, 1108.666 687.019 C 1107.766 687.827, 1110.763 699.735, 1112.068 700.542 C 1112.503 700.811, 1123.402 697.648, 1136.290 693.515 C 1149.177 689.382, 1160.039 686, 1160.428 686 C 1160.817 686, 1160.828 686.968, 1160.452 688.151 C 1159.951 689.731, 1160.132 690.168, 1161.135 689.798 C 1161.886 689.520, 1165.510 688.299, 1169.188 687.085 C 1174.415 685.360, 1175.945 684.407, 1176.188 682.723 C 1176.456 680.873, 1178.903 679.803, 1193.500 675.155 C 1202.850 672.177, 1210.664 669.598, 1210.864 669.423 C 1211.486 668.881, 1206.984 654.994, 1206.221 655.103 C 1205.825 655.160, 1200.325 656.931, 1194 659.040 M 744.736 658.767 C 743.215 659.710, 741.140 662.160, 740.125 664.213 C 739.109 666.265, 737.918 667.620, 737.479 667.222 C 737.039 666.825, 737.003 667.062, 737.399 667.750 C 737.922 668.660, 739.121 668.195, 741.809 666.039 C 743.970 664.306, 747.756 662.596, 750.943 661.915 L 756.387 660.751 752.943 658.918 C 748.683 656.649, 748.168 656.639, 744.736 658.767 M 847.250 658.655 C 845.462 659.532, 844 660.670, 844 661.184 C 844 661.698, 844.391 661.877, 844.868 661.581 C 846.870 660.344, 856.257 663.857, 859.595 667.092 L 863.049 670.440 861.980 667.373 C 860.774 663.912, 855.517 658.516, 852.500 657.641 C 851.400 657.322, 849.038 657.778, 847.250 658.655 M 857 657.474 C 857 658.266, 863.149 661.184, 863.686 660.647 C 863.961 660.372, 862.816 659.439, 861.143 658.574 C 857.970 656.933, 857 656.676, 857 657.474 M 785.046 664.444 C 782.345 667.699, 786.815 671.614, 789.811 668.618 C 791.084 667.344, 791.215 666.563, 790.376 665.231 C 788.916 662.913, 786.601 662.571, 785.046 664.444 M 809.930 664.584 C 808.978 665.732, 808.905 666.626, 809.665 667.834 C 811.999 671.540, 816.667 669.793, 815.616 665.607 C 814.869 662.630, 811.983 662.110, 809.930 664.584 M 701.667 665.667 C 699.729 667.604, 703.312 694.025, 706.570 701.821 C 708.178 705.669, 710.769 709, 712.155 709 C 714.461 709, 711.952 698.940, 707.791 691.502 C 706.246 688.740, 703.038 676.107, 703.017 672.702 C 703.006 670.946, 703.985 668.992, 705.646 667.452 L 708.292 665 705.313 665 C 703.674 665, 702.033 665.300, 701.667 665.667 M 814.079 666.583 C 814.127 667.748, 814.364 667.985, 814.683 667.188 C 814.972 666.466, 814.936 665.603, 814.604 665.271 C 814.272 664.939, 814.036 665.529, 814.079 666.583 M 892.758 666.034 C 896.608 667.581, 897.418 670.930, 895.684 678.135 C 893.794 685.988, 890.283 696.610, 888.406 700.154 C 886.870 703.055, 886.493 709, 887.845 709 C 889.263 709, 891.836 705.637, 893.541 701.555 C 895.439 697.013, 899 676.782, 899 670.541 C 899 665.886, 898.002 664.949, 893.168 665.063 C 890.568 665.125, 890.558 665.150, 892.758 666.034 M 846 672.819 C 846 674.908, 845.178 676.502, 843.365 677.927 C 839.873 680.675, 838.390 680.544, 835.042 677.195 C 833.309 675.463, 831.609 674.611, 830.596 674.966 C 829.300 675.421, 829.644 675.959, 832.227 677.521 L 835.500 679.500 832.250 679.813 C 827.679 680.254, 828.208 681.542, 833.733 683.425 C 840.533 685.742, 848.158 686.433, 852.201 685.099 C 856.066 683.823, 860.423 679.667, 861.445 676.281 L 862.115 674.061 857.808 675.952 C 855.438 676.991, 851.700 678.121, 849.500 678.463 L 845.500 679.084 849.185 677.051 C 851.212 675.933, 853.120 674.615, 853.424 674.123 C 854.166 672.922, 852.106 671.316, 848.744 670.472 C 846.203 669.834, 846 670.008, 846 672.819 M 792.553 691.750 C 792.179 695.462, 791.171 701.072, 790.314 704.216 C 788.878 709.483, 788.889 710.268, 790.461 714.216 C 792.987 720.560, 796.693 725, 799.462 725 C 802.392 725, 806.221 720.606, 808.506 714.622 C 810.069 710.530, 810.083 709.648, 808.677 703.833 C 807.835 700.350, 806.844 694.688, 806.475 691.250 L 805.804 685 799.518 685 L 793.233 685 792.553 691.750 M 827.022 686.750 C 827.062 689.941, 830.670 696.544, 833.823 699.198 C 839.747 704.182, 850.075 703.732, 855.177 698.266 C 857.573 695.699, 860.709 688.375, 859.801 687.467 C 859.581 687.248, 857.210 688.178, 854.531 689.534 C 846.898 693.399, 838.379 692.602, 831.317 687.362 C 827.509 684.537, 826.993 684.463, 827.022 686.750 M 1167.750 712.316 C 1123.718 719.630, 1119 720.594, 1119 722.280 C 1119 724.368, 1125.145 762.309, 1125.569 762.836 C 1126.039 763.421, 1226.459 746.707, 1227.399 745.887 C 1227.921 745.431, 1226.890 736.502, 1224.936 724.551 C 1221.578 704.022, 1221.572 704, 1219.037 704.109 C 1217.642 704.170, 1194.563 707.863, 1167.750 712.316 M 378.527 708.250 C 376.841 715.664, 375.968 720.295, 376.216 720.502 C 376.548 720.778, 417.114 728.008, 418.307 728.003 C 419.353 727.999, 417.180 731.072, 412.748 735.862 L 409.214 739.681 391.857 736.494 C 382.311 734.741, 374.377 733.398, 374.227 733.509 C 374.078 733.621, 373.345 736.914, 372.599 740.827 C 371.372 747.265, 371.398 747.987, 372.872 748.405 C 373.767 748.660, 383.500 750.474, 394.500 752.436 C 405.500 754.398, 427.029 758.252, 442.342 761.001 C 457.655 763.751, 471.010 766, 472.021 766 C 473.460 766, 474.103 764.754, 474.988 760.250 C 475.610 757.087, 476.294 753.961, 476.508 753.301 C 477.018 751.732, 477.210 751.778, 450.510 746.982 C 437.865 744.711, 427.339 742.672, 427.118 742.452 C 426.763 742.097, 429.024 739.190, 436.714 730.113 C 438.838 727.606, 438.930 727.587, 438.964 729.646 C 438.996 731.558, 440.011 731.979, 448.250 733.499 C 466.840 736.929, 478.481 738.852, 478.789 738.545 C 479.457 737.876, 481.272 724.939, 480.768 724.435 C 480.475 724.142, 470.620 722.156, 458.868 720.021 C 414.867 712.029, 380.959 706, 380.014 706 C 379.477 706, 378.808 707.013, 378.527 708.250 M 1239.079 707.583 C 1239.127 708.748, 1239.364 708.985, 1239.683 708.188 C 1239.972 707.466, 1239.936 706.603, 1239.604 706.271 C 1239.272 705.939, 1239.036 706.529, 1239.079 707.583 M 778.455 711.455 C 774.906 715.003, 775.630 723.153, 779.630 724.688 C 783.119 726.027, 784.936 719.931, 783.375 712.125 C 782.622 708.358, 781.680 708.229, 778.455 711.455 M 815.917 711.717 C 813.831 717.204, 815.992 725, 819.598 725 C 821.649 725, 824 720.852, 824 717.232 C 824 715.037, 823.167 713.076, 821.545 711.455 C 818.395 708.304, 817.194 708.360, 815.917 711.717 M 1241.128 716.500 C 1241.121 717.600, 1241.488 720.300, 1241.943 722.500 L 1242.770 726.500 1242.815 722.500 C 1242.839 720.300, 1242.473 717.600, 1242 716.500 L 1241.141 714.500 1241.128 716.500 M 1172 727.064 C 1153.025 730.275, 1137.135 732.925, 1136.689 732.951 C 1136.243 732.978, 1136.192 735.138, 1136.577 737.750 C 1137.883 746.614, 1134.209 746.426, 1174.767 739.706 L 1211.034 733.697 1210.450 730.099 C 1209.169 722.210, 1208.796 721.004, 1207.671 721.112 C 1207.027 721.174, 1190.975 723.852, 1172 727.064 M 805 727.200 C 801.159 729.172, 796.468 729.567, 795.500 728 C 795.160 727.450, 794.121 727.014, 793.191 727.032 C 791.892 727.056, 792.151 727.636, 794.306 729.532 C 798.108 732.877, 802.157 732.725, 806.234 729.083 C 810.202 725.537, 809.708 724.783, 805 727.200 M 852.694 743.160 C 848.727 746.960, 848 748.241, 848 751.427 C 848 755.204, 850.562 762, 851.985 762 C 852.402 762, 853.030 759.835, 853.381 757.188 C 853.732 754.542, 854.936 749.768, 856.056 746.580 C 857.177 743.391, 857.935 740.305, 857.741 739.722 C 857.546 739.139, 855.275 740.686, 852.694 743.160 M 1245.272 743 C 1245.272 745.475, 1245.467 746.487, 1245.706 745.250 C 1245.944 744.013, 1245.944 741.987, 1245.706 740.750 C 1245.467 739.513, 1245.272 740.525, 1245.272 743 M 780.054 760.628 C 771.893 762.773, 771.897 763.199, 780.101 765.647 C 788.200 768.063, 809.664 768.605, 815.854 766.549 C 818.520 765.663, 821.545 764.322, 822.576 763.568 C 824.311 762.299, 824.152 762.118, 820.411 761.111 C 813.662 759.293, 786.372 758.967, 780.054 760.628 M 923 771.428 C 923 789.248, 917.416 807.745, 908.941 818 C 907.181 820.130, 906.952 820.204, 907.394 818.500 C 910.301 807.302, 910.388 795.263, 907.598 790.141 C 906.439 788.014, 906.251 788.602, 905.676 796.141 C 904.741 808.386, 901.725 831, 901.026 831 C 900.066 831, 894.395 821.180, 890.613 812.971 C 888.705 808.831, 885.825 800.989, 884.213 795.545 L 881.282 785.648 878.520 794.074 C 877.001 798.708, 873.124 808.053, 869.905 814.840 L 864.051 827.180 865.946 830.894 C 868.750 836.390, 870.454 845.836, 869.488 850.525 L 868.669 854.500 867.905 849.665 C 867.233 845.407, 861.478 833.963, 860.039 834.022 C 859.742 834.034, 858.175 836.018, 856.555 838.432 C 853.781 842.565, 853.608 843.419, 853.555 853.160 C 853.508 861.929, 853.155 864.146, 851.230 867.750 C 848.703 872.480, 847.525 873.380, 849.025 869.435 C 850.311 866.051, 850.259 860.914, 848.882 855.444 L 847.763 851.003 838.620 860.249 L 829.477 869.495 831.346 874.997 C 835.015 885.804, 831.627 899.311, 823.164 907.606 C 820.874 909.851, 819 911.931, 819 912.227 C 819 912.524, 820.013 913, 821.250 913.285 C 822.487 913.570, 831.375 915.825, 841 918.297 C 883.576 929.230, 916.903 931.272, 943.336 924.567 C 963.963 919.334, 980.439 908.558, 988.061 895.315 L 990.412 891.229 987.514 887.365 C 985.920 885.239, 981.215 879.959, 977.058 875.630 L 969.500 867.761 975.333 871.464 C 978.541 873.501, 981.389 874.944, 981.663 874.671 C 982.434 873.899, 968.587 859.705, 961.163 853.657 C 957.498 850.672, 950.900 845.645, 946.500 842.486 C 937.789 836.232, 939.125 836.103, 951.500 842.002 C 961.339 846.692, 976.093 856.246, 985.750 864.181 C 989.737 867.458, 993.050 869.770, 993.111 869.319 C 993.592 865.759, 992.605 852.220, 991.455 846.594 C 986.637 823.037, 970.090 810.347, 936.619 804.541 C 931.734 803.693, 925.697 803, 923.202 803 C 914.283 803, 919.981 801.885, 930.411 801.589 C 936.260 801.423, 941.287 801.046, 941.582 800.752 C 942.264 800.069, 939.804 794.512, 936.852 790.067 L 934.572 786.634 937.966 788.567 C 939.832 789.630, 944.316 793.227, 947.930 796.561 C 954.077 802.232, 955.015 802.731, 962.500 804.308 C 985.513 809.157, 994.201 820.002, 1001.497 852.985 C 1003.292 861.103, 1004.824 865.365, 1007.342 869.243 C 1014.754 880.662, 1018.025 882.448, 1029.898 881.562 C 1034.629 881.208, 1040.115 880.551, 1042.089 880.101 C 1045.556 879.311, 1045.365 879.594, 1036.499 888.392 C 1024.863 899.937, 1020.500 908.011, 1020.500 918 C 1020.500 924.203, 1022.348 931, 1024.034 931 C 1024.469 931, 1027.989 925.712, 1031.855 919.250 C 1041.787 902.651, 1049.574 891.453, 1050.962 891.775 C 1051.615 891.926, 1051.853 891.571, 1051.492 890.987 C 1050.142 888.802, 1067.044 870.592, 1074.420 866.285 C 1076.259 865.211, 1075.921 865.058, 1071.500 864.962 L 1066.500 864.854 1071.500 863.080 C 1074.250 862.104, 1080.550 860.289, 1085.500 859.046 C 1090.450 857.803, 1095.150 856.589, 1095.945 856.349 C 1097.997 855.730, 1068.265 826.154, 1059.500 820.097 C 1049.716 813.335, 1035.064 806.271, 1027.273 804.560 C 1024.461 803.942, 1024.438 803.978, 1023.133 811.035 C 1021.975 817.295, 1014.523 844.807, 1013.783 845.553 C 1013.627 845.709, 1013.635 837.662, 1013.800 827.669 C 1013.964 817.676, 1013.739 806.350, 1013.300 802.500 L 1012.500 795.500 1007 793.540 C 1002.175 791.821, 998.744 791.575, 979.040 791.540 L 956.580 791.500 952.540 787.075 C 948.562 782.717, 925.546 765, 923.863 765 C 923.388 765, 923 767.892, 923 771.428 M 1247.500 803.503 C 1247.500 823.472, 1247.831 839.290, 1248.235 838.655 C 1249.205 837.130, 1249.220 768.253, 1248.250 767.657 C 1247.838 767.403, 1247.500 783.534, 1247.500 803.503 M 671.063 771.551 C 664.782 774.474, 657.949 779.192, 649.658 786.329 L 643.816 791.357 621.158 791.492 C 602.724 791.602, 597.529 791.947, 593.290 793.340 C 588.532 794.905, 588.015 795.376, 587.323 798.777 C 586.906 800.825, 586.550 812.032, 586.532 823.683 C 586.514 835.754, 586.150 843.927, 585.685 842.683 C 584.012 838.199, 578.106 816.272, 576.931 810.178 C 575.752 804.068, 575.624 803.877, 573.106 804.502 C 563.824 806.806, 545.953 815.810, 536.418 822.986 C 531.893 826.392, 504.915 853.955, 504.227 855.876 C 504.077 856.295, 506.665 857.143, 509.978 857.759 C 513.291 858.375, 519.939 860.144, 524.751 861.689 L 533.500 864.500 528.763 864.804 L 524.027 865.108 529.763 869.941 C 543.363 881.397, 551.032 891.516, 573.299 927.376 L 576.327 932.253 578.331 928.376 C 579.649 925.827, 580.364 922.414, 580.418 918.408 C 580.487 913.250, 579.923 911.182, 576.734 904.908 C 573.091 897.742, 564.758 887.908, 557 881.623 C 554.955 879.966, 554.332 879.076, 555.500 879.482 C 558.880 880.656, 577.641 882.307, 580.227 881.658 C 584.191 880.663, 591.298 873.645, 594.189 867.871 C 595.668 864.917, 597.774 858.192, 598.869 852.927 C 605.548 820.809, 614.970 809.197, 638.533 804.048 C 645.702 802.481, 647.365 801.720, 649.715 798.927 C 652.647 795.442, 664.005 786.672, 664.694 787.361 C 664.919 787.585, 663.729 789.934, 662.051 792.580 C 660.373 795.227, 659 798.420, 659 799.676 C 659 801.672, 659.411 801.909, 662.250 801.548 C 664.038 801.321, 668.875 801.427, 673 801.784 L 680.500 802.432 673.675 803.141 C 649.370 805.664, 631.508 812.487, 620.430 823.478 C 615.394 828.474, 613.905 830.778, 611.692 837 C 608.634 845.599, 607.018 854.792, 607.008 863.664 L 607 869.827 620.037 860.047 C 631.894 851.151, 648.186 841.653, 658.500 837.624 L 662.500 836.061 659.568 838.281 C 657.956 839.501, 652.106 843.867, 646.568 847.982 C 636.176 855.704, 621.179 869.779, 619.097 873.765 C 618.048 875.772, 618.540 875.630, 623.409 872.515 C 626.431 870.582, 629.047 869, 629.221 869 C 629.396 869, 626.380 872.278, 622.519 876.285 C 618.659 880.291, 614.227 885.429, 612.672 887.701 C 609.877 891.784, 609.865 891.866, 611.643 894.666 C 624.105 914.300, 646.744 925.512, 678.868 927.956 C 701.389 929.670, 728.777 926.305, 761 917.865 C 769.525 915.632, 777.513 913.571, 778.750 913.286 C 781.800 912.582, 781.626 912.005, 777.060 907.679 C 774.893 905.625, 771.858 901.370, 770.315 898.223 C 767.927 893.353, 767.518 891.308, 767.565 884.500 C 767.601 879.461, 768.216 875.141, 769.227 872.829 C 770.759 869.324, 770.739 869.075, 768.778 867.329 C 767.648 866.323, 763.628 862.002, 759.846 857.726 C 753.030 850.021, 752.960 849.975, 751.986 852.537 C 750.274 857.039, 749.690 865.664, 750.859 869.164 C 751.892 872.258, 751.861 872.355, 750.442 870.500 C 747.377 866.494, 745.701 858.034, 746.337 849.780 C 746.897 842.519, 746.751 841.670, 744.227 837.490 C 742.735 835.021, 741.234 833, 740.890 833 C 738.651 833, 732.117 846.688, 731.880 851.876 C 731.786 853.919, 731.541 853.596, 730.774 850.420 C 729.587 845.510, 730.964 837.845, 734.354 830.500 L 736.662 825.500 732.266 816.397 C 729.848 811.390, 726.174 802.287, 724.100 796.168 L 720.330 785.043 717.585 794.871 C 713.950 807.887, 702.133 832.466, 700.361 830.695 C 699.552 829.885, 696.034 800.982, 695.890 793.953 C 695.810 790.050, 695.413 787.226, 695.008 787.678 C 691.875 791.180, 691.035 805.785, 693.447 814.846 C 694.833 820.055, 694.821 820.148, 692.993 818.494 C 689.619 815.440, 683.073 801.432, 681.022 792.876 C 679.911 788.242, 679.011 781.038, 679.007 776.750 C 679.002 771.215, 678.643 769.003, 677.750 769.010 C 677.063 769.015, 674.053 770.159, 671.063 771.551 M 1127.203 786.094 L 1127.500 793.500 1152.750 793.767 C 1166.638 793.914, 1178 794.262, 1178 794.540 C 1178 794.818, 1175.862 798.731, 1173.250 803.236 C 1169.581 809.562, 1168.427 810.922, 1168.180 809.213 C 1167.863 807.012, 1167.754 807, 1147.430 807 L 1127 807 1127 814.500 L 1127 822 1151.250 822.077 C 1164.588 822.119, 1176.276 822.302, 1177.225 822.484 C 1178.318 822.694, 1179.723 821.566, 1181.057 819.408 C 1182.215 817.534, 1183.307 816, 1183.483 816 C 1183.659 816, 1184.732 817.575, 1185.867 819.500 L 1187.933 823 1209.308 823 L 1230.684 823 1231.364 801.855 C 1231.738 790.225, 1231.912 780.579, 1231.752 780.418 C 1231.591 780.258, 1207.935 779.803, 1179.183 779.407 L 1126.906 778.687 1127.203 786.094 M 868.865 786.250 C 867.616 788.038, 863.761 792.461, 860.298 796.080 C 856.834 799.698, 852.937 804.761, 851.636 807.330 C 849.388 811.770, 849.366 812, 851.184 812 C 852.235 812, 854.173 813.163, 855.491 814.584 L 857.886 817.169 861.088 810.834 C 864.244 804.591, 872.361 783, 871.552 783 C 871.323 783, 870.114 784.462, 868.865 786.250 M 369 805.542 L 369 827.084 376.750 826.792 L 384.500 826.500 384.167 819.911 L 383.834 813.322 402.078 812.661 C 412.111 812.297, 432.147 812, 446.601 812 C 461.056 812, 473.062 811.663, 473.283 811.250 C 473.504 810.837, 473.481 807.266, 473.233 803.313 L 472.781 796.127 457.141 796.554 C 448.538 796.789, 428.563 797.185, 412.750 797.432 L 384 797.883 384 790.941 L 384 784 376.500 784 L 369 784 369 805.542 M 733.852 794.514 C 735.419 798.906, 738.125 805.615, 739.866 809.422 L 743.031 816.344 745.141 814.079 C 746.528 812.590, 748.041 811.966, 749.559 812.256 L 751.868 812.697 749.184 808.021 C 747.708 805.448, 743.013 799.560, 738.752 794.936 L 731.004 786.527 733.852 794.514 M 1191.577 800.719 C 1189.610 803.864, 1188 806.789, 1188 807.219 C 1188 807.648, 1194.300 808, 1202 808 L 1216 808 1216 801.500 L 1216 795 1205.577 795 L 1195.154 795 1191.577 800.719 M 743.654 818.091 C 739.844 822.542, 732.950 834.967, 733.082 837.146 C 733.126 837.891, 733.830 836.971, 734.645 835.102 C 737.005 829.689, 743.802 820.206, 747.034 817.817 C 750.247 815.441, 750.830 814, 748.578 814 C 747.796 814, 745.580 815.841, 743.654 818.091 M 849.781 814.552 C 849.478 814.855, 851.606 817.351, 854.510 820.098 C 857.857 823.264, 861.108 827.730, 863.386 832.296 C 867.067 839.670, 868.274 840.317, 865.395 833.372 C 863.142 827.938, 855.201 816.178, 852.983 814.991 C 850.842 813.845, 850.531 813.803, 849.781 814.552 M 754 817.113 C 754 817.945, 752.650 819.919, 751 821.500 C 747.573 824.784, 747.560 824.834, 749.516 827.419 C 750.877 829.218, 751.085 829.233, 752.813 827.669 C 755.266 825.449, 757.295 825.564, 759.545 828.050 C 761.185 829.862, 761.249 830.472, 760.099 833.300 C 757.531 839.612, 757.693 840.190, 764.178 847.896 C 767.602 851.964, 770.560 854.819, 770.753 854.241 C 771.268 852.697, 764.426 834.748, 759.799 825.500 C 755.452 816.814, 754 814.714, 754 817.113 M 840.794 825.274 C 835.501 835.863, 830.593 847.893, 829.495 852.971 L 828.744 856.441 834.014 850.675 C 843.719 840.057, 843.372 840.819, 840.856 835.641 C 838.780 831.367, 838.755 831.022, 840.360 828.574 C 842.772 824.892, 846.428 825.224, 848.669 829.328 C 849.592 831.019, 849.800 830.955, 851.427 828.472 C 853.161 825.825, 853.143 825.742, 850.225 822.643 C 848.596 820.915, 846.850 818.715, 846.344 817.754 C 845.602 816.343, 844.538 817.784, 840.794 825.274 M 659.500 829.044 C 653.854 831.234, 646.582 836.629, 650.877 835.442 C 652.185 835.080, 656.910 833.067, 661.377 830.968 C 670.132 826.855, 668.762 825.451, 659.500 829.044 M 752.116 832.250 C 749.146 839.214, 746.112 854.667, 747.936 853.539 C 748.521 853.178, 749 851.544, 749 849.909 C 749 846.065, 752.616 835.348, 755.081 831.886 C 757.401 828.628, 757.463 828, 755.464 828 C 754.609 828, 753.126 829.882, 752.116 832.250 M 843.880 830.832 C 847.056 835.292, 849.947 843.540, 850.885 850.817 C 851.740 857.444, 851.748 857.458, 851.874 852.480 C 852.010 847.051, 848.779 833.892, 846.414 830.250 C 845.611 829.013, 844.259 828, 843.409 828 C 842.126 828, 842.207 828.481, 843.880 830.832 M 795.635 833.073 C 792.629 835.437, 792.281 838.732, 794.172 846.924 L 795.343 852 800 852 L 804.657 852 805.828 846.924 C 807.155 841.178, 807.322 836.028, 806.235 834.400 C 805.271 832.956, 801.511 831, 799.701 831 C 798.914 831, 797.084 831.933, 795.635 833.073 M 420.786 845 L 418.072 852.500 420.543 855.998 C 421.902 857.921, 422.594 859.635, 422.081 859.806 C 421.568 859.977, 416.761 858.745, 411.397 857.069 C 406.034 855.392, 401.522 854.145, 401.371 854.296 C 401.220 854.447, 404.041 856.751, 407.641 859.415 C 414.140 864.226, 414.212 864.250, 418.107 862.965 C 420.264 862.253, 422.488 861.117, 423.049 860.441 C 423.647 859.721, 423.952 854.711, 423.785 848.355 L 423.500 837.500 420.786 845 M 1172.786 845 L 1170.072 852.500 1172.543 855.998 C 1173.902 857.921, 1174.594 859.635, 1174.081 859.806 C 1173.568 859.977, 1168.761 858.745, 1163.397 857.069 C 1158.034 855.392, 1153.507 854.159, 1153.338 854.329 C 1153.169 854.498, 1155.982 856.804, 1159.591 859.453 C 1166.109 864.239, 1166.176 864.262, 1170.090 862.970 C 1172.256 862.255, 1174.488 861.117, 1175.049 860.441 C 1175.647 859.721, 1175.952 854.711, 1175.785 848.355 L 1175.500 837.500 1172.786 845 M 1244.722 857.500 C 1244.294 861.350, 1243.717 866.075, 1243.439 868 C 1242.950 871.383, 1242.986 871.357, 1244.514 867.222 C 1245.503 864.545, 1245.983 860.616, 1245.797 856.722 L 1245.500 850.500 1244.722 857.500 M 427.485 856.609 L 424.732 860.218 427.958 859.509 C 429.732 859.120, 434.854 857.530, 439.342 855.976 L 447.500 853.151 438.869 853.075 L 430.237 853 427.485 856.609 M 1179.568 856.500 C 1178.100 858.425, 1177.259 859.996, 1177.699 859.990 C 1178.140 859.985, 1183.225 858.454, 1189 856.589 L 1199.500 853.198 1190.869 853.099 L 1182.237 853 1179.568 856.500 M 425.043 861.874 C 425.102 862.738, 439 881.518, 439 880.734 C 439 880.387, 437.890 876.593, 436.534 872.302 C 434.107 864.624, 433.996 864.474, 429.534 862.874 C 427.040 861.980, 425.019 861.530, 425.043 861.874 M 1177 861.674 C 1177 862.350, 1190.364 880.969, 1190.646 880.687 C 1190.786 880.548, 1189.775 876.837, 1188.399 872.440 C 1185.938 864.576, 1185.826 864.422, 1181.449 862.848 C 1179.002 861.968, 1177 861.440, 1177 861.674 M 416.682 871.250 C 413.121 876.337, 410.356 880.657, 410.536 880.849 C 410.717 881.041, 413.820 879.089, 417.432 876.511 C 423.995 871.828, 424 871.821, 424 866.912 C 424 864.211, 423.810 862, 423.578 862 C 423.345 862, 420.242 866.163, 416.682 871.250 M 798.691 862.750 C 798.246 863.438, 796.834 864, 795.554 864 C 792.382 864, 784.237 869.772, 781.797 873.750 L 779.804 877 787.152 877.012 L 794.500 877.025 797 880.762 L 799.500 884.500 799.800 878.750 C 800.246 870.189, 799.630 861.299, 798.691 862.750 M 1168.682 871.250 C 1165.121 876.337, 1162.356 880.657, 1162.536 880.849 C 1162.717 881.041, 1165.820 879.089, 1169.432 876.511 C 1175.995 871.828, 1176 871.821, 1176 866.912 C 1176 864.211, 1175.810 862, 1175.578 862 C 1175.345 862, 1172.242 866.163, 1168.682 871.250 M 802 864.343 C 802 864.532, 802.900 867.303, 804 870.500 C 806.486 877.725, 806.513 877.236, 803.411 880.923 C 800.264 884.664, 800.892 884.699, 811.855 881.394 C 819.675 879.036, 824.095 877, 821.393 877 C 820.838 877, 818.973 874.997, 817.247 872.548 C 814.084 868.061, 807.810 864, 804.040 864 C 802.918 864, 802 864.155, 802 864.343 M 1241.697 876.890 C 1241.255 879.855, 1240.643 883.680, 1240.336 885.390 C 1239.780 888.491, 1239.783 888.493, 1241.437 886.262 C 1242.663 884.609, 1243.018 882.389, 1242.798 877.762 L 1242.500 871.500 1241.697 876.890 M 777.750 879.053 C 778.438 879.794, 779 882.284, 779 884.586 C 779 888.816, 783.434 898.978, 785.594 899.698 C 786.184 899.895, 787.471 897.398, 788.455 894.150 C 790.110 888.682, 790.531 888.158, 794.121 887.082 C 796.255 886.443, 797.999 885.600, 797.999 885.210 C 797.998 884.819, 793.914 883.235, 788.923 881.690 C 783.932 880.144, 779.095 878.615, 778.174 878.292 C 776.811 877.815, 776.732 877.956, 777.750 879.053 M 815.404 884.857 L 810.308 888.925 804.931 886.882 C 801.515 885.584, 799.425 885.225, 799.201 885.897 C 799.007 886.479, 795.974 891.016, 792.462 895.978 C 788.950 900.940, 786.419 905, 786.838 905 C 787.257 905, 788.037 904.563, 788.571 904.029 C 789.199 903.401, 791.258 903.574, 794.400 904.520 C 799.232 905.974, 805.360 905.686, 808.112 903.875 C 809.218 903.148, 808.957 902.555, 806.828 900.954 C 799.818 895.687, 799.854 895.743, 800.185 890.636 L 800.500 885.795 807.410 895.398 C 811.211 900.679, 814.431 905, 814.567 905 C 814.702 905, 814.591 904.150, 814.319 903.112 C 814.024 901.983, 815.058 899.522, 816.889 896.994 C 820.105 892.555, 821.387 888.182, 820.832 883.553 L 820.500 880.790 815.404 884.857 M 511.500 887.657 C 507.520 889.748, 502.175 894.841, 500.397 898.234 C 499.086 900.737, 499.272 902.040, 502.595 913.627 C 505.304 923.075, 507.354 928.031, 510.677 933.168 C 513.126 936.953, 517.565 944.936, 520.543 950.909 C 525.521 960.894, 535.435 975.688, 539.230 978.794 C 540.100 979.506, 541.847 983.021, 543.112 986.606 C 544.378 990.190, 546.930 994.895, 548.785 997.061 C 551.803 1000.588, 552.637 1001, 556.762 1001 C 566.456 1001, 573.885 994.387, 577.667 982.388 C 579.104 977.827, 579.165 976.010, 578.124 968.572 C 576.884 959.709, 573.231 947.462, 569.749 940.500 C 566.255 933.513, 556.953 919.761, 550.384 911.873 C 543.865 904.044, 528.210 889.197, 524.316 887.149 C 521.259 885.541, 515.058 885.787, 511.500 887.657 M 1074.498 887.838 C 1068.874 891.268, 1049.519 911.505, 1042.767 921.016 C 1029.673 939.461, 1023.317 954.876, 1022.306 970.639 C 1021.633 981.117, 1023.299 987.481, 1028.302 993.550 C 1033.471 999.821, 1043.485 1002.951, 1048.976 1000.013 C 1051.386 998.723, 1054.550 993.529, 1057.483 986.044 C 1058.780 982.733, 1062.060 977.431, 1064.771 974.262 C 1071.525 966.365, 1075.121 960.815, 1079.193 952 C 1081.098 947.875, 1085.235 940.339, 1088.387 935.253 C 1092.918 927.942, 1094.842 923.465, 1097.580 913.859 C 1099.485 907.179, 1100.763 900.827, 1100.419 899.746 C 1099.361 896.412, 1092.710 889.783, 1088.500 887.866 C 1083.376 885.532, 1078.296 885.522, 1074.498 887.838 M 1238.702 893 C 1238.263 895.475, 1237.678 898.625, 1237.400 900 C 1236.908 902.441, 1236.934 902.434, 1238.503 899.705 C 1239.478 898.011, 1239.990 895.255, 1239.805 892.705 L 1239.500 888.500 1238.702 893 M 937.500 914.482 C 940.250 916.925, 942.892 918.940, 943.372 918.962 C 944.951 919.031, 941.360 914.544, 938 912.250 C 932.486 908.485, 932.198 909.773, 937.500 914.482 M 474.500 913.407 C 459.051 918.323, 451.908 926.067, 450.022 939.942 C 448.458 951.451, 454.862 965.561, 469.336 982.500 C 480.002 994.982, 502.414 1017.710, 505.700 1019.377 C 509.771 1021.441, 518.922 1021.477, 523.782 1019.447 C 531.795 1016.100, 536 1009.929, 536 1001.518 C 536 990.424, 530.456 978.477, 520.446 968 C 517.030 964.425, 512.695 959.025, 510.812 956 C 507.410 950.536, 502 939.080, 502 937.341 C 502 936.841, 499.502 933.972, 496.448 930.966 C 493.395 927.960, 488.815 922.462, 486.272 918.750 C 483.728 915.038, 480.939 912.030, 480.073 912.067 C 479.208 912.104, 476.700 912.707, 474.500 913.407 M 1113.729 919.189 C 1110.736 923.210, 1106.242 928.525, 1103.742 931 C 1100.586 934.123, 1098.222 937.862, 1096.017 943.220 C 1092.024 952.918, 1086.882 960.709, 1079.067 968.900 C 1069.020 979.431, 1062.463 996.015, 1064.359 1006.104 C 1065.183 1010.491, 1070.105 1016.172, 1075.485 1018.945 C 1080.183 1021.367, 1089.374 1021.710, 1094.282 1019.647 C 1097.458 1018.312, 1123.690 991.486, 1133.658 979.380 C 1144.719 965.947, 1150.230 954.109, 1150.159 943.939 C 1150.065 930.491, 1143.444 920.378, 1131.666 915.693 C 1119.664 910.919, 1119.920 910.869, 1113.729 919.189 M 429.148 951.019 C 417.888 956.128, 411.625 965.253, 411.625 976.547 C 411.625 982.726, 411.594 982.796, 409.247 981.904 C 405.359 980.426, 398.794 980.910, 394.149 983.018 C 391.756 984.104, 389.324 984.700, 388.744 984.342 C 388.165 983.984, 387.981 984.160, 388.334 984.732 C 388.688 985.305, 388.278 986.354, 387.423 987.064 C 382.333 991.288, 382.102 998.184, 386.594 1011.769 C 389.795 1021.446, 392.656 1025.796, 402.860 1036.500 C 418.814 1053.235, 426.657 1058.234, 437.064 1058.299 C 445.745 1058.353, 451.176 1054.281, 449.494 1048.981 C 449.141 1047.870, 443.235 1040.558, 436.368 1032.731 C 422.573 1017.006, 418.576 1010.176, 415.069 996.333 C 412.383 985.731, 412.474 984.538, 415.558 989.932 C 416.951 992.370, 422.056 999.570, 426.903 1005.932 C 431.749 1012.295, 437.439 1020.200, 439.547 1023.500 C 444.988 1032.015, 451.909 1038.353, 460.271 1042.477 C 478.595 1051.513, 490.733 1048.808, 493.919 1034.980 C 496.451 1023.990, 495.025 1021.424, 475.292 1001.453 C 465.735 991.782, 460.524 985.652, 458.321 981.491 C 455.092 975.392, 451 962.409, 451 958.263 C 451 954.124, 443.241 949.220, 436.500 949.098 C 434.850 949.068, 431.542 949.933, 429.148 951.019 M 1157.500 950.206 C 1152.137 952.080, 1150.265 954.704, 1148.477 962.851 C 1147.554 967.058, 1145.405 973.875, 1143.703 978 C 1140.921 984.742, 1139.233 986.916, 1127.017 999.500 C 1109.763 1017.274, 1107.319 1020.184, 1106.179 1024.314 C 1104.872 1029.047, 1106.434 1037.546, 1109.447 1042.099 C 1114.334 1049.485, 1125.170 1049.660, 1139.500 1042.586 C 1149.430 1037.684, 1153.863 1033.471, 1163.074 1020.182 C 1167.528 1013.757, 1173.835 1005.125, 1177.090 1001 C 1180.345 996.875, 1183.906 991.700, 1185.003 989.500 C 1186.726 986.046, 1186.997 985.841, 1186.987 988 C 1186.973 991.309, 1184.619 1000.019, 1181.872 1006.930 C 1178.705 1014.899, 1174.489 1020.876, 1162.423 1034.500 C 1150.113 1048.399, 1149.082 1050.287, 1151.798 1053.945 C 1156.025 1059.639, 1167.668 1059.762, 1177.242 1054.215 C 1187.384 1048.337, 1205.770 1029.334, 1210.671 1019.663 C 1213.478 1014.122, 1217 1001.228, 1217 996.488 C 1217 986.865, 1201.086 977.985, 1190.815 981.877 C 1188.543 982.738, 1188.499 982.632, 1188.429 976.091 C 1188.310 964.946, 1182.136 956.139, 1170.852 951.019 C 1166.067 948.848, 1162.082 948.605, 1157.500 950.206 M 765.500 962.012 C 748.258 963.012, 738.228 966.375, 732.621 973.038 L 729.982 976.175 717.241 976.438 C 709.798 976.591, 701.701 977.378, 697.770 978.331 C 685.926 981.201, 671 989.054, 671 992.416 C 671 994.625, 675.051 999.042, 681.286 1003.632 C 686.680 1007.602, 687.747 1008, 693.005 1008 C 699.372 1008, 708.256 1005.565, 718.094 1001.124 C 725.365 997.842, 738.866 994.370, 746.952 993.704 L 752.403 993.255 748.452 996.342 C 742.847 1000.720, 737.206 1006.834, 734.444 1011.525 C 727.284 1023.684, 727.630 1044.476, 735.117 1051.963 C 740.939 1057.786, 753.907 1059.242, 766.409 1055.478 C 769.109 1054.665, 774.636 1054, 778.691 1054 C 782.746 1054, 787.560 1053.375, 789.389 1052.611 C 793.578 1050.861, 797.688 1046.475, 799.073 1042.279 L 800.141 1039.042 802.842 1044.271 C 806.489 1051.333, 811.609 1054, 821.521 1054 C 825.448 1054, 832.361 1054.946, 836.993 1056.118 C 849.171 1059.197, 859.955 1057.449, 865.581 1051.482 C 871.998 1044.679, 872.853 1026.681, 867.321 1014.889 C 864.373 1008.604, 856.575 999.495, 850.500 995.240 L 847.500 993.138 852 993.623 C 863.272 994.837, 869.912 996.360, 878.377 999.675 C 896.719 1006.855, 900.423 1007.948, 906.513 1007.974 C 911.726 1007.997, 913.203 1007.544, 917.609 1004.577 C 924.198 1000.140, 929 995.300, 929 993.097 C 929 988.086, 911.981 979.702, 897.324 977.493 C 879.565 974.816, 870.153 976.020, 863.622 981.805 C 861.799 983.421, 861.758 983.406, 862.762 981.489 C 863.341 980.383, 864.756 978.625, 865.907 977.584 C 868.839 974.931, 868.546 973.597, 864.250 970.043 C 858.340 965.153, 849.613 962.905, 833 961.992 C 815.606 961.036, 808.947 962.298, 803.305 967.620 L 799.804 970.921 797.328 967.978 C 794.790 964.962, 784.078 960.831, 779.645 961.158 C 778.465 961.246, 772.100 961.630, 765.500 962.012 M 646.005 970.007 C 647.174 971.649, 650.153 974.178, 652.625 975.626 C 656.600 977.956, 657.895 978.205, 663.835 977.780 C 667.529 977.515, 671.889 976.575, 673.525 975.690 L 676.500 974.080 670.934 974.040 C 662.883 973.982, 654.210 972.183, 648.690 969.425 L 643.879 967.022 646.005 970.007 M 952.529 969.043 C 948.600 971.552, 937.647 973.980, 929.803 974.082 L 923.500 974.163 927 975.748 C 932.396 978.190, 941.995 978.563, 946.094 976.490 C 949.997 974.515, 953.755 971.295, 955.127 968.750 C 956.257 966.654, 956.274 966.652, 952.529 969.043 M 621.301 970.500 C 621.603 971.600, 622.166 974.057, 622.551 975.960 C 623.577 981.029, 626.816 988.158, 629.317 990.849 C 631.533 993.234, 638.451 997.109, 643 998.513 C 645.215 999.196, 645.022 998.765, 641.312 994.732 C 639.009 992.228, 633.671 985.527, 629.451 979.840 C 620.540 967.832, 620.581 967.880, 621.301 970.500 M 976.026 972.757 C 972.050 978.772, 961.423 992.289, 958.599 994.924 C 954.679 998.581, 955.444 999.203, 961.179 997.024 C 968.121 994.386, 973.373 989.066, 975.893 982.118 C 977.860 976.695, 979.604 968.993, 978.861 969.007 C 978.663 969.011, 977.387 970.698, 976.026 972.757 M 645 980.571 C 645 980.978, 646.177 982.855, 647.616 984.741 C 650.639 988.704, 655.612 992.005, 658.500 991.965 C 659.994 991.945, 659.519 991.335, 656.625 989.556 C 654.494 988.247, 651.006 985.523, 648.875 983.503 C 646.744 981.484, 645 980.164, 645 980.571 M 953.002 982.498 C 952.318 983.322, 949.062 985.797, 945.765 987.998 C 942.469 990.199, 940.528 992, 941.452 992 C 944.816 992, 951.916 986.817, 954.121 982.750 C 955.284 980.606, 954.684 980.471, 953.002 982.498 M 1023.640 1014.427 C 1019.087 1021.376, 985.681 1048.770, 967.581 1060.397 C 926.803 1086.593, 879.018 1103.135, 830.144 1107.975 C 816.797 1109.296, 783.166 1109.294, 769.856 1107.970 C 700.312 1101.055, 635.618 1071.235, 585.739 1023.102 C 579.812 1017.383, 574.767 1012.899, 574.528 1013.139 C 574.288 1013.379, 573.805 1015.370, 573.454 1017.563 L 572.816 1021.552 585.233 1032.798 C 600.411 1046.545, 609.724 1053.796, 626 1064.540 C 665.897 1090.877, 710.990 1107.574, 759.999 1114.156 C 780.187 1116.867, 816.953 1117.097, 836.914 1114.637 C 906.384 1106.076, 967.734 1077.371, 1018.647 1029.607 L 1027.793 1021.026 1026.842 1016.792 C 1025.643 1011.457, 1025.604 1011.428, 1023.640 1014.427 M 558 1024.850 C 551.727 1030.746, 536.517 1038.913, 531.691 1038.976 C 528.285 1039.021, 530.971 1040.769, 535.488 1041.446 C 543.326 1042.621, 548.786 1041.214, 553.092 1036.908 C 559.469 1030.531, 564.124 1019.093, 558 1024.850 M 1039 1022.837 C 1039 1025.552, 1044.078 1033.837, 1047.806 1037.206 C 1052.258 1041.228, 1057.540 1042.596, 1064.557 1041.544 C 1068.975 1040.881, 1071.687 1039.023, 1068.309 1038.973 C 1063.125 1038.895, 1049.690 1031.492, 1042.250 1024.613 C 1040.463 1022.960, 1039 1022.161, 1039 1022.837 M 561.867 1066.750 C 525.870 1113.379, 520 1121.117, 520 1121.945 C 520 1122.426, 526.831 1128.109, 535.181 1134.574 L 550.362 1146.329 553.231 1142.914 C 557.622 1137.688, 576.317 1113.240, 577.907 1110.646 C 579.167 1108.590, 579.019 1107.599, 576.499 1101.175 C 574.951 1097.229, 573.578 1094, 573.449 1094 C 573.320 1094, 569.691 1098.612, 565.386 1104.250 C 555.359 1117.377, 548.876 1125.430, 548.066 1125.762 C 547.715 1125.906, 545.517 1124.620, 543.182 1122.903 C 540.394 1120.852, 539.233 1119.389, 539.800 1118.640 C 540.274 1118.013, 549.572 1105.931, 560.462 1091.790 L 580.262 1066.081 584.648 1069.674 L 589.033 1073.268 586.333 1076.884 C 584.848 1078.873, 582.778 1081.621, 581.733 1082.991 L 579.833 1085.482 583.666 1088.780 C 590.731 1094.857, 589.896 1095.183, 599.991 1082.404 C 607.734 1072.601, 608.910 1070.644, 607.645 1069.661 C 594.187 1059.201, 578.026 1047, 577.628 1047 C 577.345 1047, 570.253 1055.888, 561.867 1066.750 M 1006.223 1061.082 L 990.945 1073.161 993.723 1076.891 C 1006.669 1094.278, 1015.704 1104.922, 1017.500 1104.902 C 1018.600 1104.890, 1026.112 1103.879, 1034.193 1102.656 C 1044.908 1101.034, 1048.604 1100.772, 1047.844 1101.688 C 1047.074 1102.616, 1048.689 1105.336, 1054.033 1112.111 L 1061.265 1121.278 1057.382 1124.602 C 1055.247 1126.429, 1053.050 1127.933, 1052.500 1127.942 C 1051.950 1127.951, 1048.628 1124.143, 1045.118 1119.480 C 1041.607 1114.816, 1038.282 1111, 1037.727 1111 C 1036.580 1111, 1026.992 1118.122, 1027.015 1118.955 C 1027.027 1119.380, 1047.959 1146.236, 1049.567 1147.889 C 1050.012 1148.347, 1053.383 1145.837, 1069.287 1133.204 L 1081.074 1123.842 1077.787 1119.520 C 1058.713 1094.442, 1052.395 1087.061, 1050 1087.057 C 1048.625 1087.054, 1041.875 1087.888, 1035 1088.911 C 1028.125 1089.933, 1022.465 1090.709, 1022.422 1090.635 C 1022.379 1090.561, 1019.707 1087.196, 1016.484 1083.157 L 1010.625 1075.815 1014.562 1072.445 C 1016.728 1070.591, 1018.838 1069.058, 1019.251 1069.038 C 1019.664 1069.017, 1022.088 1071.687, 1024.638 1074.970 L 1029.275 1080.941 1031.887 1079.021 C 1033.324 1077.966, 1035.838 1076.006, 1037.474 1074.667 L 1040.448 1072.231 1036.974 1067.822 C 1035.063 1065.397, 1031.025 1060.195, 1028 1056.261 C 1024.975 1052.328, 1022.275 1049.086, 1022 1049.057 C 1021.725 1049.027, 1014.625 1054.439, 1006.223 1061.082 M 783.329 1062.176 C 780.173 1062.655, 776.315 1064.205, 773.427 1066.154 C 766.796 1070.629, 758.251 1073.948, 753.289 1073.976 C 749.086 1074, 749.075 1074.010, 747.539 1079.182 C 744.877 1088.146, 745.095 1088.640, 752.250 1089.865 C 780.929 1094.774, 819.428 1094.775, 848.086 1089.866 C 855.461 1088.603, 855.143 1089.335, 852.867 1078.875 L 851.861 1074.251 847.452 1074.162 C 842.428 1074.062, 834.904 1071.144, 827.253 1066.330 C 820.966 1062.374, 812.598 1060.709, 808.233 1062.544 C 804.941 1063.928, 801.002 1068.468, 800.996 1070.885 C 800.994 1071.786, 800.050 1070.953, 798.860 1069 C 794.978 1062.630, 791.220 1060.979, 783.329 1062.176 M 613.575 1081.314 C 609.868 1088.037, 585.751 1130.940, 576.746 1146.830 C 572.903 1153.611, 570.151 1159.510, 570.630 1159.939 C 572.966 1162.034, 582.376 1166.376, 582.679 1165.500 C 583.937 1161.864, 603.992 1127.500, 604.856 1127.500 C 605.775 1127.500, 613 1138.349, 613 1139.728 C 613 1139.995, 612.405 1139.985, 611.677 1139.706 C 610.795 1139.368, 607.422 1144.487, 601.571 1155.040 C 596.740 1163.754, 592.771 1171.245, 592.750 1171.688 C 592.710 1172.537, 603.956 1179.423, 604.431 1178.840 C 604.583 1178.653, 607.842 1172.875, 611.674 1166 C 615.505 1159.125, 625.956 1140.523, 634.898 1124.661 C 643.840 1108.800, 651.008 1095.711, 650.828 1095.575 C 649.142 1094.300, 638.815 1088.869, 638.599 1089.143 C 638.444 1089.339, 634.135 1097.043, 629.024 1106.261 C 622.558 1117.924, 619.392 1122.737, 618.616 1122.083 C 618.002 1121.567, 616.400 1119.115, 615.056 1116.636 L 612.612 1112.129 615.491 1106.814 C 617.074 1103.891, 620.569 1097.675, 623.258 1093 C 625.947 1088.325, 628.226 1084.161, 628.323 1083.748 C 628.420 1083.334, 625.785 1081.450, 622.467 1079.562 L 616.434 1076.129 613.575 1081.314 M 965.750 1087.771 C 956.538 1093.082, 949 1097.826, 949 1098.313 C 949 1098.800, 951.475 1103.404, 954.500 1108.544 C 960.416 1118.595, 960.791 1119.680, 958.522 1120.177 C 957.382 1120.426, 957.889 1121.928, 960.740 1126.750 C 964.297 1132.764, 964.588 1133.001, 968.468 1133.015 C 971.099 1133.025, 972.030 1133.329, 971.147 1133.888 C 969.504 1134.929, 968.709 1133.301, 983.778 1159.750 C 990.123 1170.888, 995.721 1180, 996.216 1180 C 996.711 1180, 1004.505 1175.838, 1013.534 1170.750 C 1025.542 1163.985, 1029.810 1161.097, 1029.425 1160 C 1029.135 1159.175, 1026.420 1154.112, 1023.392 1148.750 L 1017.887 1139 1009.943 1139 C 1005.575 1139, 1002 1139.244, 1002 1139.542 C 1002 1139.840, 1004.007 1143.512, 1006.460 1147.702 C 1008.913 1151.893, 1010.750 1155.586, 1010.542 1155.910 C 1009.887 1156.931, 1001.099 1161.436, 1000.699 1160.957 C 1000.489 1160.706, 996.876 1154.425, 992.669 1147 L 985.021 1133.500 992.935 1133 L 1000.849 1132.500 997.333 1126.250 L 993.818 1120 985.515 1120 L 977.213 1120 972.607 1111.869 C 970.073 1107.397, 968 1103.437, 968 1103.068 C 968 1102.487, 976.369 1098, 977.453 1098 C 977.673 1098, 979.264 1100.465, 980.988 1103.479 C 982.712 1106.492, 984.570 1109.234, 985.117 1109.572 C 986.233 1110.262, 996.994 1104.946, 996.998 1103.703 C 997 1102.976, 982.980 1077.925, 982.645 1078.057 C 982.565 1078.088, 974.962 1082.460, 965.750 1087.771 M 452.823 1083.774 C 454.651 1086.083, 456.676 1088.299, 457.323 1088.698 C 457.970 1089.098, 457.005 1087.535, 455.177 1085.226 C 453.349 1082.917, 451.324 1080.701, 450.677 1080.302 C 450.030 1079.902, 450.995 1081.465, 452.823 1083.774 M 461.526 1094.500 C 464.026 1098.449, 481.275 1118.313, 487 1123.835 C 489.475 1126.222, 494.313 1130.248, 497.750 1132.781 C 501.188 1135.314, 504 1137.749, 504 1138.193 C 504 1138.637, 504.516 1139, 505.147 1139 C 505.778 1139, 508.365 1140.625, 510.897 1142.611 C 513.429 1144.597, 511.900 1142.964, 507.500 1138.981 C 503.100 1134.999, 490.529 1122.686, 479.564 1111.620 C 468.599 1100.554, 460.482 1092.850, 461.526 1094.500 M 659 1100.395 C 659 1100.563, 655.141 1110.780, 650.426 1123.100 C 645.710 1135.420, 639.885 1150.675, 637.481 1157 C 635.078 1163.325, 631.297 1173.198, 629.078 1178.939 C 626.860 1184.680, 625.147 1189.443, 625.272 1189.521 C 626.517 1190.306, 638.143 1194.174, 638.384 1193.884 C 638.560 1193.673, 641.971 1184.950, 645.964 1174.500 C 649.958 1164.050, 653.623 1154.462, 654.109 1153.194 C 654.952 1150.994, 655.224 1151.166, 659.997 1156.900 C 665.421 1163.418, 665.715 1164, 663.587 1164 C 662.753 1164, 661.054 1166.965, 659.433 1171.250 C 657.926 1175.237, 654.965 1182.966, 652.854 1188.424 C 650.742 1193.882, 649.124 1198.414, 649.258 1198.494 C 650.661 1199.336, 660.535 1202.998, 661.383 1202.991 C 662.711 1202.980, 696.656 1115.323, 695.702 1114.369 C 694.851 1113.518, 659 1099.868, 659 1100.395 M 917.580 1110.052 C 907.724 1113.877, 899.506 1117.161, 899.318 1117.349 C 898.870 1117.796, 932.557 1204.857, 933.584 1205.908 C 933.919 1206.251, 968.690 1193.252, 969.906 1192.329 C 970.129 1192.160, 967.767 1185.529, 964.656 1177.595 C 961.545 1169.660, 959 1162.947, 959 1162.678 C 959 1162.408, 959.900 1162.423, 961 1162.710 C 963.524 1163.370, 963.519 1163.319, 960.418 1155.572 C 958.320 1150.332, 957.337 1149.015, 955.168 1148.545 C 952.257 1147.915, 934.908 1145.046, 933.839 1145.017 C 932.924 1144.993, 938.211 1158.327, 939.476 1159.235 C 940.039 1159.639, 941.850 1159.983, 943.500 1160 C 945.717 1160.023, 946.121 1160.270, 945.047 1160.950 C 943.657 1161.829, 945.047 1166.415, 951.503 1182.255 C 952.056 1183.614, 951.459 1184.322, 948.859 1185.386 C 940.813 1188.679, 942.402 1190.827, 931.016 1161.266 C 925.345 1146.545, 919.912 1132.462, 918.941 1129.972 L 917.177 1125.444 922.543 1123.332 L 927.909 1121.219 930.542 1128.110 C 931.990 1131.899, 933.698 1135, 934.337 1134.999 C 936.437 1134.998, 945.416 1131.252, 945.755 1130.236 C 946.033 1129.402, 936.213 1102.904, 935.679 1103.049 C 935.581 1103.075, 927.436 1106.227, 917.580 1110.052 M 704.600 1119.750 C 704.306 1120.713, 701.125 1134.775, 697.532 1151 C 693.939 1167.225, 689.477 1187.250, 687.616 1195.500 C 685.754 1203.750, 684.310 1210.593, 684.406 1210.707 C 684.991 1211.401, 722.213 1219.121, 722.687 1218.646 C 723.473 1217.861, 727.936 1199.049, 727.972 1196.371 C 727.990 1195.005, 726.013 1192.546, 722.452 1189.503 C 719.400 1186.896, 716.698 1184.969, 716.446 1185.220 C 716.195 1185.472, 715.253 1189.350, 714.352 1193.839 C 712.539 1202.881, 712.312 1203.047, 704.702 1200.934 C 701.838 1200.139, 701.027 1199.464, 701.407 1198.190 C 702.049 1196.036, 718.052 1123.979, 718.308 1122.086 C 718.432 1121.171, 716.735 1120.207, 713.500 1119.355 C 706.832 1117.599, 705.236 1117.670, 704.600 1119.750 M 664.073 1126.968 C 662.383 1131.350, 661 1135.326, 661 1135.804 C 661 1137.434, 668.324 1146.077, 669.036 1145.287 C 669.666 1144.589, 678 1123.447, 678 1122.546 C 678 1122.141, 669.049 1119, 667.895 1119 C 667.483 1119, 665.763 1122.585, 664.073 1126.968 M 883.250 1120.716 C 876.281 1122.302, 876.119 1122.614, 878.128 1130.595 C 878.749 1133.060, 878.997 1135.336, 878.680 1135.653 C 878.155 1136.179, 861.381 1131.387, 854.718 1128.808 C 853.188 1128.215, 851.806 1127.904, 851.647 1128.115 C 851.488 1128.327, 853.565 1138.400, 856.261 1150.500 C 858.958 1162.600, 863.544 1183.300, 866.453 1196.500 L 871.741 1220.500 875.121 1220.217 C 876.979 1220.061, 880.111 1219.501, 882.081 1218.974 L 885.661 1218.014 878.511 1185.757 C 874.578 1168.016, 871.031 1152.206, 870.629 1150.624 C 870.082 1148.469, 870.225 1147.864, 871.199 1148.211 C 871.915 1148.466, 875.538 1149.530, 879.250 1150.575 C 885.768 1152.410, 887.418 1153.499, 884.706 1154.177 C 883.732 1154.420, 885.079 1162.014, 890.150 1184.861 C 893.856 1201.560, 897.026 1215.313, 897.194 1215.425 C 897.362 1215.537, 900.313 1214.998, 903.750 1214.228 C 908.550 1213.152, 910 1212.414, 910 1211.047 C 910 1210.069, 905.983 1191.095, 901.073 1168.884 C 890.061 1119.066, 890.252 1119.904, 889.839 1119.569 C 889.652 1119.418, 886.688 1119.934, 883.250 1120.716 M 752.587 1133.143 C 752.266 1136.089, 750.864 1154.475, 749.471 1174 C 748.079 1193.525, 746.666 1212.513, 746.331 1216.196 C 745.743 1222.667, 745.803 1222.909, 748.111 1223.388 C 751.309 1224.051, 785.076 1226.265, 785.469 1225.837 C 785.638 1225.652, 786.099 1220.036, 786.493 1213.358 L 787.208 1201.216 781.027 1197.018 C 777.627 1194.710, 774.607 1193.059, 774.316 1193.351 C 774.025 1193.642, 773.546 1197.732, 773.252 1202.440 L 772.718 1211 769.109 1210.986 C 761.190 1210.956, 760.869 1210.603, 761.524 1202.625 C 763.130 1183.046, 766.930 1129.599, 766.729 1129.411 C 766.603 1129.294, 763.501 1128.880, 759.835 1128.491 L 753.171 1127.785 752.587 1133.143 M 816.015 1130.394 L 802.529 1131.500 802.771 1136 C 802.904 1138.475, 803.286 1144.034, 803.620 1148.353 C 804.187 1155.700, 804.106 1156.168, 802.363 1155.613 C 800.629 1155.061, 800.535 1155.545, 801 1162.611 C 801.492 1170.077, 801.557 1170.232, 805 1172.059 C 806.954 1173.096, 807.769 1173.935, 806.845 1173.958 C 805.530 1173.991, 805.276 1174.771, 805.607 1177.750 C 805.837 1179.813, 806.715 1191.609, 807.560 1203.964 C 808.404 1216.320, 809.186 1226.500, 809.298 1226.587 C 809.409 1226.674, 817.600 1226.146, 827.500 1225.413 C 837.400 1224.680, 846.266 1224.063, 847.203 1224.040 C 848.625 1224.007, 848.834 1223.217, 848.469 1219.250 C 848.229 1216.638, 847.759 1210.987, 847.425 1206.693 L 846.819 1198.886 839.743 1195.443 C 835.852 1193.549, 832.598 1192.112, 832.513 1192.250 C 832.428 1192.387, 832.663 1196.550, 833.035 1201.500 C 833.408 1206.450, 833.664 1210.550, 833.606 1210.612 C 833.548 1210.674, 830.963 1210.973, 827.861 1211.278 L 822.223 1211.833 821.579 1203.166 C 821.226 1198.400, 820.664 1190.976, 820.332 1186.669 L 819.728 1178.838 826.839 1182.419 C 830.750 1184.388, 834.074 1186.001, 834.225 1186.002 C 834.376 1186.004, 834.351 1182.603, 834.169 1178.446 L 833.838 1170.887 826.540 1167.423 C 818.264 1163.494, 818 1162.983, 818 1150.875 L 818 1144 823.383 1144 L 828.765 1144 829.468 1151.500 L 830.171 1159 833.960 1159 C 836.045 1159, 839.204 1158.709, 840.981 1158.354 L 844.212 1157.708 843.585 1149.104 C 843.240 1144.372, 842.698 1137.912, 842.381 1134.750 L 841.804 1129 835.652 1129.144 C 832.268 1129.224, 823.432 1129.786, 816.015 1130.394 M 516 1146.378 C 516 1146.585, 516.788 1147.373, 517.750 1148.128 C 519.336 1149.371, 519.371 1149.336, 518.128 1147.750 C 516.821 1146.084, 516 1145.555, 516 1146.378 M 528 1156.330 C 528 1156.512, 530 1158.097, 532.444 1159.853 C 534.888 1161.608, 539.191 1165.009, 542.005 1167.412 C 546.781 1171.488, 556.853 1177.481, 557.627 1176.706 C 557.817 1176.517, 554.950 1174.368, 551.257 1171.931 C 547.563 1169.494, 541.042 1164.912, 536.765 1161.750 C 529.567 1156.428, 528 1155.459, 528 1156.330 M 559 1177.876 C 559 1178.317, 560.013 1179.174, 561.250 1179.778 C 562.487 1180.383, 565.413 1182.056, 567.750 1183.496 C 570.087 1184.935, 572 1185.913, 572 1185.668 C 572 1185.424, 569.075 1183.389, 565.500 1181.148 C 561.925 1178.906, 559 1177.434, 559 1177.876 M 577.500 1189.345 C 579.150 1190.765, 581.007 1191.944, 581.628 1191.964 C 582.248 1191.984, 583.274 1192.625, 583.908 1193.389 C 584.542 1194.153, 586.206 1194.997, 587.606 1195.265 C 591.026 1195.919, 589.798 1194.964, 581.500 1190.514 C 575.702 1187.405, 575.015 1187.205, 577.500 1189.345 M 591.500 1197 C 591.840 1197.550, 592.879 1197.993, 593.809 1197.985 C 595.266 1197.971, 595.293 1197.835, 594 1197 C 592.042 1195.734, 590.718 1195.734, 591.500 1197 M 597 1199.426 C 597 1199.820, 602.220 1203.105, 607.746 1206.189 C 611.341 1208.194, 617.093 1208.866, 613.681 1206.881 C 610.675 1205.133, 597 1199.022, 597 1199.426 M 616 1208.577 C 616 1209.252, 621.195 1211.139, 621.690 1210.644 C 621.917 1210.417, 620.729 1209.753, 619.051 1209.168 C 617.373 1208.583, 616 1208.317, 616 1208.577 M 625.358 1212.750 C 626.344 1214.303, 638.101 1219.332, 643.498 1220.509 C 648.206 1221.535, 646.226 1220.431, 635.515 1216.056 C 624.797 1211.679, 624.647 1211.630, 625.358 1212.750 M 649.866 1222.632 C 651.718 1223.440, 653.468 1223.866, 653.755 1223.578 C 654.357 1222.976, 649.455 1220.960, 647.685 1221.082 C 647.033 1221.126, 648.015 1221.824, 649.866 1222.632 M 656 1224.311 C 656 1225.330, 666.867 1230, 669.238 1230 C 670.537 1230, 672.076 1230.476, 672.658 1231.058 C 673.239 1231.639, 676.367 1232.318, 679.608 1232.565 C 686.786 1233.113, 686.521 1232.977, 671.500 1228.410 C 655.683 1223.600, 656 1223.684, 656 1224.311 M 687.531 1233.903 C 688.064 1234.421, 690.300 1235.130, 692.500 1235.480 C 695.110 1235.894, 695.979 1235.795, 695 1235.195 C 692.832 1233.865, 686.335 1232.742, 687.531 1233.903" stroke="none" fill="#d4af37" fill-rule="evenodd"/>
</svg>